<?xml version="1.0" encoding="utf-8"?>
<!-- Generator: Adobe Illustrator 19.2.1, SVG Export Plug-In . SVG Version: 6.00 Build 0)  -->
<svg version="1.1" id="圖層_1" xmlns="http://www.w3.org/2000/svg" xmlns:xlink="http://www.w3.org/1999/xlink" x="0px" y="0px"
	 viewBox="0 0 640 74" style="enable-background:new 0 0 640 74;" xml:space="preserve">
<style type="text/css">
	.st0{opacity:0.33;fill:#FFFFFF;}
	.st1{opacity:0.6;fill:#070000;}
	.st2{fill:#FFFFFF;}
	.st3{font-family:'NotoSansCJKtc-Regular-B5pc-H';}
	.st4{font-size:24px;}
</style>
<path class="st0" d="M197.2,73.3H51.3c-3.8,0-7-3.1-7-7V8.1c0-3.8,3.2-7,7-7h145.8c3.8,0,7,3.2,7,7v58.2
	C204.2,70.1,201,73.3,197.2,73.3z"/>
<path class="st1" d="M197.8,69H50.4c-1.1,0-2.1-0.9-2.1-2.1V7.4c0-1.1,0.9-2.1,2.1-2.1h147.3c1.1,0,2.1,0.9,2.1,2.1v59.5
	C199.8,68.1,198.9,69,197.8,69z"/>
<text transform="matrix(1 0 0 1 75.6665 46.7129)" class="st2 st3 st4">下次再說</text>
</svg>
