<svg xmlns="http://www.w3.org/2000/svg" viewBox="0 0 315.9 70.9"><defs><style>.a{fill:#be1e88;}</style></defs><title>brands-result-text-land</title><path class="a" d="M11.8,13.6v-6a15.8,15.8,0,0,1-4.4,5.3l-0.5-.7a21,21,0,0,0,4.4-7.3H7.8V3.8h4.1V0.5h2V3.8h3.3V4.9H13.9V6.1a18.4,18.4,0,0,1,3.4,2.5l-1.4,1.6-2-2.8v6.2H11.8Zm-1.3,1.2,0.8,0.3a11.3,11.3,0,0,1-2.4,6.2L7,19.6A10.5,10.5,0,0,0,10.5,14.8Zm13.1,1.7c0.9,3.6.7,5-1.5,5.2a37.6,37.6,0,0,1-7.3,0c-2-.2-2.5-1-2.5-2.5V14.3h2.1v4.1c0,0.9.2,1.3,1.6,1.4a27.7,27.7,0,0,0,5.4,0c1.2-.1,1.4-0.9,1.3-3.3h0.9Zm-7-2.9a17.2,17.2,0,0,1,4.3,3l-1.7,1.6a25.9,25.9,0,0,0-3.1-3.9Zm3,0h-2V1.8h8.8V13.7h-2V12.4H19.6v1.2Zm0-8.6h4.8V2.8H19.6V5Zm0,3.2h4.8V6H19.6V8.2Zm0,1v2.2h4.8V9.2H19.6Zm8.7,10.3-2.1,1.2a25.2,25.2,0,0,0-2.4-5.4l0.7-.6a17.6,17.6,0,0,1,3.9,4.8H28.3Z"/><path class="a" d="M46.7,14.5a10.3,10.3,0,0,1-1.8,3.7,27.2,27.2,0,0,1,5.8,2.1l-1.4,2.3a35.8,35.8,0,0,0-5.8-3c-2.6,2-6.6,2.8-12.3,3V21.7c4.5-.4,8-1.3,10.4-2.9l-3.9-1-1.3,1.6-1.7-1a45.2,45.2,0,0,0,2.8-3.9H31.3V13.4h6.8l1.3-2.3H33.3V5.3h4.8V3H31.7V1.9H51.1V3H44.7V5.3h4.9v5.8H40.1l1.5,0.5-1,1.8h11v1.1H46.7ZM38.1,6.3H35.3V10H38V6.3h0.1Zm6.4,8.2H40L38.3,17l4.4,0.7a8.3,8.3,0,0,0,1.7-3.2h0.1ZM40.1,5.3h2.6V3H40.1V5.3Zm0,4.8h2.6V6.4H40.1V10h0Zm4.7,0h2.8V6.4H44.7V10h0.1Z"/><path class="a" d="M59,6.8V22.4H57V9.9a21.6,21.6,0,0,1-2.5,2.7L53.9,12A27.9,27.9,0,0,0,58.8.3l2.4,0.6A31.3,31.3,0,0,1,59,6.8ZM76.1,19l-1.6,1.9c-1.7-1.3-2.7-3.3-3.7-7.1l-1.3.5a12.4,12.4,0,0,1,.5,5.9c-0.5,2.5-2.7,3.5-5.8.5l0.4-.8c2.6,1,3.3,1,3.5-.7a14.8,14.8,0,0,0,.1-2.4A20.5,20.5,0,0,1,60,20.2l-0.3-.8a21.2,21.2,0,0,0,8.2-4.7l-0.2-.9a19.9,19.9,0,0,1-7.6,3.4l-0.3-.9a19.2,19.2,0,0,0,7.3-4.2l-0.3-.6a20.7,20.7,0,0,1-6.6,2.8l-0.3-.7a15.4,15.4,0,0,0,5.9-3.5H61.5v-3l-1.1.7-0.5-.6a15.8,15.8,0,0,0,4.6-7L66.8,1,65.9,2.5h2.9l0.5-.4,2.1,1.1a15.3,15.3,0,0,1-2.1,2.2h5.3V10H68.8l-1.1,1a7.5,7.5,0,0,1,1.7,2.5,14.6,14.6,0,0,0,3.3-2.8l1.5,1.4-2.5,1.4C73.2,16.9,74.6,18,76.1,19ZM63.4,5.4h4.4a9.2,9.2,0,0,0,.9-1.9H65.1Zm0.1,3.5H67V6.4H63.6V9H63.5Zm9-2.5H69V9h3.5V6.5h0Z"/><path class="a" d="M94.3,11.3A15.3,15.3,0,0,1,91.6,17a37.5,37.5,0,0,1,6.5,3.3l-1.6,2.2a42.5,42.5,0,0,0-6.1-4.1c-2.4,2.3-5.9,3.8-11,4.3l-0.2-.8c4-.6,7.1-1.9,9.4-4.3L84.9,16l-1,1.7L82,16.6a56.5,56.5,0,0,0,3-5.2H79V10.3h6.4a47.8,47.8,0,0,0,1.9-4.5l2.2,0.8a38,38,0,0,1-1.7,3.8H98.9v1.1H94.2V11.3Zm-13-2.4H79.1V4.1H89.3A37.2,37.2,0,0,0,85.8.8L86.2,0a19.6,19.6,0,0,1,5.1,2.5L90,4h8.6V8.8H96.4V5H81.3V8.8h0Zm10.6,2.4H87.3l-2,3.8,4.2,1.2A17.4,17.4,0,0,0,91.9,11.3Z"/><path class="a" d="M105.6,8.9h0.9a20.7,20.7,0,0,1-1.9,9.2L102,16.7A16.4,16.4,0,0,0,105.6,8.9Zm2.8,9.4V5.5h2.3V17.8c0,1.2.2,1.5,1.6,1.6h3c1.7-.1,2-0.5,2-5h0.9c1.7,5.4,1.1,6.8-2.2,7.1a23.7,23.7,0,0,1-4.1,0C109.1,21.3,108.4,21.2,108.4,18.3Zm1.1-17.1,0.5-.8a23.1,23.1,0,0,1,7.2,4.1l-1.9,2.1a34.2,34.2,0,0,0-5.8-5.5h0Zm8.4,7.4,0.8-.5a28.3,28.3,0,0,1,4.8,7.7l-2.6,1.1A47.8,47.8,0,0,0,117.9,8.6Z"/><path class="a" d="M147,20.2v1.3H125.8V20.2h7V14.7H130v1.4h-2.2V7.3h5V3.1h-6.3V2H146V3.2h-6.2V7.3h5.1V16h-2.2V14.7h-3v5.5H147Zm-12.1-6.5v6.5h2.7V13.7h5.1V8.4h-5V3.2h-2.8V8.4H130v5.3h4.9Z"/><path class="a" d="M170,9.6v1.5H150.2V9.6H170Z"/><path class="a" d="M178.4,9.6V22.4h-1.9V11.8a19.3,19.3,0,0,1-2.6,5.1l-0.6-.5a34.8,34.8,0,0,0,2.9-9.9h-2.6V5.4h2.9V0.5h1.9V5.4h2.7V6.5h-2.7V8.1a18.3,18.3,0,0,1,3,3.3l-1.7,1.2A27,27,0,0,0,178.4,9.6Zm6.9,5.2c-1.3,3.3-3,5.4-6,6.6l-0.4-.8a8,8,0,0,0,4-5.2h-3.2v-1h3.2l0.4-.4Zm0.6-10.4H181v-1h3.5A17.2,17.2,0,0,0,182.9.7l0.6-.6a12.2,12.2,0,0,1,3,2.7l-0.9.6h2.3A18.8,18.8,0,0,0,189.1.1l2,0.9A14.3,14.3,0,0,1,189,3.4h4.3v1H188V5.8h4.7v1H188V8.3h6.1v1H180.3v-1h5.5V6.8h-4.1v-1h4.1V4.4h0.1Zm8.6,14.8-1.4,2.1a11.5,11.5,0,0,1-5-5.7v4.6c0,2.3-1.9,3.3-5.2,1l0.3-.8c2.3,0.7,2.8.5,2.8-.5V13.3h-4.3V12.2H188v1.1a8.3,8.3,0,0,0,1.2,2.4,11.2,11.2,0,0,0,2.4-3.2l1.9,1.4a15.7,15.7,0,0,1-3.8,2.5A11.5,11.5,0,0,0,194.5,19.2Zm-10.3-8.7,0.2-.8a23.3,23.3,0,0,1,5.5,1l-0.7,1.6A36.7,36.7,0,0,0,184.2,10.5Z"/><path class="a" d="M199.7,11.6h4.2a51.8,51.8,0,0,1-1,9c-0.6,2.7-3.6,2.3-5.9-.2l0.4-.8c2.7,1.3,3.3,1,3.6,0a50,50,0,0,0,.7-6.9h-2.2l-0.3,1.5-2-.3a67.8,67.8,0,0,0,1.1-7.7l1.8,0.4h1.4V2.4h-3.8V1.3h5.8V7.6h-3.4A18.1,18.1,0,0,1,199.7,11.6Zm18.2,5.2v1.1h-6v4.5h-2V17.9h-5.7V16.8h5.7V15.1h-4.4V7.5h10.9v7.6h-4.5v1.7h6ZM210.3,6.4h-5.4v-5h5.4v5Zm-1.8-3.9h-1.8V5.3h2V2.5h-0.2Zm1.3,6.1h-2.4v2.1h2.4V8.6Zm0,3.2h-2.4V14h2.4V11.7h0ZM217,6.4h-5.3v-5h5.5v5H217Zm-5.1,4.3h2.5V8.6h-2.5v2.1Zm0,3.3h2.5V11.7h-2.5V14Zm3.4-11.6h-2V5.2h2V2.4Z"/><path class="a" d="M220.6,6.8l0.5-.7a21.6,21.6,0,0,1,4.3,3l-1.7,1.7A42.4,42.4,0,0,0,220.6,6.8Zm0.5,13.4a89.2,89.2,0,0,0,3.3-8.5l0.8,0.3a90.4,90.4,0,0,1-1.8,9.2ZM221.7,1l0.6-.6a16.8,16.8,0,0,1,3.8,3.2L224.3,5A42.8,42.8,0,0,0,221.7,1ZM233,1.7V8.9h-4.4V22.5h-2V1.7H233Zm-1.9,1.1h-2.4v2h2.4v-2Zm0,3h-2.4v2h2.4v-2Zm6.3,9.2V14h-2.7V11.7h3.2V10.6h-8.5v1.1h3.3V14h-2.8v1h2.8v2.5h-3.6v1.1h9V17.5h-3.4V15h2.7Zm1.5,4.6V8.9h-4.5V1.7h6.5V20.3c0,2-1.5,3.1-5.7.5l0.2-.8c3.1,0.9,3.4.6,3.4-.4h0.1Zm0-16.8h-2.5v2h2.5v-2Zm0,3h-2.5v2h2.5v-2Z"/><path class="a" d="M266,19.9l-1.2,2.6c-2.3-.4-7.2-1.9-9.2-6.8-1.4,3.8-4.8,6-10.8,6.9l-0.3-.8c5.1-1.3,7.6-3.3,8.6-6.1h-7.8V14.6h8.2a12.9,12.9,0,0,0,.4-2.4l2.4,0.2a11,11,0,0,1-.4,2.2h9.2v1.1h-8.5C259,19.2,263.4,19.7,266,19.9Zm-0.7-8.1H245.1V10.7H254V8.4h-6.6V7.3H254V5h-8.1V4h5.9a34.1,34.1,0,0,0-3-3.1l0.5-.7A23.4,23.4,0,0,1,254,2.8L252.9,4h3.5a15.4,15.4,0,0,0,1.9-4l2.4,1.1a16.3,16.3,0,0,1-2.9,2.8h6.6V5h-8.3V7.3h6.8V8.4h-6.8v2.3h9.1v1.1h0.1Z"/><path class="a" d="M272,14.9c-0.2,3.2-1,6-2.8,7.7l-0.7-.5c1.3-2.1,1.5-4,1.5-9.4V8.9h8.7c-0.3-.9-0.7-1.6-1-2.4V8.1h-1.8V4.3h-4V8.2H270V3.3h7.7V6.4l0.6-.5A9.3,9.3,0,0,1,280,7.8V3.2h7.7V8h-1.9V4.2h-4.1V8h-1.6l0.2,0.4-1,.5h9.4V10h-6.1v1.3h5.1v3.6H272Zm6.5-12.7h-9V1.1h9V2.2Zm1.2,17.3v0.8a36.5,36.5,0,0,1-7.7,1.8l-0.6-2h1.8V15.4h1.9v1.7h4.3v1h-4.3V20Zm-4.2-7.2h-3.4v1.6h3.4V12.3ZM272.1,10v1.3h3.4V10h-3.4Zm3.3-2.4-1.7.7a19,19,0,0,0-1-3.1l0.6-.4a10.4,10.4,0,0,1,2,2.7h0.1Zm2.1,3.7h3.2V10h-3.2v1.3Zm0,2.6h3.2V12.3h-3.2v1.6ZM288.6,2.2h-9.1V1.1h9.1V2.2Zm-0.8,19.5a29.6,29.6,0,0,1-5.1,0c-1.9-.2-2.4-0.8-2.4-2.2V15.4h1.9v2.4a16.7,16.7,0,0,0,3.8-2.3l1.4,1.6a26,26,0,0,1-5.3,1.7v0.4c0,0.6.1,0.9,1.6,1h3.5c0.9-.1,1-0.4.8-2.8h0.8c1.2,3.3.6,4-1,4.2h0ZM282.9,4.8A9.1,9.1,0,0,1,285,7.5l-1.6.7a18.1,18.1,0,0,0-1.1-3.1Zm-0.3,9.1h3.1V12.3h-3.2v1.6h0.1Z"/><path class="a" d="M305.8,11.1l-1.1,1.2a3.8,3.8,0,0,0-1.2,2.8v1.6h-1.6c0-.5-0.1-1.3-0.1-1.9a4.5,4.5,0,0,1,1.4-3.5l1.2-1.4a3.9,3.9,0,0,0,1-2.9c0-1.6-.8-3.1-2.7-3.1s-3.1,1.3-4,2.6l-0.5-2.1A7.3,7.3,0,0,1,303,2.1c3.3,0,5.1,2,5,4.6A6.8,6.8,0,0,1,305.8,11.1Zm-3.1,10.4a1.7,1.7,0,0,1-1.7-1.6,1.7,1.7,0,0,1,1.7-1.6,1.7,1.7,0,1,1-.1,3.3h0.1Z"/><path class="a" d="M113.8,58.6a11.4,11.4,0,0,1,2.9-7.5h0.9a13.1,13.1,0,0,0-2.1,7.5,12.9,12.9,0,0,0,2.2,7.6h-0.9A11.1,11.1,0,0,1,113.8,58.6Z"/><path class="a" d="M122.5,54.5h1.6v0.7h-1.6v2.9l1.4-.6,0.3,0.5-1.6,1.2v5.3c0,1.4-1.5,1.9-3.6.5l0.2-.5c1.6,0.4,2,.3,2-0.5V60l-1.7.9-0.7-1.5,2.3-.7V55.2h-2.1V54.5H121V51.2h1.4v3.4h0.1Zm9.8,0.3V65.9h-1.4V64.4h-5v1.5h-1.4V54.8h3.2V51.2h1.5v3.7h3.1Zm-4.7.7h-1.8v3.4h1.8V55.5Zm0,4.1h-1.8v3.9h1.8V59.6h0Zm3.2-4.1h-1.8v3.4h1.8V55.5Zm0,4.1h-1.8v3.9h1.8V59.6h0Z"/><path class="a" d="M149.3,64.3L148.5,66c-1-.2-4.6-1-6.2-4.1-1,2.6-3.5,3.8-7.2,4.4l-0.2-.6c3.2-.7,5.1-2,5.8-3.9h-5.6V61H141a7.7,7.7,0,0,0,.2-1.7l1.6,0.2a8.5,8.5,0,0,1-.2,1.5h2l-1.3-1.3,0.2-.4a8.2,8.2,0,0,1,2.1,1l-0.5.7h4v0.7H143C144.8,63.9,148.5,64.2,149.3,64.3Zm-12.5-7.7h-1.4V55.9h3.7V54.5h-1.5v0.8h-1.3V51.4h1.3v2.4h1.5V51.1h1.4v9h-1.4V56.6h-1a4.2,4.2,0,0,1-2.5,3.9l-0.3-.5c1.1-.7,1.5-1.8,1.5-3.4h0Zm9.7-3.9h-2.6l-0.3.3,1.3,0.7-0.7.8-1-1.1-0.9.6,1,0.9-0.8.6-0.7-1.2-0.9.4-0.2-.5a7.6,7.6,0,0,0,3-3.1l1.4,0.5-0.5.6h2.2l0.3-.2,1.4,0.8a11.4,11.4,0,0,1-5.6,3.5h3.3V55h1.3v1.2h1.7v0.7h-1.7v1.9c0,1.1-1.2,1.7-3.1.4l0.2-.5c1.5,0.3,1.6.2,1.6-.4V56.9h-4.5V56.6l-0.9.2-0.2-.6a10.8,10.8,0,0,0,5.9-3.4h0ZM144.6,58l-0.8,1-1.5-1.6,0.3-.5a7.9,7.9,0,0,1,2,1.1h0Z"/><path class="a" d="M157.1,54.7h-6V54h2.7c-0.6-.9-1.3-2.1-1.7-2.6l0.4-.4a12.7,12.7,0,0,1,2.6,2.2l-0.9.8h2.9v0.7h-0.1Zm-0.6,2.2h-4.8V56.2h4.8v0.7Zm-4.8,1.4h4.8V59h-4.8V58.3Zm4.9,6.4H153v1.2h-1.3V60.5h4.9v4.2Zm-1.3-3.5h-2.2V64h2.2V61.2Zm9.1,4.4h-2c-1.2-.2-1.5-0.6-1.5-1.6V59.3H160c-0.1,4.3-2.1,6.1-4.1,6.9l-0.3-.5c1.7-1,2.9-2.5,3-6.4h-1.5V54.8h3.9a24.1,24.1,0,0,0,1-3.9l1.6,0.5a19.5,19.5,0,0,1-1.9,3.3h2v4.5h-1.7v4.2a0.6,0.6,0,0,0,.5.6h1.2c0.5-.2.6-0.3,0.5-2.7h0.6c0.7,2.6,1,3.9-.6,4h0.1Zm-5.6-10.8a20.4,20.4,0,0,0-1.2-3.4l0.5-.3a12.3,12.3,0,0,1,2,3.1Zm-0.3,3.9h4v-3h-4v3Z"/><path class="a" d="M171.8,61.3h-2.6v1.9h-1.4V52h5.5V62.7h-1.4V61.3h-0.1Zm-2.6-5.1h2.6V52.7h-2.6v3.5Zm2.6,4.4V57h-2.6v3.6h2.6Zm8.9-9V64.4c0,1.7-1.7,2.3-4.6.5l0.2-.6c2.8,0.7,3,.3,3-0.6V60.1h-3.5a7.7,7.7,0,0,1-3.8,6.1l-0.4-.5c2.5-2.3,2.9-3.9,2.9-8.6V51.7h6.3Zm-1.5,7.7V56.1h-3.4v1.4c0,0.7,0,1.3-.1,1.9h3.4Zm-3.4-7v3h3.4v-3h-3.4Z"/><path class="a" d="M185.6,66.2a12.9,12.9,0,0,0,2.2-7.6,13.1,13.1,0,0,0-2.1-7.5h0.9a11.4,11.4,0,0,1,2.9,7.5,11.1,11.1,0,0,1-2.9,7.6h-0.9Z"/><rect class="a" x="119" y="68.6" width="63.4" height="0.69"/><path d="M7.4,36.5a21.3,21.3,0,0,1-4.4,2.2L2.3,37.3,3.6,37V32.5l1.3,0.3a8.8,8.8,0,0,0,2.7-1.6l1.2,1.1A12.2,12.2,0,0,1,5,33.4v3.2l2.2-.7L6.6,34.3,7.1,34a11.3,11.3,0,0,1,2,3.2l-1.4.6A11.4,11.4,0,0,0,7.4,36.5ZM4.1,38.9H14.3v6.9H13V45H5.4v0.8H4.1V39h0Zm1.4,2.6H8.5V39.6H5.4v1.9Zm0,0.7v2.1H8.5V42.2H5.4Zm9.6-10a27.2,27.2,0,0,1-.4,5c-0.2,1.1-1.5,1.7-3.4-.1l0.2-.5c1.6,0.6,1.8.5,1.9-.3a18.8,18.8,0,0,0,.2-3.3H12.2c-0.3,2.9-1.4,4.8-3.9,5.8L8,38.3c2-1.2,2.6-2.6,2.7-5.3H9.2V32.3H15ZM9.9,41.5H13V39.6H9.9v1.9Zm0,2.8H13V42.2H9.9v2.1Z"/><path d="M25.3,33.3v2.9a24.3,24.3,0,0,1,5.3,3.4L29.3,41a34.3,34.3,0,0,0-4.1-4.1v8.9H23.8V33.3H18.4V32.4H31.9v0.8H25.3Z"/><path d="M38.9,43.3l1.4,0.9A20.8,20.8,0,0,1,34,46.2l-0.2-.6A15.3,15.3,0,0,0,38.9,43.3Zm-4.1-5.4L34,36.8a21.4,21.4,0,0,0,3.4-2.6l0.4,0.3A17.9,17.9,0,0,1,34.8,37.9ZM37,33.9l-2.6-1.8,0.2-.6a11.5,11.5,0,0,1,3.2,1.1Zm-1.1,3.5h9.8v5.7H35.9V37.5h0Zm1.4,1.7h7v-1h-7v1Zm0,1.6h7v-1h-7v1Zm0,1.7h7V41.4h-7v1.1Zm1-7.3-0.4-.4a8.5,8.5,0,0,0,1.9-3.7L41,31.4l-0.4,1h4.7l0.3-.2L47,32.9a7.5,7.5,0,0,1-2.3,2.1l-0.4-.3a7.1,7.1,0,0,0,1-1.7H43.2a7.8,7.8,0,0,1-.3,1.1A5.8,5.8,0,0,0,47.6,36l-0.7,1.5a5.9,5.9,0,0,1-4.3-2.8,6.3,6.3,0,0,1-4.9,2.5l-0.2-.6c2.5-.6,3.7-1.8,4.2-3.7H40.3a7.8,7.8,0,0,1-2,2.3h0Zm3.2,8.2a25.2,25.2,0,0,1,5.9,1.3L46.6,46a43.3,43.3,0,0,0-5.3-2.1Z"/><path d="M53.8,38.9v6.9H52.4V40a12.9,12.9,0,0,1-2.6,3.7l-0.4-.4a15.9,15.9,0,0,0,2.8-6.1H49.9V36.6h2.5V31.3h1.4v5.3h2.2v0.7H53.9V38a11.8,11.8,0,0,1,2.5,2.1l-1.1,1Zm-3-2.8a24.4,24.4,0,0,0-.8-3.3l0.5-.2a11.6,11.6,0,0,1,1.6,3Zm3.7,0-0.5-.2a15.4,15.4,0,0,0,1-3.3l1.4,0.6A13.9,13.9,0,0,1,54.6,36.1Zm7.3,4.7v5.1H60.3V41.1l-5.1,1.1-0.2-.7,5.2-1.1V31.4h1.5v8.8l1.5-.4,0.2,0.7ZM56.4,37l0.4-.3a11.1,11.1,0,0,1,2.7,2.4l-1.1,1A26.1,26.1,0,0,0,56.4,37Zm2.2-.8A21.5,21.5,0,0,0,56.7,33l0.4-.3a11.6,11.6,0,0,1,2.6,2.6Z"/><path d="M66.4,42.7h1.7a43.5,43.5,0,0,1-1.7,4.3H65.5A42.7,42.7,0,0,0,66.4,42.7Z"/><path d="M73.7,40.6A11.3,11.3,0,0,1,71,44.9l-0.4-.4a14,14,0,0,0,1.8-4.3Zm4.9-6.2H70.8V33.7h4l-1.9-2,0.3-.5A12.6,12.6,0,0,1,76,32.8l-0.8.8h3.4v0.7h0.1Zm-3,5v5c0,1.5-.8,2.3-3.5.7l0.2-.5c1.9,0.3,2,.2,2-0.6V39.3H72V35.6h5.7v3.7H75.6Zm-2.3-.7h3V36.3h-3v2.3ZM76.9,44a28.6,28.6,0,0,0-1-3.6l0.5-.2a16.1,16.1,0,0,1,1.9,3.3Zm4.1-7.3c-0.2,5.1-1.1,7.4-4,9.4l-0.4-.5c2.3-2.1,2.8-4.4,3-9H78V35.9h1.6c0.1-1.4.1-2.9,0.1-4.6H81c0,1.7,0,3.3-.1,4.6h3.7v0.7H80.9Zm2.2,9c-1.8,0-2.2-.3-2.2-1.5V37.8h1.3v5.7c0,0.8,0,1,.8,1s0.8-.2.7-3.1h0.6c1,3.7.6,4.4-1.3,4.4h0.1ZM83,35.4a26.6,26.6,0,0,0-1.3-3l0.5-.3a10,10,0,0,1,2,2.6Z"/><path d="M92.4,34.5a15.6,15.6,0,0,1-1.1,2h7.3v7.9c0,1.7-1.7,2-4.3.6l0.2-.6c2.3,0.5,2.7.3,2.7-.5V42.2H91.4v3.7H90V38.3A12.6,12.6,0,0,1,86.7,41l-0.3-.5a15.2,15.2,0,0,0,4.4-6.1H86.9V33.7h4.3a20,20,0,0,0,.7-2.5l1.6,0.3a19.5,19.5,0,0,1-.7,2.3h7.5v0.8H92.4Zm-1,4.5h5.7V37.3H91.4V39h0Zm0,2.5h5.7V39.7H91.4v1.8h0Z"/><path d="M105.5,37.4v8.4h-1.3V39.1a12.8,12.8,0,0,1-1.6,3.5l-0.5-.3a26.8,26.8,0,0,0,1.8-6.8h-1.5V34.8h1.6V31.4h1.3v3.4h1.1v0.7h-1.1v1a9.8,9.8,0,0,1,1.6,2l-1,.6Zm6.9,2.7A13,13,0,0,0,113,42l1.2-1.6,1.2,0.7a8.6,8.6,0,0,1-1.7,2.1,2.6,2.6,0,0,0,1,1c0.6,0.3.8,0.3,1.1-1.7h0.5c0.5,2.7-.3,3.5-1.6,3.2a3.9,3.9,0,0,1-2.1-1.7,12.3,12.3,0,0,1-4.3,1.8l-0.2-.5a11.1,11.1,0,0,0,4-2.3,13.7,13.7,0,0,1-.9-2.9h-1.7v0.6a11.8,11.8,0,0,1,2.2,1.6l-1,1-1.4-1.9a6.5,6.5,0,0,1-3,4.5l-0.3-.5c1.1-.9,2-2.5,2.2-5.3h-1.6V39.4h1.7V38.2h1.2v1.2H111a55.7,55.7,0,0,1-.5-8.1h1.3a43,43,0,0,0,.5,8h1.6L113,37.8l-0.6.2-0.3-1.1h0.6a13.2,13.2,0,0,0,1-1.9l-1.5.6L112,34.3h0.6a18.5,18.5,0,0,0,.7-2.8l1.2,0.3a22.4,22.4,0,0,1-1.3,2.5h1l0.4-1.1,1.2,0.5a14.6,14.6,0,0,1-2.3,3.2l1.4-.2-0.2-.7,0.4-.2a7,7,0,0,1,1.2,2.1l-1,.3c-0.1-.4-0.2-0.7-0.2-1.1l-1.4.6a8.1,8.1,0,0,1,1.2,1.4l-0.6.4h2v0.6h-3.8Zm-5-3.1,1-1.8-1.4.5-0.3-1.1h0.6a20.1,20.1,0,0,0,.7-3.1l1.2,0.3a21.4,21.4,0,0,1-1.4,2.8h0.8l0.5-1.2,1.1,0.5a17.9,17.9,0,0,1-2.1,3.2l1.2-.2-0.2-.7,0.4-.2a6.6,6.6,0,0,1,1.1,2.1l-1,.3-0.2-1a8.9,8.9,0,0,1-2.4.8L106.8,37h0.6Z"/><path d="M131.4,36.6l-1.1-.5v3.5H119.8V36.3l-1.7.6-0.2-.6a18.7,18.7,0,0,0,6.9-5.3l1.5,0.7-0.4.4a16.4,16.4,0,0,0,6.4,3ZM130,36a16.3,16.3,0,0,1-2.5-1.6v0.7h-4.7V34.7L120.2,36H130Zm-9.3,4.7h8.7v5.2H128V45.2h-5.9v0.7h-1.4V40.7h-0.1Zm0.8-3.7,0.2-.2h-0.7V39h1.6l-1.1-2h-0.1Zm0.5,4.4v1.1h6V41.4h-6Zm6,3.1V43.3h-5.9v1.2H128Zm-3.6-7.8h-2.3a10.7,10.7,0,0,1,1.7,1.7l-0.8.6h1.3V36.8h0Zm-1.3-2.3h4.3a15.4,15.4,0,0,1-2-1.8Zm2.6,2.3V39h0.7l-0.2-.2a15,15,0,0,0,1.1-2.1h-1.6Zm3.2,0h-1.3l1,0.6L126.8,39H129V36.8h-0.1Z"/><path d="M137.1,37.7V46h-1.4V39.3L134,40.7l-0.4-.5a17,17,0,0,0,3.7-6l1.4,0.7A14,14,0,0,1,137.1,37.7Zm-2.9-1.5-0.3-.5a13.8,13.8,0,0,0,2.9-4.6l1.4,0.7A14.1,14.1,0,0,1,134.1,36.2Zm13.6,3.9v0.7h-2.4v3.8c0,1.5-1.7,1.9-4.1.3l0.2-.6c2.1,0.5,2.4.4,2.4-.3V40.9h-6.2V40.1h6.2V38.8H138V38.1h9.4v0.7h-2v1.4h2.4ZM145.9,37h-6.6V32h6.6v5h0ZM142,43.5l-1.3.8a22.7,22.7,0,0,0-1.4-2.8l0.5-.3a11.2,11.2,0,0,1,2.2,2.3h0Zm2.6-10.7h-3.9v1.5h3.9V32.8Zm0,2.1h-3.9v1.4h3.9V34.9Z"/><path d="M158,42.7v0.6a39.6,39.6,0,0,1-8,1.9l-0.5-1.6,3.4-.2V40.7h-2.9V40h2.9v-2h1.5v2h3v0.7h-3v2.5Zm0.3-5.1-1.4.8L156.4,37a55.2,55.2,0,0,1-6,1.2l-0.5-1.6h1.7a21.6,21.6,0,0,0,1.2-3.5h-3V32.4h8.3v0.7h-3.5a25.7,25.7,0,0,1-2.3,3.4l3.7-.2-1-1.7,0.5-.4A13.1,13.1,0,0,1,158.4,37.6Zm4.3-6.2V44.2c0,2-1.6,2.5-4.3.7l0.2-.6c2.1,0.5,2.6.5,2.6-.5V31.4h1.5ZM160,42.5h-1.4V33H160v9.5h0Z"/><path d="M173,33.1v2.1h5.3v9.2c0,1.4-1.5,2.1-3.8.4l0.2-.6c2,0.6,2.3.3,2.3-.3V42.3l-0.8.6a11.3,11.3,0,0,1-.8-3.3,7.7,7.7,0,0,1-2,3.4l-0.2-.2v2.7h-1.5V42.2l-0.7.6a10.6,10.6,0,0,1-.8-3.2,7.3,7.3,0,0,1-2,3.4l-0.2-.2V46h-1.4V35.2h5.1V33.1h-6.1V32.3h13.7v0.8H173Zm-1.5,8.3V36h-3.7v6.5a8.6,8.6,0,0,0,1.5-4.6h-1.2V37.3h2.2A6.7,6.7,0,0,0,171.6,41.4ZM173,36v6.4a9.5,9.5,0,0,0,1.5-4.4h-1.2V37.3h2.2a6.8,6.8,0,0,0,1.4,4.3V36H173Z"/><path d="M185.2,31.7a24.8,24.8,0,0,1-1.1,3.5V45.9h-1.4V37.7a14,14,0,0,1-1.7,2l-0.4-.4a19,19,0,0,0,2.9-8Zm9.3,0.7V46h-1.4V44.9h-6.2V46h-1.4V32.4h9Zm-1.4.7h-6.2v11h6.2V33.1h0Zm-3.8,3.4h-2V35.8h2V33.7h1.4v2.1h2v0.7h-2v2.1h1.6v4.1h-4.6V38.7h1.6V36.5h-0.1Zm-0.4,2.8v2.7h2.1V39.3h-2.1Z"/><path d="M208.4,32.2V43.9c0,2.2-1.7,2.6-4.3.6l0.2-.5c2.4,0.7,2.6.3,2.6-.6V40H201c-0.2,3.2-1,4.6-3.2,6.1l-0.3-.5c2.3-2.4,2.1-5.6,2.1-8.9V32.2h8.7Zm-1.5,7V36.4h-5.8v0.4c0,0.9,0,1.7-.1,2.4h5.9Zm-5.8-6.3v2.8h5.8V32.9h-5.8Z"/><path d="M215.9,35.3V45.9h-1.4V37.7a11.1,11.1,0,0,1-1.7,2l-0.4-.4a16.8,16.8,0,0,0,3-8l1.6,0.3A19.5,19.5,0,0,1,215.9,35.3Zm0.8,3.4-0.4-.4a12.6,12.6,0,0,0,2.4-5.7l1.5,0.5a11.4,11.4,0,0,1-3.5,5.6h0Zm1-.8h7a53.1,53.1,0,0,1-.5,6.3c-0.3,1.4-1.6,2.4-4.2.3l0.2-.5c2.1,0.7,2.4.6,2.5-.3a38.7,38.7,0,0,0,.3-5.1H221c-0.3,4.2-1.7,5.9-4.3,7.4l-0.3-.5c2.1-1.6,3-3.3,3.2-6.9h-1.9V37.8h0Zm9.1-.9-1.2,1.5a8.5,8.5,0,0,1-3.2-5.7h-2.1V32h2.8c0.4,2.8,2,4,3.7,5h0Z"/><path d="M228.1,38.7a11.1,11.1,0,0,1,2.8-7.4h0.8a12.8,12.8,0,0,0-2.1,7.4,13.1,13.1,0,0,0,2.1,7.5h-0.8A10.9,10.9,0,0,1,228.1,38.7Z"/><path d="M235.7,35.2V45.9h-1.4V37.6a10.7,10.7,0,0,1-1.8,2.1l-0.4-.4a19.4,19.4,0,0,0,3.3-8.2l1.5,0.4A19.5,19.5,0,0,1,235.7,35.2Zm4.1,8.2,1.4,0.8a14.7,14.7,0,0,1-4.9,2l-0.2-.6a10.4,10.4,0,0,0,3.7-2.3h0.1ZM243.3,33v1h2.6V37H237V34.1h2.6V33h-2.7V32.3h9.2V33h-2.9Zm-5.6,10.1V37.8h7.4v5.4h-7.4Zm0.7-6.9h1.2V34.7h-1.2v1.6Zm0.7,3h4.7V38.4H239v0.9Zm0,1.6h4.7v-1H239v1Zm0,1.6h4.7v-1H239v1Zm3-9.5h-1.1v1H242V33Zm-1.1,3.3H242V34.8h-1.1v1.6Zm5.6,8.6-0.8,1.3a31.2,31.2,0,0,0-3.7-2.2l0.2-.6a16.9,16.9,0,0,1,4.2,1.4h0.1Zm-3.2-10.2v1.6h1.3V34.8h-1.3Z"/><path d="M250.9,35.5V45.9h-1.4v-8a13.1,13.1,0,0,1-1.6,1.9l-0.4-.4a18.8,18.8,0,0,0,3-8.2l1.6,0.3A20.1,20.1,0,0,1,250.9,35.5Zm10.7,9.2v0.7H251.5V44.7h1.4v-9h2.4c0.1-.6.2-1.1,0.2-1.7H252V33.2h3.7c0.1-.7.2-1.4,0.2-1.9l1.5,0.2c-0.1.6-.2,1.2-0.2,1.7H261v0.7H257c-0.1.6-.2,1.2-0.2,1.7h3.3v9h1.5Zm-2.8-8.3h-4.7v1.5h4.7V36.4Zm0,2.1h-4.7v1.6h4.7V38.6Zm0,2.2h-4.7v1.6h4.7V40.8Zm0,2.3h-4.7v1.7h4.7V43Z"/><path d="M267.7,44.1V46h-1.2V44.2a7.7,7.7,0,0,1-3-.7l0.2-1.3a4.8,4.8,0,0,0,3.1,1.1c1.4-.1,2.3-0.8,2.3-2a2.1,2.1,0,0,0-1.6-1.9l-1.6-.6a2.6,2.6,0,0,1-2-2.5,2.9,2.9,0,0,1,2.6-2.9V31.7h1.2v1.6a5.4,5.4,0,0,1,2.1.5l-0.2,1.3a3.6,3.6,0,0,0-2.4-.8,2,2,0,0,0-2,1.8c0,1.1.7,1.2,1.6,1.6l1.3,0.6c0.7,0.3,2.4,1,2.4,2.9S269.2,43.8,267.7,44.1Z"/><path d="M311.2,46.2a12.2,12.2,0,0,0,2.1-7.5,12.8,12.8,0,0,0-2.1-7.4h0.8a11.1,11.1,0,0,1,2.8,7.4,10.9,10.9,0,0,1-2.9,7.5h-0.8Z"/><path d="M16.4,65.3L15.6,67a7.9,7.9,0,0,1-6.1-4.5C8.5,65,6.2,66.5,2.3,67l-0.2-.6c3.4-.8,5-2.2,5.7-4.1H2.7V61.7H8.1a8.6,8.6,0,0,0,.2-1.6H9.9a7.3,7.3,0,0,1-.2,1.5h6.1v0.7H10.1C11.8,64.8,14.6,65.2,16.4,65.3Zm-0.5-5.4H2.5V59.2H8.5V57.6H4.1V56.9H8.5V55.4H3.1V54.8H6.9L5,52.7l0.3-.5a15.5,15.5,0,0,1,3.1,1.7l-0.7.8H10a10.2,10.2,0,0,0,1.3-2.6l1.6,0.7A10.8,10.8,0,0,1,11,54.8h4.4v0.7H9.9V57h4.5v0.7H9.9v1.5h6.1v0.6h0Z"/><path d="M31.9,64.3l-0.7,1.9a36.1,36.1,0,0,1-4.7.2c-3.3-.1-4.7-1.5-5.3-3.2s-0.7.7-1.6,3.5L18,65.8c1.9-3,2.4-5.8,3.7-3.4l0.2,0.4a20.1,20.1,0,0,0,6.1-6.2H18.8V55.7h9.2l0.6-.5,1.7,1a20.5,20.5,0,0,1-8.2,7.1c0.6,0.8,1.7,1.5,4.5,1.5A33.3,33.3,0,0,0,31.9,64.3ZM21.7,52.6l0.3-.5a17,17,0,0,1,3.9,2l-1.1,1.4A40.6,40.6,0,0,0,21.7,52.6Z"/><path d="M37.4,59.3a32.2,32.2,0,0,1-2.7,6.1l-1.4-1A48.8,48.8,0,0,0,36.9,59Zm-1.5-2.7a30.2,30.2,0,0,0-2-3.2l0.4-.5a12,12,0,0,1,2.8,2.6ZM48,65l-1,1.5A12.3,12.3,0,0,1,43,62v5H41.6V62.4a12.3,12.3,0,0,1-5.2,4.1L36.1,66a12,12,0,0,0,4.6-4.6H38.1V56.5h3.5V55.1H37.4V54.4h4.2v-2H43v2h4.5v0.7H43v1.4h3.6v4.9H43.3A12.3,12.3,0,0,0,48,65Zm-8.6-6.5h2.1V57.1H39.5v1.4Zm0,2.1h2.1V59.2H39.5v1.5ZM43,58.5h2.3V57.1H43v1.4Zm0,2.1h2.3V59.2H43v1.5Z"/><path d="M54.3,61.7v3.8c0,1.4-1.6,1.9-3.5.3l0.2-.5c1.4,0.5,2,.5,2-0.3V61H51.6a12.8,12.8,0,0,1-1.8,6.2l-0.5-.3c0.8-2.2,1-4.3,1-8.2V53h4v8a9.5,9.5,0,0,0,3.5-2.9H57.6V56.5a11.8,11.8,0,0,1-2.4,1.9l-0.6-1.1a13.6,13.6,0,0,0,3-1.4V53.7H54.7V53h4.1v4.8l0.6,0.3-0.2.3a8.6,8.6,0,0,0,4.5,1.9l-0.6,1.4a8.3,8.3,0,0,1-4.2-2.9A11.3,11.3,0,0,1,54.3,61.7Zm-1.4-4.5H51.6V59a7.5,7.5,0,0,1-.1,1.1h1.4v-3Zm0-3.5H51.6v2.8h1.3V53.6Zm9,9.1L63,63.5c-1.7,2.1-5.5,3.1-8.6,3.4l-0.2-.6c3.1-.3,6.1-1.7,7.6-3.6h0Zm-2.1-2A10.1,10.1,0,0,1,55.1,63l-0.2-.6a9.4,9.4,0,0,0,3.9-2.5Zm-4.8,4.2-0.2-.5a10.7,10.7,0,0,0,5.5-3.1l1.1,0.8A12.5,12.5,0,0,1,55.1,65h0Zm2-9.5-1,.7a11.3,11.3,0,0,0-1.1-1.8l0.4-.3A5.4,5.4,0,0,1,57,55.4h0Zm2.5,2.3L59,56.5a12.2,12.2,0,0,0,2.6-.9v-2H59.1V52.9h3.8v5.9H61.6V56.5a10,10,0,0,1-2,1.3V57.6H59.6Zm1.6-2.6-0.8.8-1.2-1.7,0.3-.4a5.9,5.9,0,0,1,1.8,1.5V55.1H61.2Z"/><path d="M74.3,61.2v4.2c0,1.4-1,2.4-3.8.7l0.2-.6c2,0.5,2.2.3,2.2-.5V61.2H69.4V56h2.9a19.6,19.6,0,0,0,.6-2H68.2v3.9c0,5.6-1.1,7.7-2.6,9.2l-0.5-.3c1-1.7,1.5-3.2,1.5-8.9V53.2H79v0.7H74.5L73,56h4.6v5.2H74.3Zm-2.6,1.6a11.6,11.6,0,0,1-4.3,3.8L67,66.1a11.5,11.5,0,0,0,3.3-4.1Zm-0.9-4.7h5.5V56.6H70.8v1.5h0Zm0,2.3h5.5V58.8H70.8v1.6Zm8.7,4.8-1.2,1.1a32.6,32.6,0,0,0-3.1-3.9l0.3-.5a16.7,16.7,0,0,1,4,3.2h0Z"/><path d="M81.3,60.1L81,59.7a7.6,7.6,0,0,0,3.2-5.3l1.5,0.4-0.5,1.4a3.4,3.4,0,0,0,1.9,1.6V53.8H82V53H92.7l0.3-.4,1.6,0.8a11,11,0,0,1-2.1,2.1L92,55.2a5.9,5.9,0,0,0,.7-1.4H88.5v1.8H92v0.7H88.5V58a33.7,33.7,0,0,0,6.4-.2l-0.5,1.4A28.9,28.9,0,0,1,88,59a4.1,4.1,0,0,1-3.2-2.3A8.1,8.1,0,0,1,81.3,60.1Zm9.6,3.6A17.6,17.6,0,0,1,94.5,66l-1.1,1.1L92,65.6a89.6,89.6,0,0,1-9.9,1l-0.3-1.4h5.3V63.5h-4V60.3h4v-1h1.4v1h4.2v3.2H88.5v1.6l2.9-.2-0.8-.7Zm-3.8-.9V61H84.4v1.8h2.7ZM88.5,61v1.8h2.9V61H88.5Z"/><path d="M109.1,55.6V66.9h-1.5V65.5H99.8V67H98.3V55.6h3.9a23.3,23.3,0,0,0,.6-3.3l1.9,0.5a15.4,15.4,0,0,1-1.7,2.9h6.1Zm-1.5.7H99.8v3.6h7.9V56.3Zm0,4.3H99.8v4.1h7.9V60.7Z"/><path d="M277.4,33.3h1.8v7.3h1.6v1.1h-1.6v3.1h-1.5V41.6h-5.4v-1Zm0.2,3.3c0-.6,0-1.2.1-1.8h-0.1a11.8,11.8,0,0,1-1,1.7l-2.9,4h3.9v-4Z"/><path d="M282.5,42.7h1.8a45.1,45.1,0,0,1-1.8,4.4h-0.9A44.3,44.3,0,0,0,282.5,42.7Z"/><path d="M292.1,39.3H292a2.8,2.8,0,0,1-2.4,1.4,3.4,3.4,0,0,1-3.5-3.5,4,4,0,0,1,4-4.1c2.4,0,3.7,1.8,3.7,4.7,0,4.5-2.5,6.7-6.7,7.1V44.2C290.4,43.6,291.8,41.7,292.1,39.3ZM292,38a3,3,0,0,0,.1-0.8c0-1.6-.6-3.2-2.2-3.2s-2.2,1.4-2.2,3a2.2,2.2,0,0,0,2.2,2.4A2.1,2.1,0,0,0,292,38Z"/><path d="M294.7,39.1c0-3.8,1.8-5.9,4.1-5.9s3.9,2.1,3.9,5.8-1.5,6.1-4.1,6S294.7,42.8,294.7,39.1Zm6.4-.1c0-2.8-.7-4.9-2.3-4.9s-2.3,1.9-2.3,5,0.9,4.9,2.3,4.9S301.1,41.9,301.1,39Z"/><path d="M303.3,39.1c0-3.8,1.8-5.9,4.1-5.9s3.9,2.1,3.9,5.8-1.5,6.1-4.1,6S303.3,42.8,303.3,39.1Zm6.4-.1c0-2.8-.7-4.9-2.3-4.9s-2.3,1.9-2.3,5,0.9,4.9,2.3,4.9S309.6,41.9,309.6,39Z"/></svg>