<svg xmlns="http://www.w3.org/2000/svg" viewBox="0 0 555.8 141.5"><defs><style>.a{fill:#be1e88;}</style></defs><title>brands-result-text-port</title><path class="a" d="M198.5,119.8a20.2,20.2,0,0,1,5.1-13.4h1.5a23.3,23.3,0,0,0-3.8,13.4c0.1,4.8.9,9.3,4,13.6h-1.5A19.8,19.8,0,0,1,198.5,119.8Z"/><path class="a" d="M214,112.6h2.9v1.3H214v5.2l2.4-1.1,0.4,0.9-2.9,2.1v9.4c0,2.5-2.7,3.3-6.4.8l0.3-.9c2.8,0.7,3.5.5,3.5-.8v-7.1l-3,1.5-1.2-2.7,4.1-1.3v-6.1h-3.8v-1.3h3.8v-5.9h2.5v6H214Zm17.4,0.4v19.7h-2.5v-2.6H220v2.7h-2.4V113.1h5.7v-6.5h2.6v6.6h5.7V113h-0.1Zm-8.3,1.3H220v6.1h3.1v-6.1Zm0,7.4H220v7h3.1v-7h0Zm5.8-7.4h-3.1v6.1h3.1v-6.1Zm0,7.4h-3.1v7h3.1v-7h0Z"/><path class="a" d="M261.6,129.9l-1.4,3c-1.7-.3-8.1-1.8-11-7.3-1.8,4.7-6.2,6.8-12.8,7.7l-0.3-1c5.8-1.3,9-3.5,10.3-7h-9.9v-1.3h10.2a13.7,13.7,0,0,0,.4-3l2.9,0.3a15.2,15.2,0,0,1-.4,2.7h3.5l-2.3-2.2,0.4-.7a14.6,14.6,0,0,1,3.7,1.8l-0.9,1.2h7.2v1.3H250.4C253.6,129.3,260.1,129.8,261.6,129.9Zm-22.2-13.7h-2.5V115h6.6v-2.5h-2.6v1.3h-2.2V107h2.2v4.2h2.6v-4.7h2.4v15.9h-2.4v-6.3h-1.8a7.5,7.5,0,0,1-4.4,6.9l-0.5-.8c1.9-1.2,2.6-3.1,2.7-6h0Zm17.2-6.9h-4.7l-0.5.5,2.2,1.3-1.3,1.3-1.8-2-1.5,1.1a9.4,9.4,0,0,1,1.8,1.5l-1.4,1.1-1.2-2.2-1.6.7-0.4-.8a13.6,13.6,0,0,0,5.3-5.5l2.4,0.8-0.8,1h4l0.5-.4,2.4,1.3a20.2,20.2,0,0,1-9.9,6.2H256v-2.1h2.3v2.1h3.1v1.3h-3.1v3.4c0,2-2.2,3.1-5.5.7l0.3-.9c2.7,0.5,2.8.4,2.8-.7v-2.4h-8v-0.6l-1.6.3-0.3-1a19.2,19.2,0,0,0,10.5-6.1h0Zm-3.4,9.4-1.3,1.7a32,32,0,0,0-2.7-2.9l0.4-.8a14.1,14.1,0,0,1,3.6,2h0Z"/><path class="a" d="M275.3,112.9H264.7v-1.3h4.9c-1-1.6-2.2-3.7-3-4.6l0.7-.7a22.6,22.6,0,0,1,4.6,4l-1.6,1.4h5.1v1.3h-0.1Zm-1,3.9h-8.5v-1.2h8.5v1.2Zm-8.5,2.5h8.5v1.3h-8.5v-1.3Zm8.6,11.4h-6.3v2.1h-2.3v-9.5h8.6v7.5Zm-2.2-6.3h-4v5.1h4v-5.1Zm16.1,7.7a15.8,15.8,0,0,1-3.5,0c-2.2-.3-2.7-1.1-2.7-2.9v-8.1h-1.4c-0.2,7.6-3.8,10.9-7.3,12.2l-0.4-.9c3.1-1.7,5.1-4.4,5.3-11.3h-2.6v-8h7a42.8,42.8,0,0,0,1.8-6.9l2.8,0.9a34.7,34.7,0,0,1-3.3,5.9h3.6v8h-3v7.5a1,1,0,0,0,.9,1.1h0a7.1,7.1,0,0,0,2.1,0c0.8-.3,1-0.4.8-4.8h1c1.3,4.6,1.8,6.9-1.1,7.2h0.1Zm-9.9-19.1a36.2,36.2,0,0,0-2.1-6.1l0.9-.5a21.8,21.8,0,0,1,3.6,5.6Zm-0.4,6.9h7.2v-5.4H278v5.4Z"/><path class="a" d="M301.6,124.6h-4.7V128h-2.5V108h9.7v19.1h-2.4v-2.4h-0.1Zm-4.7-9h4.7v-6.3h-4.7v6.3Zm4.7,7.7v-6.5h-4.7v6.5h4.7Zm15.8-15.9v22.6c0,3-3,4-8.2.9l0.3-1c4.9,1.2,5.3.5,5.3-1v-6.5h-6.3c-0.6,4.9-2.5,8.2-6.8,10.9l-0.6-.8c4.5-4,5.2-6.9,5.2-15.4v-9.8h11.1Zm-2.6,13.7v-5.8h-6v2.5c0,1.2,0,2.2-.1,3.3h6.1Zm-6-12.4V114h6v-5.3h-6Z"/><path class="a" d="M326,133.3c3.1-4.3,3.9-8.8,4-13.6a23.3,23.3,0,0,0-3.8-13.4h1.5a20.2,20.2,0,0,1,5.1,13.4,19.8,19.8,0,0,1-5.2,13.6H326Z"/><rect class="a" x="207.8" y="137.6" width="112.7" height="1.22"/><path class="a" d="M21,23.9V13.3a27.8,27.8,0,0,1-7.8,9.4l-0.9-1.2A37,37,0,0,0,20,8.6H13.9V6.7H21V1h3.6V6.8h5.8V8.7H24.6v2a32.5,32.5,0,0,1,6,4.4l-2.5,2.7c-1.3-1.9-2.4-3.4-3.5-4.8V23.9H21Zm-2.3,2.2,1.4,0.5a19.8,19.8,0,0,1-4.3,10.9l-3.4-3A18.6,18.6,0,0,0,18.7,26.1Zm23,3c1.7,6.3,1.2,8.9-2.6,9.2a66.2,66.2,0,0,1-12.9,0c-3.6-.4-4.3-1.7-4.3-4.4V25.3h3.7v7.2c0,1.5.3,2.2,2.8,2.5A48.8,48.8,0,0,0,38,35c2.1-.3,2.4-1.5,2.3-5.8h1.4ZM29.5,24A30.3,30.3,0,0,1,37,29.3l-3,2.8a45.7,45.7,0,0,0-5.4-6.9Zm5.3,0H31.2V3.1H46.8v21H43.2V21.9H34.7v2h0.1ZM34.7,8.8h8.4V5H34.7V8.8Zm0,5.6h8.4V10.6H34.7v3.8Zm0,1.8v3.9h8.4V16.2H34.7ZM50.1,34.3l-3.7,2a44.4,44.4,0,0,0-4.3-9.5l1.2-1A30.9,30.9,0,0,1,50.1,34.3Z"/><path class="a" d="M82.4,25.5A18.2,18.2,0,0,1,79.3,32a47.7,47.7,0,0,1,10.2,3.8l-2.6,4a63.2,63.2,0,0,0-10.2-5.3c-4.6,3.6-11.5,4.9-21.7,5.3l-0.3-1.5c8-.8,14.1-2.2,18.2-5.2l-6.5-1.9-2.2,2.9-3-1.8A79.8,79.8,0,0,0,66,25.4H55.3V23.6h12l2.3-4.1H58.8V9.2h8.4V5.1H56.1V3.2H90.2V5.1H78.9V9.2h8.6V19.5H70.8l2.7,1a24.9,24.9,0,0,1-1.7,3.1H91v1.9H82.4ZM67.2,11.1H62.4v6.5h4.8V11.1ZM78.4,25.5H70.6l-3,4.3,7.7,1.3A14.6,14.6,0,0,0,78.4,25.5ZM70.7,9.2h4.7V5.1H70.7V9.2Zm0,8.4h4.7V11.1H70.7v6.5Zm8.2,0h5V11.1h-5v6.5Z"/><path class="a" d="M104,11.9V39.4h-3.5v-22a37.9,37.9,0,0,1-4.3,4.8l-1-1.1c4.5-5.6,7.6-14.4,8.6-20.6l4.2,1A55,55,0,0,1,104,11.9Zm30.2,21.5-2.8,3.3c-2.9-2.2-4.7-5.8-6.5-12.5l-2.2.8a21.9,21.9,0,0,1,.9,10.4c-0.8,4.4-4.8,6.2-10.3,1L114,35c4.6,1.8,5.8,1.8,6.2-1.3a26,26,0,0,0,.2-4.2,36,36,0,0,1-14.5,6L105.4,34a37.4,37.4,0,0,0,14.5-8.2,12.4,12.4,0,0,0-.4-1.6,35.1,35.1,0,0,1-13.4,6.1l-0.4-1.5a33.8,33.8,0,0,0,12.8-7.5L118,20.2a36.4,36.4,0,0,1-11.6,4.9l-0.5-1.3a27.1,27.1,0,0,0,10.3-6.2h-7.8V12.3l-1.9,1.3-0.8-1.1c4.5-4,6.2-7.5,8.1-12.3l4,1.4-1.7,2.7h5.1l0.9-.6,3.7,1.9a26.9,26.9,0,0,1-3.7,3.9h9.4v8.1H121.2l-2,1.7a13.1,13.1,0,0,1,3,4.4,25.7,25.7,0,0,0,5.9-4.9l2.6,2.4a33.6,33.6,0,0,1-4.5,2.4C129,29.7,131.5,31.6,134.2,33.4ZM111.8,9.5h7.8a16.2,16.2,0,0,0,1.5-3.3h-6.3A29,29,0,0,1,111.8,9.5Zm0.3,6.2h6.1V11.4h-6.1v4.4h0Zm15.8-4.3h-6.2v4.4h6.2V11.4Z"/><path class="a" d="M166.1,19.8a26.9,26.9,0,0,1-4.7,10,66.1,66.1,0,0,1,11.3,5.8l-2.8,3.8a74.8,74.8,0,0,0-10.7-7.1c-4.2,4.1-10.4,6.7-19.3,7.5l-0.3-1.5c7-1,12.5-3.3,16.5-7.6-2-1-4.2-1.9-6.5-2.8l-1.8,3L144.4,29a99,99,0,0,0,5.2-9.1H139.1v-2h11.2a84,84,0,0,0,3.4-7.9l3.9,1.3c-0.8,1.9-1.8,4.2-2.9,6.6h19.5v1.9h-8.1Zm-22.9-4.2h-3.8V7.1h17.9a65.4,65.4,0,0,0-6.2-5.8L151.8,0a34.5,34.5,0,0,1,9,4.4l-2.2,2.7h15.1v8.5h-3.8V9H143.2v6.6Zm18.6,4.2h-8c-1.1,2.3-2.4,4.5-3.6,6.6,2.7,0.7,5.1,1.3,7.4,2.1a30.6,30.6,0,0,0,4.2-8.7h0Z"/><path class="a" d="M186,15.6l1.5,0.2c-0.1,7-1.2,12.1-3.3,16.2l-4.5-2.6C182.6,25.8,184.5,22.5,186,15.6Zm5,16.5V9.7h4V31.3c0,2.2.4,2.7,2.8,2.8a31.5,31.5,0,0,0,5.3,0c3-.3,3.6-0.9,3.6-8.9h1.6c2.9,9.5,1.9,12-3.8,12.6a41.7,41.7,0,0,1-7.2,0C192.1,37.5,191,37.2,191,32.1Zm1.9-30.2,0.8-1.5a40.7,40.7,0,0,1,12.7,7.1l-3.3,3.8a60.2,60.2,0,0,0-10.2-9.4h0ZM207.6,15l1.4-.8a49.7,49.7,0,0,1,8.5,13.5l-4.6,1.9A84.1,84.1,0,0,0,207.6,15h0Z"/><path class="a" d="M258.9,35.5v2.3H221.6V35.5h12.3V25.9h-5v2.4h-3.8V12.9h8.8V5.6h-11V3.5h34.3V5.6h-11v7.3h8.9V28.2h-3.8V25.9h-5.2v9.6h12.8ZM237.6,24.1V35.5h4.7V24.1h8.9V14.8h-8.9V5.6h-4.8v9.2h-8.7v9.3h8.8Z"/><path class="a" d="M299.3,16.8v2.7H264.5V16.8h34.8Z"/><path class="a" d="M314.1,16.9V39.4h-3.4V20.8a34,34,0,0,1-4.5,8.9l-1.1-.9c2.1-4,4.1-10.7,5.1-17.4h-4.6V9.5h5.1V0.9h3.4V9.5h4.8v1.9h-4.8v2.8a32.3,32.3,0,0,1,5.3,5.8l-3,2A48,48,0,0,0,314.1,16.9Zm12.1,9.2c-2.3,5.9-5.2,9.4-10.6,11.5l-0.7-1.3a14.1,14.1,0,0,0,7.1-9.2h-5.7V25.3h5.6l0.8-.7Zm1-18.4h-8.6V6h6.2a30.1,30.1,0,0,0-2.9-4.7l1-1A21.5,21.5,0,0,1,328.1,5l-1.5,1h4.1A33.1,33.1,0,0,0,332.8.2l3.6,1.6A25.1,25.1,0,0,1,332.7,6h7.5V7.8h-9.3v2.5h8.2v1.8h-8.2v2.6h10.8v1.8H317.5V14.6h9.7V12h-7.1V10.2h7.1V7.7Zm15.2,26-2.5,3.8a20.2,20.2,0,0,1-8.8-10.1v8c0,4.1-3.4,5.7-9.1,1.7l0.5-1.5c4,1.2,4.9,1,4.9-.9V23.2h-7.5V21.4H331v2a14.6,14.6,0,0,0,2.2,4.2,19.7,19.7,0,0,0,4.1-5.6l3.4,2.4a27.7,27.7,0,0,1-6.6,4.4,20.2,20.2,0,0,0,8.3,5h0ZM324.3,18.4l0.3-1.4a40.9,40.9,0,0,1,9.7,1.8L333,21.6A64.5,64.5,0,0,0,324.3,18.4Z"/><path class="a" d="M351.6,20.3H359c-0.5,8.7-1,13-1.7,15.8-1.1,4.7-6.3,4-10.4-.3l0.7-1.3c4.8,2.2,5.8,1.8,6.3-.1s0.8-4.6,1.3-12.2h-3.9c-0.2.9-.3,1.8-0.5,2.6l-3.5-.5a119.4,119.4,0,0,0,1.9-13.5l3.2,0.8h2.5V4.2h-6.7V2.4h10.2v11h-5.9C352.3,15.6,352,18,351.6,20.3Zm32.1,9.1v1.9H373.2v7.9h-3.6V31.3h-10V29.4h10.1V26.5H362V13.2h19.1V26.5h-7.9v2.9h10.5ZM370.4,11.1h-9.6V2.4h9.6v8.8h0Zm-3.1-6.9h-3.4v5h3.4v-5ZM369.6,15h-4.2v3.7h4.2V15.1h0Zm0,5.6h-4.2v4h4.2v-4Zm12.6-9.5h-9.7V2.4h9.7v8.8h0Zm-9,7.6h4.3V15.1h-4.3v3.7h0Zm0,5.9h4.3v-4h-4.3v4Zm5.9-20.4h-3.4v5h3.5v-5h-0.1Z"/><path class="a" d="M388.4,11.8l0.9-1.2a37.9,37.9,0,0,1,7.6,5.3l-3,3C392.2,16.5,390.2,14,388.4,11.8Zm1,23.5c1.8-3.9,4.1-10.1,5.8-15l1.5,0.5a159.1,159.1,0,0,1-3.2,16.3Zm0.9-33.6,1-1.1a29.6,29.6,0,0,1,6.6,5.7l-3.1,2.5a75.5,75.5,0,0,0-4.6-7.1h0.1ZM410.1,3V15.6h-7.7V39.5h-3.7V3h11.4Zm-3.4,1.9h-4.3V8.5h4.3V4.9Zm0,5.3h-4.3v3.6h4.3V10.2Zm11,16.2V24.6h-4.6v-4h5.7V18.8h-15v1.9h5.9v4h-4.9v1.8h4.9v4.3h-6.3v1.9h15.8V30.8h-6V26.4h4.5Zm2.6,8V15.6h-7.9V3h11.4V35.8c0,3.5-2.7,5.5-10.1.9l0.4-1.5c5.8,1.5,6.3,1,6.3-.8h-0.1Zm0-29.5h-4.4V8.5h4.4V4.9Zm0,5.3h-4.4v3.6h4.4V10.2Z"/><path class="a" d="M468.2,35L466,39.5c-4-.6-12.7-3.3-16.3-11.9-2.4,6.7-8.5,10.6-19,12.2l-0.5-1.4c9-2.3,13.3-5.9,15.2-10.7H431.7v-2h14.4a22.8,22.8,0,0,0,.6-4.3l4.2,0.3a19.3,19.3,0,0,1-.6,3.9h16.1v1.9h-15C456,33.7,463.6,34.6,468.2,35Zm-1.3-14.3H431.4V18.8h15.7V14.7H435.5V12.8h11.6v-4H432.8V7h10.4A59.9,59.9,0,0,0,438,1.5l0.8-1.3a41,41,0,0,1,8.3,4.6l-2,2.2h6.2a27.1,27.1,0,0,0,3.4-7l4.1,2a28.7,28.7,0,0,1-5.1,5h11.7V8.9H450.8v4h12v1.9h-12v4h16.1v1.9Z"/><path class="a" d="M478.7,26.1c-0.4,5.6-1.8,10.5-5,13.6l-1.2-1c2.3-3.8,2.7-7.1,2.7-16.5V15.6h15.3a38.9,38.9,0,0,0-1.8-4.1v2.8h-3V7.4h-7v6.8h-3.3V5.7h13.4v5.5l1-.8a16.3,16.3,0,0,1,3,3.3V5.6h13.6v8.5h-3.3V7.3h-7.3V14h-2.9l0.4,0.7-1.7.9h16.3v1.9H497.3v2.3h9v6.4H478.7ZM490.1,3.7H474.3V1.9h15.9V3.8h-0.1Zm2.2,30.5,0.3,1.4A64.2,64.2,0,0,1,479,38.8l-1-3.5h3.1V27h3.4v3h7.6v1.7h-7.6v3.4C487.1,34.8,489.8,34.6,492.3,34.2Zm-7.5-12.7h-6v2.9h6.1V21.5h-0.1Zm-6-4.1v2.3h6V17.4h-6Zm5.8-4.3-3,1.2a33.4,33.4,0,0,0-1.7-5.5l1.1-.7a18.3,18.3,0,0,1,3.6,5.1h0Zm3.7,6.6h5.6V17.4h-5.6v2.3Zm0,4.6h5.6V21.5h-5.6v2.9h0ZM507.9,3.7H491.8V1.9h16.1V3.8h0ZM506.5,38a52.4,52.4,0,0,1-8.9.1c-3.4-.3-4.3-1.3-4.3-3.8V27.1h3.4v4.2a29.5,29.5,0,0,0,6.8-4l2.5,2.8a45.7,45.7,0,0,1-9.3,2.9v0.6c0,1,.3,1.6,2.8,1.8a48.2,48.2,0,0,0,6.1-.1c1.5-.3,1.7-0.8,1.4-5h1.4c2.1,6.1,1,7.2-1.9,7.7h0ZM497.9,8.3a16,16,0,0,1,3.8,4.8l-2.8,1.3a31.8,31.8,0,0,0-2-5.4Zm-0.6,16h5.6V21.5h-5.6v2.9h0Z"/><path class="a" d="M538.2,19.5l-2,2.2a6.7,6.7,0,0,0-2.1,4.8v2.9h-2.8c0-.9-0.1-2.2-0.1-3.3a8.1,8.1,0,0,1,2.5-6.1l2.1-2.4a6.9,6.9,0,0,0,1.8-5.1c0.1-2.8-1.3-5.5-4.7-5.5s-5.4,2.2-7.1,4.6L524.9,8c1.3-1.2,4.3-4,8.4-4,5.8,0,9,3.6,8.9,8.1S540,17.5,538.2,19.5Zm-5.5,18.4a3,3,0,0,1-3-2.9,2.9,2.9,0,0,1,2.9-2.9h0.1a2.9,2.9,0,1,1-.1,5.8h0.1Z"/><path d="M9.5,80.6a37.8,37.8,0,0,1-7.8,3.9L0.4,81.9l2.3-.4v-8L5,74a15.6,15.6,0,0,0,4.8-2.9l2.1,2a21.6,21.6,0,0,1-6.7,2v5.6l3.9-1.3L8,76.6l0.9-.5a20.1,20.1,0,0,1,3.6,5.7L10,82.9A20.2,20.2,0,0,0,9.5,80.6Zm-6,4.2H21.7V97.1H19.3V95.6H5.9v1.5H3.5V84.9h0Zm2.4,4.6h5.5V86.1H5.9v3.3Zm0,1.3v3.7h5.5V90.7H5.9ZM23,73a48.4,48.4,0,0,1-.7,8.8c-0.4,2-2.6,3-6.1-.1l0.4-.9c2.9,1,3.2.8,3.4-.6a33.4,33.4,0,0,0,.4-5.9H17.9c-0.5,5.2-2.5,8.5-6.9,10.3l-0.5-.9c3.5-2.1,4.6-4.7,4.8-9.5H12.7V73H23ZM13.8,89.4h5.5V86.1H13.8v3.3Zm0,5h5.5V90.7H13.8v3.7Z"/><path d="M41.2,74.8V80a43.2,43.2,0,0,1,9.4,6l-2.2,2.6a60.9,60.9,0,0,0-7.2-7.3V97.2H38.5V74.8H28.9V73.3H53v1.5H41.2Z"/><path d="M65.4,92.7l2.5,1.6a36.9,36.9,0,0,1-11.2,3.4l-0.3-1A27.2,27.2,0,0,0,65.4,92.7Zm-7.3-9.6-1.5-2a38.1,38.1,0,0,0,6-4.6l0.7,0.6A31.8,31.8,0,0,1,58.1,83.1ZM62,75.9c-1.8-1.3-3.3-2.4-4.6-3.2l0.3-1a20.5,20.5,0,0,1,5.7,1.9Zm-2,6.3H77.4V92.4H60V82.3h0Zm2.5,3H75V83.5H62.5v1.7Zm0,2.8H75V86.3H62.5V88Zm0,3.1H75V89.2H62.5v1.9Zm1.7-12.9-0.7-.7a15.1,15.1,0,0,0,3.3-6.6l2.4,0.6a14.5,14.5,0,0,1-.7,1.7h8.4l0.5-.4,2.4,1.4a13.3,13.3,0,0,1-4,3.8l-0.7-.6a12.7,12.7,0,0,0,1.7-3H73.1a13.8,13.8,0,0,1-.6,2c2.4,2.8,5.4,3.2,8.3,3.3l-1.3,2.6a10.4,10.4,0,0,1-7.6-5c-1.8,2.7-5,4.2-8.7,4.5l-0.3-1c4.4-1,6.6-3.2,7.5-6.5H67.8a13.9,13.9,0,0,1-3.6,4.1V78.2Zm5.7,14.5A44.8,44.8,0,0,1,80.4,95L79,97.5a77,77,0,0,0-9.4-3.8Z"/><path d="M91.9,84.8V97.1H89.4V86.8a23,23,0,0,1-4.7,6.6L84,92.7a28.3,28.3,0,0,0,5-10.8H85V80.7h4.5V71.3H92v9.4h3.9v1.2H92v1.3a21,21,0,0,1,4.4,3.7l-2,1.7A42.8,42.8,0,0,0,91.9,84.8Zm-5.3-5A43.4,43.4,0,0,0,85.2,74l0.8-.4A20.7,20.7,0,0,1,88.9,79Zm6.6,0-0.8-.4a27.3,27.3,0,0,0,1.7-5.8l2.4,1A24.7,24.7,0,0,1,93.2,79.8Zm12.9,8.4v9h-2.6V88.8l-9,2-0.3-1.2c2.8-.5,6.1-1.2,9.3-2V71.4h2.6V87l2.7-.7,0.3,1.2Zm-9.7-6.8,0.7-.6a19.8,19.8,0,0,1,4.8,4.3l-2,1.7A46.3,46.3,0,0,0,96.4,81.4Zm3.9-1.4a38.2,38.2,0,0,0-3.2-5.7l0.7-.6a20.6,20.6,0,0,1,4.6,4.7Z"/><path d="M114.2,91.5h3.1a77.3,77.3,0,0,1-3,7.6h-1.6A75.9,75.9,0,0,0,114.2,91.5Z"/><path d="M127.3,87.9a20.1,20.1,0,0,1-4.8,7.5l-0.7-.7a24.9,24.9,0,0,0,3.2-7.6ZM136,76.8H122.1V75.5h7.1a47.8,47.8,0,0,0-3.3-3.6l0.5-.9a22.4,22.4,0,0,1,4.9,3l-1.4,1.5h6v1.3H136Zm-5.4,8.8v8.9c0,2.7-1.5,4.1-6.2,1.3l0.4-.9c3.4,0.6,3.5.3,3.5-1V85.6h-4.1V79h10.1v6.6h-3.7Zm-4.1-1.3h5.4V80.2h-5.4v4.1Zm6.4,9.5a50.8,50.8,0,0,0-1.8-6.4L132,87a28.6,28.6,0,0,1,3.3,5.8Zm7.2-13c-0.4,9-2,13.2-7.1,16.7l-0.7-.8c4-3.7,5-7.8,5.3-16h-2.8V79.4h2.8c0.1-2.4.1-5.1,0.1-8.2h2.5c0,3.1,0,5.8-.1,8.2h6.5v1.3h-6.5Zm3.9,16c-3.2,0-3.9-.6-3.9-2.7V82.8h2.3V92.9c0,1.4,0,1.7,1.5,1.7s1.4-.4,1.3-5.5h1c1.7,6.6,1,7.8-2.3,7.8H144Zm-0.2-18.3a47.2,47.2,0,0,0-2.3-5.3l0.8-.6a17.8,17.8,0,0,1,3.6,4.7Z"/><path d="M160.5,77a27.7,27.7,0,0,1-1.9,3.5h12.9v14c0,3-3.1,3.5-7.6,1l0.3-1c4.1,0.9,4.8.5,4.8-.9v-3H158.7v6.6h-2.6V83.8a22.4,22.4,0,0,1-5.8,4.8l-0.6-.8A27,27,0,0,0,157.6,77h-7V75.5h7.7a35.6,35.6,0,0,0,1.3-4.5l2.8,0.6a34.7,34.7,0,0,1-1.2,4h13.4V77H160.5Zm-1.8,8h10.2V81.9H158.7V85h0Zm0,4.4h10.2V86.2H158.7v3.2h0Z"/><path d="M183.7,82.2v15h-2.3V85.1a22.8,22.8,0,0,1-2.8,6.2l-0.8-.6a47.7,47.7,0,0,0,3.2-12h-2.6V77.5h2.9v-6h2.3v6h1.9v1.2h-1.9v1.7a17.4,17.4,0,0,1,2.8,3.6l-1.8,1ZM196,87a23.1,23.1,0,0,0,1,3.3,21.9,21.9,0,0,0,2.1-2.9l2.1,1.2a15.2,15.2,0,0,1-3.1,3.8,4.7,4.7,0,0,0,1.8,1.8c1.1,0.5,1.5.5,1.9-3h0.9c0.9,4.8-.5,6.3-2.8,5.6a7,7,0,0,1-3.8-3.1,21.8,21.8,0,0,1-7.6,3.2l-0.4-.8a19.7,19.7,0,0,0,7.1-4,24.3,24.3,0,0,1-1.6-5.1h-3.1v1.1a20.9,20.9,0,0,1,3.9,2.9l-1.7,1.7-2.4-3.4a11.5,11.5,0,0,1-5.3,8l-0.6-.8c1.9-1.6,3.5-4.4,3.9-9.5h-2.9V85.7h3V83.5h2.2v2.2h2.9a99,99,0,0,1-.9-14.4h2.3a76.4,76.4,0,0,0,.8,14.3h2.8c-0.3-.7-0.9-1.8-1.4-2.7l-1,.3-0.6-2h1.1a23.5,23.5,0,0,0,1.8-3.4,14,14,0,0,1-2.7,1l-0.5-2.2h1.1a32.9,32.9,0,0,0,1.2-5l2.2,0.6a39.8,39.8,0,0,1-2.3,4.4h1.7l0.7-1.9,2.1,0.9a25.9,25.9,0,0,1-4.1,5.6l2.5-.4-0.4-1.2,0.7-.3a12.4,12.4,0,0,1,2.1,3.7l-1.8.6c-0.1-.7-0.3-1.3-0.4-1.9l-2.4,1.1a14.4,14.4,0,0,1,2.2,2.4l-1,.7h3.5V87H196Zm-8.9-5.5a26.6,26.6,0,0,0,1.7-3.2l-2.4.8-0.5-2h1a35.8,35.8,0,0,0,1.3-5.5l2.2,0.6a38,38,0,0,1-2.5,4.9h1.5l0.8-2.2,2,0.9a31.8,31.8,0,0,1-3.8,5.6l2.2-.3-0.4-1.3,0.7-.3a11.8,11.8,0,0,1,1.9,3.7l-1.7.5L190.8,82a15.9,15.9,0,0,1-4.2,1.5l-0.6-2h1.1Z"/><path d="M229.8,80.8l-2-.8v6.3H209.1V80.1l-3,1.1-0.4-1c4.6-1.9,10.1-6.4,12.2-9.4l2.6,1.3-0.7.7a29.1,29.1,0,0,0,11.3,5.3Zm-2.6-1.1a29,29,0,0,1-4.5-2.8v1.2h-8.4V77.3a37.3,37.3,0,0,1-4.4,2.4h17.3ZM210.7,88h15.4v9.3h-2.4V96H213.2v1.3h-2.4V88h-0.1Zm1.5-6.6,0.4-.4h-1.2v4h2.9l-2-3.6h-0.1Zm0.9,7.9v2h10.6v-2H213.1Zm10.6,5.5V92.6H213.2v2.2h10.5ZM217.3,81h-4a19,19,0,0,1,3.1,3L215,85h2.3V81h0ZM215,76.9h7.7a27.4,27.4,0,0,1-3.5-3.2A35.5,35.5,0,0,1,215,76.9Zm4.6,4.1v4h1.3l-0.4-.4a26.6,26.6,0,0,0,2-3.7h-2.9Zm5.7,0H223l1.8,1a25,25,0,0,1-3.2,3h3.8V81h-0.1Z"/><path d="M239.8,82.7V97.4h-2.5V85.5a23.1,23.1,0,0,1-3,2.5l-0.7-.8a30.2,30.2,0,0,0,6.6-10.6l2.5,1.2A24.9,24.9,0,0,1,239.8,82.7ZM234.6,80l-0.6-.8a24.5,24.5,0,0,0,5.2-8.2l2.4,1.3A25,25,0,0,1,234.6,80Zm24.2,7v1.3h-4.3V95c0,2.6-3,3.4-7.3.5l0.4-1c3.8,0.9,4.3.7,4.3-.6V88.3H240.8V87h11.1V84.6H241.4V83.3h16.7v1.3h-3.6V87h4.3Zm-3.2-5.5H243.8V72.6h11.8v8.9h0Zm-7,11.4-2.3,1.4a40.3,40.3,0,0,0-2.4-4.9l0.8-.6a19.9,19.9,0,0,1,3.9,4h0Zm4.6-19h-6.9v2.6h6.9V73.9Zm0,3.8h-6.9v2.5h6.9V77.7Z"/><path d="M277.1,91.5l0.2,1a70.3,70.3,0,0,1-14.2,3.4l-0.8-2.8,6.1-.3V88h-5.2V86.7h5.2V83.1H271v3.6h5.3V88H271v4.4Zm0.6-9-2.4,1.4-1.1-2.5a98.1,98.1,0,0,1-10.7,2.2l-0.8-2.9h3.1a38.3,38.3,0,0,0,2.2-6.2h-5.4V73.2h14.7v1.3h-6.2a45.6,45.6,0,0,1-4.1,6.1l6.6-.4c-0.6-1.1-1.2-2.2-1.8-3.1l0.8-.7A23.2,23.2,0,0,1,277.7,82.5Zm7.7-11V94.2c0,3.5-2.9,4.5-7.6,1.3l0.3-1c3.8,0.9,4.7.9,4.7-.9V71.4h2.6Zm-4.9,19.7h-2.4V74.3h2.4V91.2h0Z"/><path d="M303.7,74.5v3.8h9.4V94.7c0,2.4-2.7,3.7-6.8.7l0.3-1c3.6,1,4,.6,4-0.6V90.9L309.1,92a20.1,20.1,0,0,1-1.4-5.8,13.7,13.7,0,0,1-3.6,6l-0.4-.4v4.8h-2.6V90.7l-1.3,1.1a18.8,18.8,0,0,1-1.4-5.7,13,13,0,0,1-3.5,6.1l-0.4-.4v5.7H292V78.3h9.1V74.5H290.2V73.1h24.4v1.4H303.7Zm-2.6,14.8V79.7h-6.6V91.2a15.3,15.3,0,0,0,2.6-8.1H295V81.9h3.9A11.9,11.9,0,0,0,301.1,89.3Zm2.6-9.6V91a16.8,16.8,0,0,0,2.7-7.9h-2.1V81.9h3.9a12.1,12.1,0,0,0,2.5,7.6V79.6h-7Z"/><path d="M325.4,72a44,44,0,0,1-1.9,6.2V97.3h-2.4V82.7a24.9,24.9,0,0,1-3,3.6l-0.7-.7c2.8-4.2,4.2-8.3,5.2-14.3Zm16.5,1.3V97.4h-2.5v-2h-11v2h-2.5V73.2h16Zm-2.5,1.3h-11V94.2h11V74.5h0Zm-6.7,6h-3.5V79.3h3.5V75.6h2.4v3.7h3.6v1.3h-3.6v3.8H338v7.3h-8.1V84.4h2.9V80.6h-0.1Zm-0.7,5v4.8h3.8V85.6H332Z"/><path d="M366.5,72.9V93.7c0,3.9-3,4.7-7.7,1.1l0.4-.9c4.3,1.3,4.7.6,4.7-1.1V86.7H353.5c-0.4,5.6-1.8,8.1-5.6,10.9l-0.6-.8c4.1-4.3,3.8-10,3.8-15.9v-8h15.4Zm-2.6,12.5v-5H353.6v0.7c0,1.6,0,3-.1,4.3h10.4ZM353.6,74.2v5h10.3v-5H353.6Z"/><path d="M379.9,78.4V97.3h-2.4V82.7a19.7,19.7,0,0,1-3.1,3.5l-0.7-.7c2.9-3.8,4.5-8.3,5.4-14.3l2.8,0.6A34.6,34.6,0,0,1,379.9,78.4Zm1.4,6-0.7-.7a22.3,22.3,0,0,0,4.3-10.2l2.6,0.8a20.2,20.2,0,0,1-6.2,10h0Zm1.8-1.5h12.5a94.4,94.4,0,0,1-.8,11.2c-0.5,2.5-2.9,4.2-7.4.5l0.4-.9c3.8,1.3,4.3,1,4.5-.6a68.8,68.8,0,0,0,.5-9h-3.9c-0.6,7.4-3,10.5-7.6,13.1l-0.6-.8c3.7-2.9,5.3-5.9,5.7-12.3h-3.3V82.8h0Zm16.1-1.6-2.1,2.6a15.1,15.1,0,0,1-5.6-10.1h-3.8V72.5h4.9c0.7,5,3.6,7.1,6.6,8.8h0Z"/><path d="M401.5,84.4a19.8,19.8,0,0,1,5-13.2H408a22.8,22.8,0,0,0-3.7,13.2c0.1,4.7.9,9,3.8,13.3h-1.5A19.4,19.4,0,0,1,401.5,84.4Z"/><path d="M415,78.2V97.3h-2.4V82.5a19.1,19.1,0,0,1-3.2,3.8l-0.7-.7A34.5,34.5,0,0,0,414.5,71l2.7,0.7A34.7,34.7,0,0,1,415,78.2Zm7.3,14.5,2.4,1.5a26.1,26.1,0,0,1-8.7,3.5l-0.3-1a18.4,18.4,0,0,0,6.5-4h0.1Zm6.2-18.3v1.8h4.6v5.2H417.4V76.2H422V74.4h-4.8V73.1h16.4v1.3h-5.1Zm-9.9,18V82.8h13.2v9.6H418.6Zm1.2-12.2H422V77.4h-2.2v2.8Zm1.2,5.3h8.4V83.9H421v1.6Zm0,2.8h8.4V86.6H421v1.7Zm0,2.9h8.4V89.5H421v1.7Zm5.3-16.8h-2v1.8h2V74.4Zm-2,5.9h2V77.5h-2v2.8Zm9.9,15.3-1.4,2.3a55.5,55.5,0,0,0-6.5-3.9l0.3-1a30,30,0,0,1,7.5,2.5h0.1Zm-5.7-18.1v2.8h2.3V77.5h-2.3Z"/><path d="M442,78.7V97.2h-2.4V83a23.2,23.2,0,0,1-2.8,3.3l-0.7-.7a33.4,33.4,0,0,0,5.3-14.5l2.8,0.6A35.7,35.7,0,0,1,442,78.7Zm19.1,16.4v1.3h-18V95.1h2.5v-16h4.3c0.1-1,.3-2,0.4-3.1h-6.2V74.7h6.5c0.2-1.2.3-2.4,0.4-3.3l2.6,0.3c-0.2,1.1-.3,2.1-0.4,3.1H460V76h-7c-0.1,1.1-.3,2.2-0.4,3.1h5.9v16h2.6Zm-5-14.7h-8.3V83h8.3V80.4Zm0,3.8h-8.3V87h8.3V84.2Zm0,3.9h-8.3V91h8.3V88.1Zm0,4h-8.3v3h8.3v-3Z"/><path d="M471.9,94.1v3.3h-2.2V94.3a13.7,13.7,0,0,1-5.4-1.3l0.3-2.3a8.6,8.6,0,0,0,5.5,1.9c2.4-.1,4.1-1.4,4.1-3.5s-1.5-2.8-2.9-3.4l-2.8-1.1c-1.6-.6-3.6-1.6-3.6-4.5a5.1,5.1,0,0,1,4.6-5.1V72h2.1v2.9a9.6,9.6,0,0,1,3.8.9l-0.3,2.3a6.4,6.4,0,0,0-4.3-1.5,3.5,3.5,0,0,0-3.6,3.2c0,1.9,1.3,2.2,2.9,2.9l2.3,1.1c1.2,0.6,4.2,1.7,4.2,5.1S474.6,93.5,471.9,94.1Z"/><path d="M549.2,97.7c3-4.2,3.8-8.6,3.8-13.3a22.8,22.8,0,0,0-3.7-13.2h1.5a19.8,19.8,0,0,1,5,13.2,19.4,19.4,0,0,1-5.1,13.3h-1.5Z"/><path d="M25.4,131.7l-1.5,3c-2.7-.4-8.5-2.2-10.9-8-1.6,4.5-5.7,7.1-12.7,8.1l-0.3-1c6-1.5,8.9-3.9,10.2-7.2H1v-1.3h9.6a15.2,15.2,0,0,0,.4-2.9l2.8,0.2a12.9,12.9,0,0,1-.4,2.6H24.2v1.3h-10C17.2,130.8,22.3,131.5,25.4,131.7Zm-0.8-9.6H0.8v-1.3H11.3v-2.7H3.5v-1.3h7.8v-2.7H1.7V113H8.6a40.2,40.2,0,0,0-3.5-3.7l0.5-.9a27.5,27.5,0,0,1,5.5,3.1L9.9,113h4.2a18.1,18.1,0,0,0,2.3-4.7l2.8,1.3a19.2,19.2,0,0,1-3.4,3.4h7.8v1.3H13.8V117h8v1.3h-8V121H24.6v1.1h0Z"/><path d="M53,129.9l-1.2,3.3a64.1,64.1,0,0,1-8.3.3c-5.9-.1-8.3-2.7-9.5-5.6s-1.3,1.3-2.9,6.2l-2.9-1.5c3.4-5.3,4.3-10.3,6.5-6.1l0.4,0.7c4-2.7,8.6-7,10.8-11.1H29.6v-1.5H45.9l1.1-.8,3.1,1.8a36.4,36.4,0,0,1-14.5,12.6c1.1,1.4,3,2.6,8,2.6A59.1,59.1,0,0,0,53,129.9ZM34.8,109.2l0.6-.9a30.2,30.2,0,0,1,7,3.6l-2,2.5A72.1,72.1,0,0,0,34.8,109.2Z"/><path d="M62.8,121.1A57.3,57.3,0,0,1,58,132l-2.4-1.7a86.7,86.7,0,0,0,6.2-9.7Zm-2.7-4.8a53.7,53.7,0,0,0-3.5-5.6l0.7-.8a21.3,21.3,0,0,1,5,4.6Zm21.5,14.8-1.7,2.6a21.8,21.8,0,0,1-7.2-7.9v8.8H70.2v-8.1a21.9,21.9,0,0,1-9.3,7.3l-0.5-.9a21.4,21.4,0,0,0,8.2-8.2H64V116h6.2v-2.4H62.8v-1.3h7.4v-3.5h2.5v3.5h8v1.3h-8V116h6.4v8.7H73.2A21.8,21.8,0,0,0,81.6,131.1ZM66.4,119.6h3.8v-2.4H66.4v2.4Zm0,3.8h3.8v-2.6H66.4v2.6Zm6.3-3.8h4v-2.4h-4v2.4Zm0,3.8h4v-2.6h-4v2.6Z"/><path d="M92.7,125.3v6.8c0,2.5-2.8,3.4-6.2.5l0.3-.9c2.4,0.8,3.5.8,3.5-.5V124H87.9c-0.4,4.8-1.6,8.9-3.2,11l-0.8-.5c1.5-3.9,1.7-7.6,1.7-14.6v-10h7.1v14.3A16.8,16.8,0,0,0,99,119H98.6v-2.9a20.9,20.9,0,0,1-4.3,3.3l-1.1-2a24.2,24.2,0,0,0,5.4-2.5v-3.8H93.5v-1.3h7.3v8.5l1.1,0.6-0.4.6a15.3,15.3,0,0,0,8,3.3l-1.1,2.5a14.7,14.7,0,0,1-7.4-5.1A20.1,20.1,0,0,1,92.7,125.3Zm-2.4-8H88v3.3a13.4,13.4,0,0,1-.1,2h2.4v-5.3Zm0-6.3H88v5h2.3v-5Zm16,16.1,2,1.5c-3,3.7-9.7,5.5-15.2,6l-0.3-1c5.5-.6,10.9-3.1,13.5-6.4h0Zm-3.7-3.6a18,18,0,0,1-8.5,4.1l-0.4-1a16.7,16.7,0,0,0,7-4.5Zm-8.5,7.4-0.3-.9a19,19,0,0,0,9.8-5.5l2,1.5c-2.4,2.5-7.4,4.5-11.5,5.1v-0.2h0ZM97.6,114l-1.7,1.2a20.1,20.1,0,0,0-2-3.2l0.7-.6a9.6,9.6,0,0,1,3,2.8V114Zm4.5,4.1-1-2a21.7,21.7,0,0,0,4.7-1.6v-3.6h-4.5v-1.3H108V120h-2.3v-3.9a17.7,17.7,0,0,1-3.5,2.3v-0.3h-0.1Zm2.9-4.6-1.5,1.4a26.4,26.4,0,0,0-2.2-3l0.6-.7a10.5,10.5,0,0,1,3.2,2.6v-0.3H105Z"/><path d="M128.3,124.4v7.5c0,2.5-1.8,4.2-6.8,1.3l0.3-1c3.5,0.8,3.9.6,3.9-.9v-6.9h-6.2v-9.3h5.2a34.9,34.9,0,0,0,1-3.6h-8.3v6.9c0,10-1.9,13.7-4.6,16.4l-0.8-.6c1.8-3.1,2.7-5.7,2.7-15.9v-8.1h21.9v1.3h-7.9a33.7,33.7,0,0,1-2.7,3.6h8.1v9.3h-5.8Zm-4.7,2.9a20.7,20.7,0,0,1-7.7,6.7l-0.6-.8a20.5,20.5,0,0,0,5.8-7.2ZM122,119h9.7v-2.7H122V119h0Zm0,4.1h9.7v-2.9H122v2.9Zm15.4,8.6-2.2,2a58,58,0,0,0-5.5-6.9l0.6-.8a29.7,29.7,0,0,1,7.1,5.7h0Z"/><path d="M140.7,122.5l-0.5-.8c2.3-1.6,4.8-4.2,5.7-9.5l2.7,0.7a19.4,19.4,0,0,1-.9,2.4,6.1,6.1,0,0,0,3.4,2.9v-7h-9.2v-1.3h19l0.6-.7,2.8,1.4a19.6,19.6,0,0,1-3.8,3.7l-0.8-.6a10.4,10.4,0,0,0,1.2-2.5h-7.3v3.2h6.1v1.3h-6.1v3a59.9,59.9,0,0,0,11.4-.3l-0.8,2.5a51.3,51.3,0,0,1-11.5-.4,7.3,7.3,0,0,1-5.6-4A14.4,14.4,0,0,1,140.7,122.5Zm17.1,6.4a31.3,31.3,0,0,1,6.4,4l-2,2a25.9,25.9,0,0,0-2.4-2.7,159.2,159.2,0,0,1-17.6,1.8l-0.6-2.5c3,0.1,6.3.1,9.4,0v-3h-7.1v-5.7H151V121h2.5v1.7H161v5.7h-7.5v2.9l5.2-.3-1.5-1.3Zm-6.7-1.6V124h-4.8v3.2h4.8Zm2.5-3.2v3.2h5.1V124h-5.1Z"/><path d="M190.2,114.5v20.1h-2.6V132h-14v2.7H171V114.5h7a41.4,41.4,0,0,0,1-5.9l3.4,0.8a27.3,27.3,0,0,1-3.1,5.1h10.9Zm-2.6,1.3h-14v6.4h14v-6.4Zm0,7.7h-14v7.3h14v-7.3Z"/><path d="M489.2,74.8h3.1V87.7h2.8v1.9h-2.8v5.5h-2.7V89.6H480V87.8Zm0.4,5.8c0-1.1,0-2.1.1-3.2h-0.2a21,21,0,0,1-1.7,3l-5.1,7v0.2h6.9V80.7Z"/><path d="M498.3,91.6h3.2a79.8,79.8,0,0,1-3.1,7.8h-1.6A78.1,78.1,0,0,0,498.3,91.6Z"/><path d="M515.3,85.5h-0.1a5,5,0,0,1-4.3,2.5,6.1,6.1,0,0,1-6.3-6.2,7.1,7.1,0,0,1,7.1-7.2c4.2,0,6.6,3.1,6.6,8.3,0,8-4.4,12-11.9,12.7l-0.3-1.3C512.3,93.1,514.8,89.8,515.3,85.5Zm-0.1-2.2a5.2,5.2,0,0,0,.2-1.4c0-2.9-1-5.7-3.9-5.7s-3.9,2.5-3.9,5.4,1.5,4.3,3.9,4.3A3.7,3.7,0,0,0,515.2,83.3Z"/><path d="M519.9,85.1c0-6.8,3.1-10.5,7.3-10.5s7,3.8,7,10.2-2.7,10.8-7.3,10.7S519.9,91.8,519.9,85.1Zm11.3-.2c0-5-1.3-8.7-4.2-8.7s-4.2,3.4-4.2,8.9,1.6,8.8,4.1,8.8S531.3,90.1,531.3,84.9Z"/><path d="M535.1,85.1c0-6.8,3.1-10.5,7.3-10.5s7,3.8,7,10.2-2.7,10.8-7.3,10.7S535.1,91.8,535.1,85.1Zm11.3-.2c0-5-1.3-8.7-4.2-8.7s-4.2,3.4-4.2,8.9,1.6,8.8,4.1,8.8S546.5,90.1,546.5,84.9Z"/></svg>