<svg xmlns="http://www.w3.org/2000/svg" viewBox="0 0 452 225.3"><defs><style>.a{fill:#fff;}</style></defs><title>brands-q1-port</title><path class="a" d="M37.7,119.3v31.3H33.6v-4H11.9v4.1H7.8V119.3H18.7a64.3,64.3,0,0,0,1.5-9.2l5.4,1.3a42.6,42.6,0,0,1-4.8,7.9H37.7Zm-4.1,2H11.9v10H33.6v-10Zm0,12H11.9v11.4H33.6V133.2h0Z"/><path class="a" d="M85,113.6v2H74.4v2.8H70.6v-2.8h-9v2.7H57.8v-2.7H47.7v-2H57.8v-3.1h3.7v3.1h9v-3.1h3.9v3.1H85ZM64.7,128H53.5v22.6H49.7V118.9h15v9h0ZM61,120.9H53.5v1.8H61v-1.8Zm0,3.4H53.5V126H61v-1.7h0Zm7.1-5.4H83.2v27.6c0,4.4-3.9,5.6-9.9,1.3l0.3-.9a54.1,54.1,0,0,0-5.8-4.1v7.6h-3v-7.6c-2.1,2.7-6.1,4.9-9.6,6.1l-0.7-1.3a22.2,22.2,0,0,0,8.2-6.5H56.5v-7.4h8.4v-1.4H55.2v-1.8h9.7v-2h3v2H78.1v1.8H67.9v1.4h8.8v7.4H67.8v0.4a36.4,36.4,0,0,1,8.7,3.3l-1.1,1.9c3.1,0.7,4.1.4,4.1-1V128H68.1v-9h0Zm-8.8,20.7h3.2a38.7,38.7,0,0,0-2.2-3.5l0.7-.7a17.5,17.5,0,0,1,3.5,2.8L63,139.6h2v-4.2H59.3v4.2Zm8.4,0h1.1l-0.5-.6a17.3,17.3,0,0,0,2.4-3.7h-3v4.2h0Zm6.1-4.2H71.2l1.8,1.2a17.3,17.3,0,0,1-3.7,3.1h4.5v-4.2h0Zm-2.1-12.7h7.7v-1.8H71.7v1.8Zm0,3.3h7.7v-1.7H71.7V126Z"/><path class="a" d="M121.6,149.2c-5.5-3.4-8.9-9-10.5-20.2H100.7v13.7c3.8-.8,7.6-1.7,10.7-2.7l0.6,1.5c-4.6,2.9-14.4,6.5-19,7.5l-1.6-4.8,5.1-.7V114.2l3.6,1.3c7.6-.8,15.8-2.8,20.7-5.1l4.4,3.6a97.1,97.1,0,0,1-11,2.1c0,3.9.2,7.4,0.5,10.4h12.9v2.4H115c1.1,8.1,3.5,12.7,7.5,15.5s3.3,0.8,3.2-7.3h1.7C131,149,127.7,152.9,121.6,149.2Zm-10.9-22.6c-0.3-3-.5-6.2-0.6-9.9l-9.5.6v9.3h10.1Z"/><path class="a" d="M173.5,144.8l-1.1,4.4a167.6,167.6,0,0,1-17.4.2c-6.7-.4-9.5-1.4-12.6-6.4a42.9,42.9,0,0,1-6.4,8.2l-2.5-2.6a40,40,0,0,0,6.7-6.2v-9.8H134v-2h10v11.5c2.6,3.6,5.4,3.7,11.2,3.8A135.7,135.7,0,0,0,173.5,144.8Zm-32.1-17.6a90.4,90.4,0,0,0-5.9-6.9l0.9-1.3a40.7,40.7,0,0,1,7.9,5Zm-3.9-15.7,0.8-1.3a35.7,35.7,0,0,1,8,4.8l-2.8,3.2A78.8,78.8,0,0,0,137.5,111.5Zm18.6,10.2h-8.2v-2h11.9a47.9,47.9,0,0,0,3.2-9.8l4.1,1.7a57.8,57.8,0,0,1-5.5,8.2h8v2h-9.5a50.1,50.1,0,0,1-.3,6.5h11.5v2H159.7a21.2,21.2,0,0,1-.5,2.4,51.7,51.7,0,0,1,12.1,7.3l-3.1,3.8a94.4,94.4,0,0,0-9.6-9.2c-1.8,4.6-5.3,7.7-11.4,9.6l-0.7-1.4c5.4-2.7,8.2-6.1,9.2-12.5h-9.6v-2H156c0.1-2.1.1-4.3,0.1-6.7h0Zm-2.3-2.3a70.4,70.4,0,0,0-4.7-8.2l1.2-1a30.3,30.3,0,0,1,6.8,6.8Z"/><path class="a" d="M187.2,120.6v30.3h-3.7V126.6a33.4,33.4,0,0,1-5.2,5.6l-1-1.2c4.7-6.1,7.5-13.1,9.3-21.3l4.3,1.3A56.2,56.2,0,0,1,187.2,120.6Zm17.7-.3v26.3c0,4.1-4.1,6.5-11.7.5l0.5-1.5c6.6,2.2,7.4,1.6,7.4-.7V120.3h-5.7a46.6,46.6,0,0,1-5.5,8.5l-1.4-.9a41.5,41.5,0,0,0,5.6-17.6l4.4,1a35.6,35.6,0,0,1-2.3,7.1h14.7l0.9-.7,4.3,2.5a33,33,0,0,1-6.4,6.6l-1.3-1a19.3,19.3,0,0,0,2.4-5.4h-5.9Zm-6.6,9.4a44.6,44.6,0,0,1-8.4,15.6l-1.3-1a49.7,49.7,0,0,0,5.5-16Zm18.8,13.1-4.4,1.9a117.5,117.5,0,0,0-5.3-15.4l1.3-.8A66.2,66.2,0,0,1,217.1,142.8Z"/><path class="a" d="M232.2,147.9c-7.7,0-10.7-6.3-10.7-14.1,0-10.9,6.5-16.9,18-18l0.3,2c-9,1.1-14.4,6.3-14.3,14.2h0.2a8.2,8.2,0,0,1,7.6-5c5.8,0,9.2,4.8,9.2,9.9S239.8,147.9,232.2,147.9Zm0.2-18.1c-3.2,0-6.1,3-6.1,7.5s2.5,8.1,6.1,8.1,5.7-2.8,5.7-8S235.6,129.8,232.4,129.8Z"/><path class="a" d="M247,131.9c0-10.3,4.7-15.9,11.1-15.9s10.5,5.7,10.5,15.4-4.1,16.2-11,16.2S247,142,247,131.9Zm17.1-.3c0-7.5-1.9-13.1-6.3-13.1s-6.3,5.1-6.3,13.4,2.4,13.2,6.2,13.2S264.1,139.5,264.1,131.6Z"/><path class="a" d="M312.4,127l-3,4.9a20.3,20.3,0,0,1-5.6-4.1c-0.7,11.2-1.1,15.8-1.8,18.5s-5.2,5.6-13.4.3l0.5-1.5c7.3,2,8.6,1.5,9.2-1.2s0.9-6.2,1.2-13.9h-8.9c-0.8,6.7-3.5,16.9-16.2,21.1l-0.7-1.5c10.2-5.2,12-14,12.7-19.7h-7.5v-1.4a31.5,31.5,0,0,1-5.6,3.9l-0.9-1.3c6.6-5.4,9.3-11.2,11.3-18.7L288,114a32.7,32.7,0,0,1-8.1,13.5h23.8c-3.1-3.3-5.2-7.7-6.2-13.4h-7.8v-2.4h9.4C300.4,118.5,303.6,123.7,312.4,127Z"/><path class="a" d="M331.4,143.6c-2.7,1.9-9.8,4.7-14,5.8l-1.3-4.3,6.1-.8V130.7h-5.6v-2h5.6v-4.8h-3.5l-1.7,1.4-0.8-1a32.1,32.1,0,0,0,6.8-14.1l4.1,1.4-0.7,1.5a31.2,31.2,0,0,1,6.1,5.7l-3.1,2.4a41.6,41.6,0,0,0-3.7-6.5,30.7,30.7,0,0,1-5.1,7.5h9.2v2h-3.9V129h5.3v2h-5.3v12.9a47.4,47.4,0,0,0,5.1-1.4Zm-10.1-2.5-3.4.6a53.7,53.7,0,0,0-.7-8.6l1.4-.4A29.8,29.8,0,0,1,321.3,141.1Zm7-8.8,3.3,0.9a29.9,29.9,0,0,1-3.8,8.1l-1.3-.5a47.8,47.8,0,0,0,1.8-8.4h0Zm16.6,15H355v2H330.8v-2h10.5v-3.2h-8.4v-2h8.4v-3h-7.9V127.8h19.4v11.4H345v3h8.5v2H345v3.2h-0.1ZM355,123.4v2H331.7v-2h6.5a58.8,58.8,0,0,0-2.1-6.1l0.8-.5h-4.3v-2h10.3a40.3,40.3,0,0,0-4.9-3.9l0.5-1.3a27.1,27.1,0,0,1,7.5,2.8l-1.5,2.3H354v2h-6.1l2.4,0.8a32.1,32.1,0,0,1-3.7,5.8H355Zm-13.7,6.3H337v2.7h4.3v-2.7Zm0,4.6H337v2.8h4.3v-2.8h0Zm0.4-11.9-2,.9h4.8a34,34,0,0,0,1.8-6.6h-8.8a25,25,0,0,1,4.2,5.8h0Zm3.3,9.9h4.2v-2.7H345v2.7h0Zm0,4.8h4.2v-2.8H345v2.8h0Z"/><path class="a" d="M398.5,127v2H360.3v-2h12.4c-1.1-2.2-2.7-5.2-3.9-7.4l1.2-1a39.9,39.9,0,0,1,7,6.8l-2.3,1.6h7.8a63.6,63.6,0,0,0,2.8-8.4l4.7,1.8a48.2,48.2,0,0,1-5.2,6.6h13.7Zm-3.4-8.7H363.8v-2h15.6c-1.9-1.6-3.9-3.4-6.1-5l0.7-1.5a38.5,38.5,0,0,1,9.3,3.9l-1.9,2.6h13.7v2Zm-28.2,14h25.5v18.4h-4.1v-2.8H370.8v2.9h-4V132.3h0.1Zm4,6.6h17.4v-4.7H370.8v4.7h0.1Zm0,7h17.4v-5H370.8v5h0.1Z"/><path class="a" d="M441.6,144.7l-2.4,4.4a26,26,0,0,1-14.5-10.9v12.6h-3.8v-12c-3.5,5-11.5,9.2-16.8,10.6l-0.6-1.5a32.2,32.2,0,0,0,14.6-10.7H406v-2h14.9v-3.7h3.8v3.8h14.7v2H425.8C430.6,142.2,437,144.1,441.6,144.7Zm-34.5-15.8a75.9,75.9,0,0,0,4.1-6.6,25.3,25.3,0,0,1-5.5,2l-0.9-3.6h2.1a59.9,59.9,0,0,0,2.8-10.5l3.5,1.2a53.7,53.7,0,0,1-4.6,9.2l3.7-.4c0.7-1.5,1.4-3,2-4.5l3,1.5V115h4.1c0.2-1.9.3-3.7,0.4-5.1l3.8,0.7a29.6,29.6,0,0,1-2.4,4.4h5.3v5.2h1.3a54.1,54.1,0,0,0,2.3-9.9l3.6,1a48.9,48.9,0,0,1-4.3,8.8,21.5,21.5,0,0,0,3.7-.4c0.6-1.4,1.1-2.7,1.6-4.1l3.3,1.7a70.4,70.4,0,0,1-7.3,10.9,29.9,29.9,0,0,0,4.4-.7,28.8,28.8,0,0,0-.8-2.8l1.3-.5a29.5,29.5,0,0,1,3.6,6.8l-3.2,1c-0.2-1.1-.3-2.1-0.5-3a31.6,31.6,0,0,1-7.8,3l-0.8-3.6H431a58.5,58.5,0,0,0,3.4-6.4,26.9,26.9,0,0,1-5.1,1.7l-0.6-2.2v9.3h-11l0.2,0.9-3.1.8-0.4-3a44.3,44.3,0,0,1-8.6,3.3l-1-3.8h2.3Zm2-.2,5-.8c-0.2-1-.4-2-0.7-3l1.3-.5a24.4,24.4,0,0,1,2.5,5V117.9A67,67,0,0,1,409.1,128.7Zm11.4-7.3h4.6V117h-4.6v4.4Zm0,7.5h4.6v-5.6h-4.6v5.5h0Z"/><path class="a" d="M11.2,53.4l1.2-1.6a45.9,45.9,0,0,1,9.4,6.8l-3.6,3.8C16,59.2,13.3,56,11.2,53.4Zm5.4,33.9-5.3-2.9a179.4,179.4,0,0,0,9.3-19.3l1.8,0.8C20.8,73.4,18.6,82.5,16.6,87.3ZM12.3,41.1l1.2-1.5a40.6,40.6,0,0,1,9,6.9l-3.7,3.5C16.7,46.9,14.6,43.9,12.3,41.1Zm6.6,47.6,1.3,1.5A41.9,41.9,0,0,0,32.5,79l-4.4-2.3A45.5,45.5,0,0,1,18.9,88.7ZM40.6,42.6H24.4V75.8H40.6V42.6ZM29,52.8V45h7v7.7H29Zm0,10.1V55.1h7v7.7H29Zm0,10.6V65.2h7v8.2H29ZM40,89l4.2-2.7a52.7,52.7,0,0,0-8.7-9.4L34,78.1C35.9,81.3,38.5,86.2,40,89Zm8.7-43.9H44.3v31h4.3v-31ZM45.7,84.8c5.8,1.1,6.4,1,6.4-1.7V39.8h4.8V84.9c0,5.5-5.4,5.6-11.7,1.8Z"/><path class="a" d="M68.9,72.5a41.4,41.4,0,0,1-.3,11.9L64.5,83a30.4,30.4,0,0,0,2.8-10.5h1.5ZM84.2,85.1c-0.9,5.2-6.8,4.8-11.4.4l0.8-1.7c5.1,1.9,6.5,1.7,6.9-1.4,0.2-1.4.3-2.6,0.4-4.7l-1.1.5c-0.8-2.7-1.7-4.9-2.7-7.7l1.3-.6c1,1.3,1.9,2.5,2.7,3.7L81.1,69H71.7v1.6H67.4V42.8H87.9v2.4H79.5v5.3h5.8v2.4H79.5v5.2h5.1L83.8,57c6-4.6,9.3-10,12.3-17.6l5,1.8-0.9,1.7c4,5.4,6.9,7.3,13.6,10l-3,4.8a21.3,21.3,0,0,1-4.5-3.1V56H91V54.4a43.5,43.5,0,0,1-5.9,4.1v2.1H79.5v6.1h6.1C85.2,77.4,84.8,81.8,84.2,85.1ZM70.7,82.3c0.1-3.4-.1-6.3-0.3-9.7l1.5-.3a73.1,73.1,0,0,1,2.3,9.3Zm1.1-31.8h3.5V45.2H71.7v5.3Zm0,7.6h3.5V52.9H71.7v5.2Zm0,8.4h3.5V60.5H71.7v6.1Zm3.6,13.8c-0.4-2.9-1-5.5-1.7-8.4l1.4-.4a45.2,45.2,0,0,1,3.6,7.7Zm17.4,0.6a26.5,26.5,0,0,1-8,9.5l-1.4-1.4c3.5-3.8,6.1-8.6,7.1-16L95.2,74a20.2,20.2,0,0,1-1.4,4.7,30.1,30.1,0,0,1,5.5,4.9l-3.2,2.9A57.8,57.8,0,0,0,92.7,80.9ZM87.3,59.8H97.4v12H87.3v-12Zm3.2,9.6H94V62.3H90.6v7.1ZM92,53.5h13.1A35.6,35.6,0,0,1,99,44.9,36.4,36.4,0,0,1,92,53.5Zm18.1,35.7c-1.1-2.1-3-5.5-4.8-8.1a27.5,27.5,0,0,1-8.1,9.3L95.9,89c3.6-3.8,6.3-8.6,7.5-16l4.7,0.9a24.2,24.2,0,0,1-1.7,5,38.3,38.3,0,0,1,7.5,7.3ZM100,59.8h10.4v12H100v-12Zm3.2,9.5h3.7V62.3h-3.7v7.1Z"/><path class="a" d="M131.2,52.3V89.9h-4.5V59.8a41.4,41.4,0,0,1-6.5,6.9l-1.3-1.5c5.8-7.5,9.3-16.3,11.5-26.4l5.3,1.6A69.9,69.9,0,0,1,131.2,52.3Zm21.9-.4V84.6c0,5-5,8-14.6.6l0.6-1.8c8.2,2.7,9.1,1.9,9.1-.9V51.9h-7.1a57.9,57.9,0,0,1-6.8,10.5l-1.7-1.1c3.8-6.5,5.9-13.1,7-21.8l5.5,1.2a44.2,44.2,0,0,1-2.9,8.8h18.2l1.1-.9,5.4,3.1a41,41,0,0,1-8,8.2l-1.6-1.3a24,24,0,0,0,3-6.7h-7.4Zm-8.2,11.7c-1.9,6.2-5.4,13.6-10.4,19.4l-1.6-1.2A61.8,61.8,0,0,0,139.8,62Zm23.3,16.3-5.4,2.4a146,146,0,0,0-6.6-19.1l1.6-1A82.2,82.2,0,0,1,168.3,79.9Z"/><path class="a" d="M184.4,49.9h9.8V87.6h-4.8V82.7h-9.3v6h-4.8V49.9h6.4A105.5,105.5,0,0,0,183.5,39l5.8,1.2A64.8,64.8,0,0,1,184.4,49.9Zm5,2.4h-9.3v12h9.3v-12Zm0,27.9V66.8h-9.3V80.3h9.3ZM219.6,50c-0.1,18.9-.4,28-1.3,33.2-1.2,7-7.5,9-17.7.3l0.9-1.7c8.7,3.5,11.2,3.8,11.9-.6s1.1-10.3,1.2-28.7H203.2a51.3,51.3,0,0,1-7.1,12.6l-1.6-1.2c3.9-7.6,5.8-17.6,6.7-24.7l5.7,1.1a68.9,68.9,0,0,1-2.7,9.7h15.5ZM206.5,74.7a97.7,97.7,0,0,0-6.2-14l1.6-1.2a46.8,46.8,0,0,1,9.5,12.5Z"/><path class="a" d="M276.6,84l-2.8,5.8c-5.2-.8-16.5-4.3-21.1-15.4-3.1,8.7-11,13.7-24.6,15.8l-0.6-1.8c11.6-2.9,17.2-7.6,19.7-13.9H229.4V72H248a29.4,29.4,0,0,0,.8-5.5l5.4,0.4a25,25,0,0,1-.8,5.1h20.9v2.4H254.9C260.8,82.3,270.6,83.5,276.6,84ZM275,65.5H228.9V63h20.4V57.7h-15V55.3h15V50.1H230.8V47.7h13.4a77.5,77.5,0,0,0-6.8-7.1l1-1.7a53.1,53.1,0,0,1,10.7,6l-2.5,2.8h8.1a35.1,35.1,0,0,0,4.4-9.1l5.4,2.6a37.2,37.2,0,0,1-6.6,6.5H273v2.4H254.1v5.1h15.5v2.4H254.1V63H275v2.4Z"/><path class="a" d="M290.2,72.5c-0.5,7.3-2.3,13.6-6.4,17.6l-1.5-1.2c3-4.9,3.5-9.2,3.5-21.4V58.8h19.9c-0.7-1.9-1.5-3.6-2.3-5.4V57h-4V48.2h-9.1v8.8H286V46h17.4v7.1l1.4-1a21.1,21.1,0,0,1,3.8,4.3V45.9h17.6v11H322V48.1h-9.4v8.7h-3.7l0.5,0.9-2.2,1.1h21.2v2.4h-14v3H326v8.3H290.2Zm14.8-29H284.5V41h20.6v2.4Zm2.8,39.5,0.3,1.8a83.2,83.2,0,0,1-17.6,4.2l-1.3-4.5,4-.2V73.6h4.4v3.8h9.9v2.2h-9.9V84C301.2,83.7,304.6,83.4,307.9,82.9Zm-9.7-16.5h-7.8v0.9c0,1,0,1.9-.1,2.8h7.8V66.5Zm-7.8-5.3v3h7.8v-3h-7.8Zm7.5-5.5L294,57.3a43.1,43.1,0,0,0-2.2-7.1l1.5-.9A23.7,23.7,0,0,1,297.9,55.7Zm4.8,8.5h7.2v-3h-7.2v3Zm0,6h7.2V66.5h-7.2v3.7ZM328,43.5H307.2V41H328v2.4Zm-1.8,44.4a67.9,67.9,0,0,1-11.5.1c-4.4-.4-5.5-1.7-5.5-5V73.7h4.4v5.4a38.2,38.2,0,0,0,8.8-5.2l3.3,3.6c-3.1,1.6-8.6,3-12.1,3.8v0.8c0,1.4.3,2.1,3.6,2.3a62.3,62.3,0,0,0,7.9-.2c2-.3,2.2-1,1.8-6.4h1.8C331.4,85.8,330,87.3,326.2,87.9ZM315.1,49.4a20.8,20.8,0,0,1,4.9,6.2l-3.7,1.7a41,41,0,0,0-2.5-7Zm-0.8,20.8h7.2V66.5h-7.2v3.7Z"/><path class="a" d="M356.4,63.3c-2.1,1.3-4.8,2.8-7.6,4.2V85.3c0,4.7-5.1,6.4-12.6,1.7l0.5-1.9c5.9,1.3,7.4.9,7.4-2.1V69.8c-2.3,1.1-4.5,2-6.4,2.7l-1.9-5.1c2.4-.4,5.4-1.1,8.3-1.9v-11h-7.6V51.9h7.6V39.7h4.7V51.9h6.4v2.4h-6.4V64a64.4,64.4,0,0,0,6.8-2.5Zm20.1-1.7c-2.8.2-8.1,0.3-10.9,0.1-7.1-.4-9.1-1-9.1-7.2V39.7h4.9v9.8A58.5,58.5,0,0,0,376,41.1l4.6,3.8a86.8,86.8,0,0,1-19.3,6.9v1.9c0,2.6.4,3.3,4.9,3.6a84.7,84.7,0,0,0,9.7-.1c3.3-.3,3.7-1.5,3.7-8.3h1.9C384.3,58.8,383.5,61.2,376.5,61.6Zm-19.7,4h25v24H377V85.9H361.5v3.8h-4.8V65.6Zm4.8,8.9H377V68H361.5v6.4Zm0,9H377V76.9H361.5v6.6Z"/><path class="a" d="M413.2,89.4a34.2,34.2,0,0,0-5.4-4.2c-4.1,3-9.7,4.5-16,4.8l-0.5-1.7c5.4-.6,10-2.2,13.2-5a40.4,40.4,0,0,0-4.7-2.1L398,84.3l-3.5-1.9a70.7,70.7,0,0,0,4.3-7.4h-7.4V72.5h8.6c0.7-1.5,1.4-2.9,1.7-3.9h-8.4V60.1h9v-3h-7.9V51.6H391V49.2h3.5V43.7h7.9V39.8H407v3.9h8.3v5.4h3.8v2.4h-3.8v5.5H407v3h9.2v8.6H403.1l3,1-1.4,2.9h15V75h-5.5a16,16,0,0,1-3.5,7.6A43.8,43.8,0,0,1,416,85ZM397.9,66.2h4.4V62.5h-4.4v3.7Zm1-17.1h3.5v-3h-3.5v3Zm3.5,5.5v-3h-3.5v3h3.5Zm-1.5,25c1.9,0.4,3.8.9,5.8,1.6a15.3,15.3,0,0,0,2.8-6.2h-6ZM407,49.2h3.8v-3H407v3Zm0,5.5h3.8v-3H407v3Zm0,11.6h4.7V62.5H407v3.7Zm31.5,18.6-3.8,4.9a32.2,32.2,0,0,1-8.6-9.9,38.4,38.4,0,0,1-9.5,9.8l-1.2-1.4a40,40,0,0,0,8.9-12.2,56.2,56.2,0,0,1-3.3-16.7,34.3,34.3,0,0,1-3.1,5.3l-1.4-1c3.2-6.7,4.5-16.7,5-24.1l5.2,1.1a79.8,79.8,0,0,1-2.5,10.6H437v2.4h-3.7c-0.3,7.7-1.5,15.2-4.8,22A27.1,27.1,0,0,0,438.5,84.8ZM426.2,71.5a64.1,64.1,0,0,0,2.5-17.8h-5.2L423,55.3A42.2,42.2,0,0,0,426.2,71.5Z"/></svg>