<svg xmlns="http://www.w3.org/2000/svg" viewBox="0 0 308.4 80"><defs><style>.a{fill:#fff;}</style></defs><title>brands-q1-land</title><path class="a" d="M25.7,94.6v22.3H22.8V114H7.4v2.9H4.4V94.6h7.7A45.7,45.7,0,0,0,13.3,88L17.1,89a30.3,30.3,0,0,1-3.4,5.6h12ZM22.8,96H7.4v7.1H22.8V96Zm0,8.5H7.4v8.1H22.8v-8.2h0Z" transform="translate(-4.4 -37.2)"/><path class="a" d="M59.3,90.5V92H51.8v2H49.1V92H42.7v1.9H40V92H32.8V90.5H40V88.3h2.6v2.2H49V88.3h2.8v2.2h7.5ZM44.9,100.8h-8v16.1H34.2V94.3H44.9v6.4h0Zm-2.6-5H36.9V97h5.3V95.7Zm0,2.4H36.9v1.2h5.3V98.1h0Zm5-3.8H58v19.6c0,3.1-2.8,4-7,.9l0.2-.6a38.5,38.5,0,0,0-4.1-2.9v5.4H45v-5.4a15.5,15.5,0,0,1-6.8,4.3l-0.5-.9a15.8,15.8,0,0,0,5.8-4.6H39.1v-5.3h6v-1H38.1v-1.3H45v-1.4h2.1v1.4h7.3v1.3H47.2v1h6.3v5.3H47.1v0.3a25.9,25.9,0,0,1,6.2,2.3l-0.8,1.4c2.2,0.5,2.9.3,2.9-.7V100.8H47.3V94.4h0ZM41.1,109h2.3l-1.6-2.5,0.5-.5a12.4,12.4,0,0,1,2.5,2l-1.1,1h1.4v-3H41.1v3Zm6,0h0.8l-0.4-.4a12.3,12.3,0,0,0,1.7-2.6H47v3h0Zm4.3-3H49.5l1.3,0.9a12.3,12.3,0,0,1-2.6,2.2h3.2v-3h0Zm-1.5-9h5.5V95.7H49.9V97Zm0,2.3h5.5V98.1H49.9v1.2Z" transform="translate(-4.4 -37.2)"/><path class="a" d="M85.3,115.8c-3.9-2.4-6.3-6.4-7.5-14.4H70.5v9.7c2.7-.6,5.4-1.2,7.6-1.9l0.4,1.1A56.1,56.1,0,0,1,65,115.7l-1.1-3.4,3.6-.5V91l2.6,0.9a51.2,51.2,0,0,0,14.7-3.6l3.1,2.6a69,69,0,0,1-7.8,1.5c0,2.8.1,5.3,0.4,7.4h9.2v1.7h-9c0.8,5.8,2.5,9,5.3,11s2.3,0.6,2.3-5.2h1.2C92,115.7,89.7,118.5,85.3,115.8ZM77.6,99.8c-0.2-2.1-.4-4.4-0.4-7l-6.8.4v6.6h7.2Z" transform="translate(-4.4 -37.2)"/><path class="a" d="M122.2,112.7l-0.8,3.1a119.1,119.1,0,0,1-12.4.1c-4.8-.3-6.8-1-9-4.5a30.5,30.5,0,0,1-4.5,5.8l-1.8-1.8a28.4,28.4,0,0,0,4.8-4.4v-7H94.2v-1.4h7.1v8.2c1.8,2.6,3.8,2.6,8,2.7A96.5,96.5,0,0,0,122.2,112.7ZM99.4,100.2a64.3,64.3,0,0,0-4.2-4.9l0.6-.9a28.9,28.9,0,0,1,5.6,3.6ZM96.6,89l0.6-.9a25.4,25.4,0,0,1,5.7,3.4l-2,2.3A56,56,0,0,0,96.6,89Zm13.2,7.3H104V94.9h8.5a34.1,34.1,0,0,0,2.3-7l2.9,1.2a41.1,41.1,0,0,1-3.9,5.8h5.7v1.4h-6.8a35.6,35.6,0,0,1-.2,4.6h8.2v1.4h-8.2a15.1,15.1,0,0,1-.4,1.7,36.8,36.8,0,0,1,8.6,5.2l-2.2,2.7a67.1,67.1,0,0,0-6.8-6.5c-1.3,3.3-3.8,5.5-8.1,6.8l-0.5-1c3.8-1.9,5.8-4.3,6.5-8.9h-6.8V101h7c0.1-1.5.1-3.1,0.1-4.8h0Zm-1.6-1.6a50,50,0,0,0-3.3-5.8l0.9-.7a21.5,21.5,0,0,1,4.8,4.8Z" transform="translate(-4.4 -37.2)"/><path class="a" d="M132,95.5V117h-2.6V99.8a23.7,23.7,0,0,1-3.7,4l-0.7-.9a37,37,0,0,0,6.6-15.1l3.1,0.9A40,40,0,0,1,132,95.5Zm12.6-.2V114c0,2.9-2.9,4.6-8.3.4l0.4-1.1c4.7,1.6,5.3,1.1,5.3-.5V95.3h-4.1a33.1,33.1,0,0,1-3.9,6l-1-.6a29.5,29.5,0,0,0,4-12.5l3.1,0.7a25.3,25.3,0,0,1-1.6,5h10.5l0.6-.5,3.1,1.8a23.5,23.5,0,0,1-4.5,4.7l-0.9-.7a13.7,13.7,0,0,0,1.7-3.8h-4.2Zm-4.7,6.7a31.7,31.7,0,0,1-6,11.1l-0.9-.7a35.3,35.3,0,0,0,3.9-11.4Zm13.4,9.3-3.1,1.4a83.5,83.5,0,0,0-3.8-10.9l0.9-.6A47.1,47.1,0,0,1,153.2,111.3Z" transform="translate(-4.4 -37.2)"/><path class="a" d="M164,114.9c-5.5,0-7.6-4.5-7.6-10,0-7.7,4.6-12,12.8-12.8l0.2,1.4c-6.4.8-10.2,4.5-10.2,10.1h0.1a5.8,5.8,0,0,1,5.4-3.6c4.1,0,6.5,3.4,6.5,7S169.4,114.9,164,114.9Zm0.1-12.9c-2.3,0-4.3,2.1-4.3,5.3s1.8,5.8,4.3,5.8,4.1-2,4.1-5.7S166.4,102,164.1,102Z" transform="translate(-4.4 -37.2)"/><path class="a" d="M174.5,103.5c0-7.3,3.3-11.3,7.9-11.3s7.5,4.1,7.5,10.9-2.9,11.5-7.8,11.5S174.5,110.7,174.5,103.5Zm12.2-.2c0-5.3-1.4-9.3-4.5-9.3s-4.5,3.6-4.5,9.5,1.7,9.4,4.4,9.4S186.6,108.9,186.6,103.3Z" transform="translate(-4.4 -37.2)"/><path class="a" d="M221,100.1l-2.1,3.5a14.4,14.4,0,0,1-4-2.9c-0.5,8-.8,11.2-1.3,13.2s-3.7,4-9.5.2l0.4-1.1c5.2,1.4,6.1,1.1,6.5-.9s0.6-4.4.9-9.9h-6.3c-0.6,4.8-2.5,12-11.5,15l-0.5-1.1c7.3-3.7,8.5-10,9-14h-5.3v-1a22.4,22.4,0,0,1-4,2.8l-0.6-.9c4.7-3.8,6.6-8,8-13.3l3.1,1.1a23.2,23.2,0,0,1-5.8,9.6h16.9a18,18,0,0,1-4.4-9.5h-5.5V89.2h6.7C212.5,94,214.7,97.7,221,100.1Z" transform="translate(-4.4 -37.2)"/><path class="a" d="M234.5,111.9a41.5,41.5,0,0,1-10,4.1l-0.9-3.1,4.3-.6v-9.7h-4v-1.4h4V97.9h-2.5l-1.2,1-0.6-.7a22.8,22.8,0,0,0,4.8-10l2.9,1-0.5,1.1a22.2,22.2,0,0,1,4.3,4.1l-2.2,1.7a29.6,29.6,0,0,0-2.6-4.6,21.8,21.8,0,0,1-3.6,5.3h6.5v1.4h-2.8v3.4h3.8v1.4h-3.8v9.2l3.6-1Zm-7.2-1.8-2.4.4a38.2,38.2,0,0,0-.5-6.1l1-.3A21.2,21.2,0,0,1,227.3,110.1Zm5-6.3,2.3,0.6a21.3,21.3,0,0,1-2.7,5.8l-0.9-.4a34,34,0,0,0,1.3-6h0Zm11.8,10.7h7.2v1.4H234.1v-1.4h7.5v-2.3h-6v-1.4h6v-2.1h-5.6v-8h13.8v8.1h-5.5v2.1h6v1.4h-6v2.3h-0.1Zm7.2-17v1.4H234.7V97.5h4.6a41.8,41.8,0,0,0-1.5-4.3l0.6-.4h-3.1V91.4h7.3a28.6,28.6,0,0,0-3.5-2.8l0.4-.9a19.3,19.3,0,0,1,5.3,2l-1.1,1.6h6.8v1.4h-4.3l1.7,0.6a22.8,22.8,0,0,1-2.6,4.1h6Zm-9.7,4.5h-3.1v1.9h3.1V102Zm0,3.3h-3.1v2h3.1v-2h0Zm0.3-8.5-1.4.6h3.4a24.2,24.2,0,0,0,1.3-4.7h-6.3a17.8,17.8,0,0,1,3,4.1h0Zm2.3,7h3v-1.9h-3v1.9h0Zm0,3.4h3v-2h-3v2h0Z" transform="translate(-4.4 -37.2)"/><path class="a" d="M282.2,100.1v1.4H255v-1.4h8.8l-2.8-5.3,0.9-.7a28.4,28.4,0,0,1,5,4.8l-1.6,1.1h5.5a45.2,45.2,0,0,0,2-6l3.3,1.3a34.3,34.3,0,0,1-3.7,4.7h9.7Zm-2.4-6.2H257.5V92.5h11.1c-1.4-1.1-2.8-2.4-4.3-3.6l0.5-1.1a27.4,27.4,0,0,1,6.6,2.8L270,92.5h9.7v1.4Zm-20,10h18.1v13.1h-2.9v-2H262.5V117h-2.8V103.8h0.1Zm2.8,4.7h12.4v-3.3H262.5v3.3h0.1Zm0,5h12.4v-3.6H262.5v3.6h0.1Z" transform="translate(-4.4 -37.2)"/><path class="a" d="M312.8,112.6l-1.7,3.1a18.5,18.5,0,0,1-10.3-7.7v9h-2.7v-8.5c-2.5,3.6-8.2,6.5-11.9,7.5l-0.4-1.1a22.9,22.9,0,0,0,10.4-7.6h-8.6v-1.4h10.6v-2.6h2.7V106h10.5v1.4h-9.7A19.3,19.3,0,0,0,312.8,112.6Zm-24.5-11.2a54,54,0,0,0,2.9-4.7,18,18,0,0,1-3.9,1.4l-0.6-2.6h1.5a42.6,42.6,0,0,0,2-7.5l2.5,0.9a38.2,38.2,0,0,1-3.3,6.5l2.6-.3c0.5-1.1,1-2.1,1.4-3.2l2.1,1.1V91.5h2.9c0.1-1.4.2-2.6,0.3-3.6l2.7,0.5a21,21,0,0,1-1.7,3.1h3.8v3.7h0.9a38.5,38.5,0,0,0,1.6-7l2.6,0.7a34.8,34.8,0,0,1-3.1,6.3l2.6-.3,1.1-2.9,2.3,1.2a50,50,0,0,1-5.2,7.7l3.1-.5a20.5,20.5,0,0,0-.6-2l0.9-.4a21,21,0,0,1,2.6,4.8l-2.3.7c-0.1-.8-0.2-1.5-0.4-2.1a22.5,22.5,0,0,1-5.5,2.1l-0.6-2.6h1.5a41.6,41.6,0,0,0,2.4-4.5,19.1,19.1,0,0,1-3.6,1.2l-0.4-1.6v6.6h-7.8v0.6l-2.2.6-0.3-2.1a31.5,31.5,0,0,1-6.1,2.3l-0.7-2.7h1.6Zm1.4-.1,3.6-.6c-0.1-.7-0.3-1.4-0.5-2.1l0.9-.4a17.3,17.3,0,0,1,1.8,3.6V93.6A47.6,47.6,0,0,1,289.7,101.3Zm8.1-5.2h3.3V92.9h-3.3v3.1Zm0,5.3h3.3v-4h-3.3v3.9h0Z" transform="translate(-4.4 -37.2)"/><path class="a" d="M6.9,47.7l0.8-1.1a32.7,32.7,0,0,1,6.7,4.8l-2.5,2.7C10.3,51.9,8.4,49.6,6.9,47.7Zm3.8,24.1L6.9,69.8a127.5,127.5,0,0,0,6.6-13.7l1.3,0.5A115.5,115.5,0,0,1,10.7,71.9ZM7.7,39l0.9-1.1a28.9,28.9,0,0,1,6.4,4.9l-2.7,2.5C10.8,43.2,9.2,41,7.7,39Zm4.7,33.9,0.9,1A29.8,29.8,0,0,0,22,66l-3.1-1.6A32.4,32.4,0,0,1,12.4,72.9ZM27.7,40.1H16.2V63.7H27.7V40.1Zm-8.3,7.2V41.8h5v5.5h-5Zm0,7.2V49h5v5.5h-5Zm0,7.5V56.1h5V62h-5Zm7.9,11,3-1.9a37.4,37.4,0,0,0-6.2-6.7l-1,.9C24.4,67.6,26.3,71.1,27.3,73.1Zm6.2-31.2H30.4V63.9h3.1V41.9ZM31.4,70.1c4.2,0.8,4.5.7,4.5-1.2V38.1h3.4V70.1c0,3.9-3.8,4-8.3,1.3Z" transform="translate(-4.4 -37.2)"/><path class="a" d="M47.8,61.4a29.4,29.4,0,0,1-.2,8.5l-2.9-1a21.6,21.6,0,0,0,2-7.5h1.1Zm10.9,8.9c-0.7,3.7-4.8,3.4-8.1.3l0.5-1.2c3.7,1.3,4.6,1.2,4.9-1s0.2-1.8.3-3.3l-0.8.4c-0.6-1.9-1.2-3.5-1.9-5.5l0.9-.4,1.9,2.6V58.9H49.9V60H46.8V40.2H61.3v1.7h-6v3.8h4.2v1.7H55.4v3.7H59l-0.6-.8c4.3-3.3,6.6-7.1,8.7-12.5l3.5,1.3-0.6,1.2c2.8,3.8,4.9,5.2,9.7,7.1l-2.2,3.4a15.2,15.2,0,0,1-3.2-2.2v1H63.6V48.4a31,31,0,0,1-4.2,2.9v1.5h-4v4.3h4.3C59.4,64.8,59.2,67.9,58.7,70.3Zm-9.6-2c0.1-2.4,0-4.5-.2-6.9l1-.2a52,52,0,0,1,1.7,6.6Zm0.8-22.6h2.5V41.9H49.9v3.8Zm0,5.4h2.5V47.4H49.9v3.7Zm0,6h2.5V52.8H49.9v4.3Zm2.5,9.8c-0.3-2-.7-3.9-1.2-6l1-.3a32.2,32.2,0,0,1,2.5,5.5Zm12.4,0.4a18.8,18.8,0,0,1-5.7,6.7l-1-1c2.5-2.7,4.3-6.1,5.1-11.4l3.3,0.7a14.4,14.4,0,0,1-1,3.3,21.4,21.4,0,0,1,3.9,3.5l-2.3,2A41.1,41.1,0,0,0,64.8,67.3ZM61,52.3h7.2v8.5H61V52.3Zm2.3,6.8h2.4V54.1H63.3v5.1Zm1-11.3h9.3a25.3,25.3,0,0,1-4.3-6.2A25.9,25.9,0,0,1,64.3,47.9ZM77.2,73.2c-0.8-1.5-2.2-3.9-3.4-5.7A19.6,19.6,0,0,1,68,74.1l-1-1a20.5,20.5,0,0,0,5.3-11.4l3.3,0.6a17.2,17.2,0,0,1-1.2,3.6,27.3,27.3,0,0,1,5.3,5.2ZM70,52.3h7.4v8.5H70V52.3Zm2.3,6.8h2.6v-5H72.3v5Z" transform="translate(-4.4 -37.2)"/><path class="a" d="M92.1,47V73.7H88.9V52.3a29.5,29.5,0,0,1-4.6,4.9l-0.9-1c4.2-5.3,6.6-11.6,8.2-18.8l3.8,1.1A49.7,49.7,0,0,1,92.1,47Zm15.6-.3V69.9c0,3.6-3.6,5.7-10.4.5l0.5-1.3c5.9,1.9,6.5,1.4,6.5-.6V46.7h-5a41.1,41.1,0,0,1-4.8,7.5l-1.2-.8a38,38,0,0,0,5-15.5l3.9,0.8a31.4,31.4,0,0,1-2,6.3h13l0.8-.6,3.8,2.2a29.1,29.1,0,0,1-5.7,5.8l-1.1-.9a17.1,17.1,0,0,0,2.1-4.7h-5.3ZM101.9,55a39.3,39.3,0,0,1-7.4,13.8l-1.1-.8a43.9,43.9,0,0,0,4.9-14.1Zm16.6,11.6-3.8,1.7A103.8,103.8,0,0,0,110,54.7l1.2-.7A58.5,58.5,0,0,1,118.5,66.6Z" transform="translate(-4.4 -37.2)"/><path class="a" d="M130,45.3h7V72.1h-3.4V68.6H127v4.2h-3.4V45.3h4.6a75,75,0,0,0,1.2-7.7l4.2,0.9A46.1,46.1,0,0,1,130,45.3Zm3.6,1.7H127v8.5h6.6V47Zm0,19.9V57.2H127v9.6h6.6ZM155,45.4c-0.1,13.5-.3,19.9-0.9,23.6s-5.3,6.4-12.6.2l0.7-1.2c6.2,2.5,7.9,2.7,8.4-.4s0.8-7.4.8-20.4h-8.1a36.4,36.4,0,0,1-5.1,9l-1.1-.8c2.8-5.4,4.1-12.5,4.7-17.5l4,0.8a49,49,0,0,1-1.9,6.9h11Zm-9.4,17.5a69.5,69.5,0,0,0-4.4-9.9l1.1-.9a33.3,33.3,0,0,1,6.8,8.9Z" transform="translate(-4.4 -37.2)"/><path class="a" d="M195.5,69.5l-2,4.2c-3.7-.6-11.7-3-15-11-2.2,6.2-7.8,9.7-17.5,11.2l-0.4-1.3c8.3-2.1,12.2-5.4,14-9.9H161.9V61h13.2a20.9,20.9,0,0,0,.6-3.9l3.8,0.3A17.8,17.8,0,0,1,179,61h14.9v1.7H180.1C184.3,68.3,191.3,69.1,195.5,69.5Zm-1.2-13.2H161.6V54.6h14.5V50.8H165.4V49.1h10.7V45.4H162.9V43.7h9.5a55.1,55.1,0,0,0-4.8-5l0.7-1.2a37.8,37.8,0,0,1,7.6,4.2l-1.8,2H180a24.9,24.9,0,0,0,3.1-6.5l3.8,1.8a26.4,26.4,0,0,1-4.7,4.6H193v1.7H179.5v3.7h11v1.7h-11v3.8h14.8v1.7Z" transform="translate(-4.4 -37.2)"/><path class="a" d="M205.2,61.3c-0.4,5.2-1.6,9.7-4.6,12.5l-1.1-.9c2.2-3.5,2.5-6.5,2.5-15.2V51.6h14.1c-0.5-1.4-1.1-2.6-1.6-3.8v2.5h-2.8V44.1h-6.5v6.3h-3V42.5h12.4v5.1l1-.7a15,15,0,0,1,2.7,3V42.4h12.5v7.9h-3V44h-6.7v6.2h-2.7l0.4,0.6-1.5.8h15v1.7h-10v2.1h8.3v5.9H205.2Zm10.5-20.6H201.1V39h14.6v1.7Zm2,28.1,0.2,1.3a59.2,59.2,0,0,1-12.5,3l-0.9-3.2h2.8V62.1h3.2v2.7h7v1.5h-7v3.1Zm-6.9-11.7h-5.5v0.7c0,0.7,0,1.3,0,2h5.6V57.1Zm-5.5-3.7v2.1h5.5V53.3h-5.5Zm5.3-3.9-2.7,1.1a30.7,30.7,0,0,0-1.6-5.1l1-.6A16.8,16.8,0,0,1,210.6,49.4Zm3.4,6h5.1V53.3H214v2.1Zm0,4.3h5.1V57.1H214v2.7Zm18-19H217.3V39h14.8v1.7Zm-1.3,31.6a48.3,48.3,0,0,1-8.2.1c-3.2-.3-3.9-1.2-3.9-3.5V62.2h3.1v3.8a27.2,27.2,0,0,0,6.2-3.7l2.3,2.6a42.1,42.1,0,0,1-8.6,2.7v0.6c0,1,.2,1.5,2.5,1.6a44.3,44.3,0,0,0,5.6-.1c1.4-.2,1.6-0.7,1.3-4.6h1.3C234.5,70.8,233.5,71.8,230.8,72.3Zm-7.9-27.4a14.8,14.8,0,0,1,3.5,4.4l-2.6,1.2a29.2,29.2,0,0,0-1.8-5Zm-0.5,14.8h5.1V57.1h-5.1v2.7Z" transform="translate(-4.4 -37.2)"/><path class="a" d="M252.2,54.8c-1.5.9-3.4,2-5.4,3V70.4c0,3.3-3.6,4.6-8.9,1.2l0.4-1.3c4.2,0.9,5.2.6,5.2-1.5V59.4L239,61.3l-1.4-3.6,5.9-1.4V48.4h-5.4V46.7h5.4V38h3.3v8.7h4.5v1.7h-4.5v6.9a45.8,45.8,0,0,0,4.8-1.8Zm14.3-1.2c-2,.1-5.7.2-7.7,0.1-5.1-.3-6.5-0.7-6.5-5.1V38h3.5v7A41.6,41.6,0,0,0,266.2,39l3.3,2.7a61.7,61.7,0,0,1-13.7,4.9V48c0,1.8.3,2.3,3.5,2.6a60.2,60.2,0,0,0,6.9-.1c2.3-.2,2.7-1.1,2.6-5.9h1.4C272.1,51.6,271.5,53.3,266.5,53.6Zm-14,2.8h17.7V73.5h-3.4V70.9h-11v2.7h-3.4V56.4Zm3.4,6.3h11V58.1h-11v4.6Zm0,6.4h11V64.4h-11v4.7Z" transform="translate(-4.4 -37.2)"/><path class="a" d="M292.6,73.4a24.3,24.3,0,0,0-3.8-3c-2.9,2.1-6.9,3.2-11.4,3.4l-0.4-1.2c3.8-.4,7.1-1.6,9.4-3.5l-3.3-1.5-1.3,2.1-2.5-1.3a50.3,50.3,0,0,0,3.1-5.3h-5.2V61.4h6.1c0.5-1,1-2,1.2-2.8h-6V52.5h6.4V50.4h-5.6V46.5h-2.5V44.7h2.5V40.9h5.6V38.1h3.3v2.8h5.9v3.8h2.7v1.7h-2.7v3.9h-5.9v2.2h6.5v6.1h-9.3l2.2,0.7-1,2h10.7v1.7h-3.9a11.4,11.4,0,0,1-2.5,5.4,31.2,31.2,0,0,1,3.8,1.7ZM281.8,56.9h3.2V54.2h-3.2v2.6Zm0.7-12.1h2.5V42.6h-2.5v2.1Zm2.5,3.9V46.5h-2.5v2.2h2.5Zm-1.1,17.7,4.1,1.1a10.9,10.9,0,0,0,2-4.4h-4.2Zm4.4-21.6H291V42.6h-2.7v2.1Zm0,3.9H291V46.5h-2.7v2.2Zm0,8.2h3.3V54.2h-3.3v2.6Zm22.4,13.2-2.7,3.5a22.9,22.9,0,0,1-6.1-7,27.3,27.3,0,0,1-6.7,7l-0.8-1a28.5,28.5,0,0,0,6.4-8.7A39.9,39.9,0,0,1,298.3,52a24.4,24.4,0,0,1-2.2,3.7l-1-.7c2.3-4.7,3.2-11.9,3.6-17.1l3.7,0.8a56.7,56.7,0,0,1-1.8,7.5h9V48h-2.7a38.7,38.7,0,0,1-3.4,15.7A19.2,19.2,0,0,0,310.6,70.1Zm-8.8-9.5A45.6,45.6,0,0,0,303.7,48H300l-0.4,1.1A30,30,0,0,0,301.8,60.6Z" transform="translate(-4.4 -37.2)"/></svg>