<svg xmlns="http://www.w3.org/2000/svg" viewBox="0 0 540.2 77.2"><defs><style>.a{fill:#bd1f87;}</style></defs><title>brands-info-text-port</title><path class="a" d="M3.7,6.7c0.5,3.1.5,8.3-.5,10.4L0.1,15.9A18.8,18.8,0,0,0,2.5,6.7H3.7Zm1.5-6h3V33.5h-3V0.7Zm27.1,29-2.6,3.9c-3.2-2-7.7-6.2-9.2-15h0c-1.1,7-4.5,11.7-11.1,15.1L8.7,32.6c5.3-3.8,7.7-7.8,8.5-14h-7V17h7.2c0.1-1.5.2-3.1,0.2-5V8.7H12.1V7.1h5.5V0.5h3.3V7h7.4v9.9h3.4v1.7H21.8A16.7,16.7,0,0,0,32.3,29.7ZM10.1,14.8A70.8,70.8,0,0,0,8.7,6.9l1.1-.4A25,25,0,0,1,13.1,14Zm10.6,2.3h4.5V8.7H20.8v4.4c0,1.3,0,2.7-.1,3.9h0Z"/><path class="a" d="M47.8,12.3A47.8,47.8,0,0,1,38,17.2l-1.6-3.3,2.9-.6V3.3L42.2,4A19.7,19.7,0,0,0,48.3.4L51,3a27.3,27.3,0,0,1-8.5,2.5v7.1l4.9-1.7L46.1,7.3l1.1-.7a25.4,25.4,0,0,1,4.6,7.2l-3.2,1.5A25.4,25.4,0,0,0,47.8,12.3Zm-7.6,5.3h23V33.3h-3V31.4h-17v1.9h-3V17.7h0Zm3,5.8h7V19.3h-7v4.2h0Zm0,1.6v4.7h7V25.1h-7ZM64.8,2.8c-0.1,6.4-.4,9.1-0.8,11.1s-3.4,3.7-7.7-.1l0.5-1.2c3.7,1.2,4,1,4.3-.7a42.1,42.1,0,0,0,.5-7.5H58.3c-0.6,6.5-3.1,10.8-8.7,13.1l-0.7-1.1c4.4-2.7,5.8-5.9,6.1-12H51.8V2.8h13ZM53.1,23.5h7V19.3h-7v4.2Zm0,6.3h7V25.1h-7v4.7Z"/><path class="a" d="M87.8,5v6.6a54.5,54.5,0,0,1,11.9,7.6l-2.8,3.4a76.8,76.8,0,0,0-9.1-9.2V33.5H84.4V5H72.3V3h30.4V4.9H87.8Z"/><path class="a" d="M118.4,27.6l3.2,2.1c-2.7,1.6-8.9,3.6-14.2,4.3L107,32.8A34.3,34.3,0,0,0,118.4,27.6Zm-9.2-12.1-1.9-2.6a48.2,48.2,0,0,0,7.6-5.8l0.9,0.8A40.3,40.3,0,0,1,109.2,15.5Zm4.9-9.1a69.6,69.6,0,0,0-5.8-4l0.4-1.2a26,26,0,0,1,7.2,2.4Zm-2.5,8h22V27.3h-22V14.4Zm3.1,3.8h15.7V16H114.7v2.2Zm0,3.6h15.7V19.7H114.7v2.1Zm0,3.9h15.7V23.3H114.7v2.4Zm2.1-16.2L116,8.6A19.1,19.1,0,0,0,120.2.2l3,0.8a18.4,18.4,0,0,1-.8,2.1H133l0.6-.5,3.1,1.7a16.8,16.8,0,0,1-5.1,4.8l-0.9-.8a16.1,16.1,0,0,0,2.1-3.8h-4.6a17.5,17.5,0,0,1-.8,2.5c3,3.6,6.8,4,10.4,4.2L136,14.6a13.2,13.2,0,0,1-9.6-6.3c-2.3,3.5-6.3,5.3-11,5.7L115,12.8c5.5-1.3,8.3-4,9.4-8.2h-3.1A17.5,17.5,0,0,1,116.8,9.5ZM124,27.8a56.7,56.7,0,0,1,13.3,2.9l-1.7,3.1A97.5,97.5,0,0,0,123.7,29Z"/><path class="a" d="M151.9,17.7V33.2h-3.1v-13a29,29,0,0,1-5.9,8.4l-0.9-.9A35.7,35.7,0,0,0,148.3,14h-5.2V12.5h5.7V0.7h3.1V12.5h5V14h-5v1.6a26.6,26.6,0,0,1,5.5,4.7l-2.5,2.2A54.2,54.2,0,0,0,151.9,17.7Zm-6.8-6.4A54.8,54.8,0,0,0,143.3,4l1-.5a26.2,26.2,0,0,1,3.7,6.9Zm8.4,0-1-.6a34.5,34.5,0,0,0,2.1-7.4l3,1.3A31.2,31.2,0,0,1,153.5,11.3Zm16.3,10.6V33.3h-3.3V22.7c-3.9,1-7.9,1.8-11.3,2.5l-0.4-1.5c3.6-.6,7.7-1.6,11.7-2.5V0.7h3.3V20.3l3.4-.9,0.4,1.5Zm-12.3-8.6,0.8-.8a25,25,0,0,1,6.1,5.5l-2.5,2.1A58.5,58.5,0,0,0,157.5,13.3Zm5-1.8a48.2,48.2,0,0,0-4-7.1l0.9-.8a26,26,0,0,1,5.8,5.9Z"/><path class="a" d="M180,26.1h4a97.8,97.8,0,0,1-3.8,9.6h-2A96,96,0,0,0,180,26.1Z"/><path class="a" d="M196.6,21.5a25.4,25.4,0,0,1-6.1,9.5l-0.9-.8a31.5,31.5,0,0,0,4-9.6Zm11-14H190V5.9h8.9a60.5,60.5,0,0,0-4.1-4.6l0.7-1.1A28.3,28.3,0,0,1,201.7,4L200,5.9h7.6V7.5Zm-6.9,11.1V29.8c0,3.4-1.9,5.2-7.9,1.7l0.5-1.2c4.2,0.8,4.4.3,4.4-1.3V18.6h-5.1V10.2h12.7v8.4h-4.6ZM195.5,17h6.8V11.8h-6.8V17Zm8.1,12a64.1,64.1,0,0,0-2.3-8.1l1.1-.6a36.1,36.1,0,0,1,4.2,7.3Zm9.1-16.4c-0.5,11.4-2.5,16.7-9,21.2l-0.8-1c5-4.6,6.3-9.8,6.7-20.2h-3.5V11h3.5c0.1-3,.1-6.4.1-10.4h3.1c0,3.9,0,7.4-.1,10.4h8.2v1.6h-8.2Zm4.9,20.3c-4.1,0-4.9-.7-4.9-3.4V15.1h2.9V27.8c0,1.7,0,2.2,1.9,2.2s1.8-.6,1.6-6.9h1.3C222.7,31.5,221.7,32.9,217.6,32.9ZM217.3,9.8A59.6,59.6,0,0,0,214.4,3l1-.7A22.5,22.5,0,0,1,220,8.2Z"/><path class="a" d="M238.6,7.8a35.1,35.1,0,0,1-2.4,4.4h16.2V30c0,3.8-3.9,4.5-9.6,1.2l0.4-1.2c5.2,1.1,6,.7,6-1.1V25.1H236.3v8.4H233v-17a28.3,28.3,0,0,1-7.3,6.1L225,21.5A34.2,34.2,0,0,0,235,7.9h-9v-2h9.7A45.2,45.2,0,0,0,237.3.2l3.5,0.7a43.8,43.8,0,0,1-1.6,5h16.9V7.8H238.6Zm-2.2,10h12.8V14H236.3v3.9h0.1Zm0,5.6h12.8v-4H236.3v4h0.1Z"/><path class="a" d="M267.8,14.3v19h-2.9V18a28.8,28.8,0,0,1-3.5,7.9l-1-.8A60.2,60.2,0,0,0,264.5,10h-3.3V8.5h3.7V0.8h2.9V8.4h2.4V10h-2.4v2.1a22,22,0,0,1,3.6,4.6L269.2,18C268.8,16.9,268.3,15.5,267.8,14.3Zm15.5,6.1a29,29,0,0,0,1.2,4.2,27.6,27.6,0,0,0,2.6-3.7l2.6,1.5a19.1,19.1,0,0,1-4,4.8,5.9,5.9,0,0,0,2.3,2.3c1.4,0.6,1.9.6,2.4-3.8h1.2c1.1,6-.6,8-3.5,7a8.9,8.9,0,0,1-4.7-3.9,27.5,27.5,0,0,1-9.6,4l-0.5-1.1a25,25,0,0,0,9-5.1,30.7,30.7,0,0,1-1.9-6.5h-4c-0.1.5-.1,1-0.2,1.4a26.4,26.4,0,0,1,4.9,3.6L279,27.6a47.7,47.7,0,0,0-3.1-4.3,14.4,14.4,0,0,1-6.7,10.1l-0.7-1c2.4-2.1,4.4-5.6,5-12.1h-3.6V18.8h3.7V16h3v2.8h3.6A125,125,0,0,1,279,.6h2.9A96.6,96.6,0,0,0,283,18.7h3.6c-0.4-.9-1.1-2.3-1.7-3.4l-1.2.3-0.8-2.5h1.4a29.8,29.8,0,0,0,2.3-4.3,17.6,17.6,0,0,1-3.4,1.2l-0.7-2.7h1.3A41.4,41.4,0,0,0,285.3.9l2.8,0.8a50.3,50.3,0,0,1-2.9,5.6h2.1l0.9-2.4,2.6,1.2a32.8,32.8,0,0,1-5.1,7l3.2-.5L288.4,11l0.9-.4a15.7,15.7,0,0,1,2.7,4.7l-2.2.7a14.4,14.4,0,0,0-.5-2.4l-3.1,1.3a18.3,18.3,0,0,1,2.8,3l-1.3.9h4.5v1.6h-8.9Zm-11.2-6.9a33.8,33.8,0,0,0,2.1-4l-3,1L270.6,8h1.2a45.2,45.2,0,0,0,1.7-7l2.8,0.8A48.1,48.1,0,0,1,273.1,8H275c0.4-.9.7-1.8,1-2.7l2.5,1.1a40.3,40.3,0,0,1-4.8,7.1l2.8-.4L276,11.4l0.9-.4a14.9,14.9,0,0,1,2.4,4.7l-2.1.7-0.4-2.1a20.1,20.1,0,0,1-5.3,1.9l-0.8-2.5h1.6Z"/><path class="a" d="M326.1,12.6l-2.6-1v7.9H300V11.7l-3.8,1.5L295.7,12c5.8-2.4,12.7-8.1,15.5-11.9l3.3,1.7-0.9.8a36.7,36.7,0,0,0,14.3,6.7Zm-3.3-1.4a36.7,36.7,0,0,1-5.7-3.5V9.2H306.5v-1a47.2,47.2,0,0,1-5.6,3.1h21.9ZM302,21.7h19.5V33.4h-3V31.7H305.1v1.6h-3V21.7H302Zm1.9-8.4,0.5-.5h-1.5v5.1h3.7C305.8,16.5,304.7,14.4,303.9,13.3Zm1.1,9.9v2.5h13.4V23.2H305Zm13.4,6.9V27.4H305.1v2.8h13.3Zm-8.2-17.3h-5.1a23.9,23.9,0,0,1,4,3.8l-1.8,1.3h2.9V12.8Zm-2.8-5.2h9.7a34.6,34.6,0,0,1-4.5-4.1A44.8,44.8,0,0,1,307.4,7.6Zm5.9,5.2v5.1h1.6l-0.5-.5a33.6,33.6,0,0,0,2.5-4.6h-3.6Zm7.2,0h-2.9l2.2,1.3a31.6,31.6,0,0,1-4.1,3.8h4.8V12.8Z"/><path class="a" d="M338.8,14.9V33.5h-3.2v-15a29,29,0,0,1-3.8,3.2l-0.8-1a38.1,38.1,0,0,0,8.3-13.3l3.1,1.5A31.6,31.6,0,0,1,338.8,14.9Zm-6.6-3.3-0.8-1A31,31,0,0,0,338,.2l3.1,1.6A31.6,31.6,0,0,1,332.2,11.6Zm30.5,8.8V22h-5.4v8.4c0,3.3-3.8,4.3-9.2.6l0.5-1.2c4.7,1.2,5.5.8,5.5-.7V22h-14V20.4h14V17.3H340.8V15.7h21.1v1.6h-4.5v3.1h5.3Zm-4-7H343.9V2.2h14.8V13.4h0Zm-8.8,14.4L347,29.6a51,51,0,0,0-3-6.2l1-.8a25.1,25.1,0,0,1,4.8,5.2h0.1Zm5.8-24H347V7.1h8.6V3.8h0.1Zm0,4.8H347v3.2h8.6V8.6h0.1Z"/><path class="a" d="M385.8,26.1l0.3,1.2a89,89,0,0,1-17.9,4.3l-1-3.6,7.7-.4V21.7h-6.6V20.1h6.6V15.5h3.3v4.6h6.7v1.6h-6.7v5.6Zm0.8-11.4-3,1.8a23,23,0,0,0-1.5-3.2,123.8,123.8,0,0,1-13.6,2.8l-1-3.6h3.9a48.4,48.4,0,0,0,2.7-7.8h-6.5V3h18.5V4.6h-7.9a57.7,57.7,0,0,1-5.1,7.7l8.3-.5c-0.7-1.4-1.6-2.8-2.3-4l1-.8A29.4,29.4,0,0,1,386.6,14.7Zm9.7-13.9V29.4c0,4.5-3.7,5.7-9.6,1.7l0.4-1.2c4.7,1.1,6,1.1,6-1.1V0.7h3.2Zm-6.2,24.9h-3V4.4h3V25.7Z"/><path class="a" d="M419.4,4.6V9.4h11.9V30.1c0,3-3.4,4.7-8.6.8l0.4-1.2c4.6,1.2,5.1.7,5.1-.8V25.3l-1.9,1.5a25.4,25.4,0,0,1-1.8-7.3,17.3,17.3,0,0,1-4.6,7.5l-0.5-.5v6.1h-3.3V25.2l-1.5,1.3a23.8,23.8,0,0,1-1.8-7.2,16.4,16.4,0,0,1-4.4,7.7l-0.5-.6v7.2h-3.1V9.4h11.5V4.6H402.4V2.8h30.9V4.6H419.4Zm-3.3,18.7V11.1h-8.4V25.6A19.3,19.3,0,0,0,411,15.4h-2.6V13.9h4.9a15,15,0,0,0,2.9,9.4h-0.1Zm3.3-12.2V25.4a21.2,21.2,0,0,0,3.4-9.9h-2.7V14H425a15.3,15.3,0,0,0,3.1,9.6V11.1h-8.7Z"/><path class="a" d="M447,1.4a55.4,55.4,0,0,1-2.4,7.9V33.4h-3V15a31.5,31.5,0,0,1-3.8,4.6l-0.9-.8c3.5-5.3,5.3-10.5,6.6-18.1ZM467.9,3V33.4h-3.2V30.9h-14v2.5h-3.1V3h20.3Zm-3.2,1.6h-14V29.3h13.9V4.6h0.1Zm-8.5,7.5h-4.4V10.5h4.4V5.9h3v4.6h4.6v1.6h-4.6v4.7h3.7V26H452.5V16.9h3.6V12.1h0.1Zm-0.8,6.3v6h4.7v-6h-4.7Z"/><path class="a" d="M498.8,2.6V28.9c0,5-3.8,6-9.7,1.4l0.5-1.2c5.4,1.7,5.9.8,5.9-1.4V20H482.4c-0.5,7.1-2.3,10.2-7.1,13.7l-0.8-1c5.2-5.4,4.8-12.6,4.8-20.1V2.6h19.5Zm-3.2,15.8V12.1h-13V13c0,2,0,3.8-.1,5.4h13.1Zm-13-14.2v6.3h13V4.2h-13Z"/><path class="a" d="M515.8,9.5V33.4h-3V15a24.9,24.9,0,0,1-3.9,4.4l-0.8-.9c3.6-4.8,5.6-10.5,6.9-18l3.5,0.8A43.9,43.9,0,0,1,515.8,9.5Zm1.7,7.6-0.9-.9A28.6,28.6,0,0,0,522,3.3l3.3,1A25.6,25.6,0,0,1,517.5,17.1Zm2.3-1.8h15.8a119.3,119.3,0,0,1-1,14.2c-0.6,3.2-3.7,5.3-9.3.6l0.5-1.2c4.8,1.6,5.4,1.3,5.7-.7a87.1,87.1,0,0,0,.6-11.3h-4.9c-0.7,9.3-3.8,13.3-9.7,16.6l-0.8-1c4.6-3.7,6.8-7.4,7.2-15.6h-4.1V15.2h0Zm20.4-2-2.6,3.2c-2.8-2.3-6-5.8-7.1-12.8h-4.7V2.1h6c0.9,6.3,4.5,8.9,8.4,11.1h0Z"/><path class="a" d="M207.4,49.8h6.4V74.5h-3.1V71.3h-6.1v3.9h-3.1V49.8h4.2a69,69,0,0,0,1.1-7.1l3.8,0.8A42.3,42.3,0,0,1,207.4,49.8Zm3.3,1.6h-6.1v7.8h6.1V51.4Zm0,18.3V60.8h-6.1v8.8h6.1Zm19.7-19.8c-0.1,12.4-.3,18.3-0.8,21.7s-4.9,5.9-11.6.2l0.6-1.2c5.7,2.3,7.3,2.5,7.7-.4s0.7-6.8.8-18.8h-7.4a33.5,33.5,0,0,1-4.7,8.2l-1-.8c2.5-5,3.8-11.5,4.4-16.1l3.7,0.7a45.1,45.1,0,0,1-1.8,6.3h10.1v0.2ZM221.8,66a63.9,63.9,0,0,0-4-9.1l1-.8a30.6,30.6,0,0,1,6.2,8.1Z"/><path class="a" d="M267.6,72.1l-1.8,3.8c-3.4-.5-10.8-2.8-13.8-10.1-2.1,5.7-7.2,9-16.1,10.3l-0.3-1.2c7.6-1.9,11.3-5,12.9-9.1H236.8V64.3H249a19.3,19.3,0,0,0,.5-3.6L253,61a16.3,16.3,0,0,1-.5,3.3h13.7v1.6H253.5C257.3,71,263.7,71.8,267.6,72.1Zm-1-12.1H236.4V58.4h13.3V54.9h-9.8V53.3h9.8V50h-12V48.4h8.8a50.8,50.8,0,0,0-4.4-4.6l0.7-1.1a34.7,34.7,0,0,1,7,3.9l-1.7,1.8h5.3a22.9,22.9,0,0,0,2.9-5.9l3.5,1.7a24.3,24.3,0,0,1-4.3,4.2h9.9V50H252.9v3.4h10.2V55H252.9v3.5h13.7v1.6h0Z"/><path class="a" d="M302.5,69.8L301,73.9a81.2,81.2,0,0,1-10.5.3c-7.5-.2-10.5-3.4-12.1-7s-1.7,1.6-3.7,7.9L271,73.2c4.3-6.8,5.5-13.1,8.2-7.7l0.5,0.9c5-3.4,10.9-8.8,13.7-14H272.9v-2h20.6l1.5-1,3.9,2.2a46,46,0,0,1-18.4,16c1.4,1.8,3.8,3.3,10.2,3.3A74.8,74.8,0,0,0,302.5,69.8Zm-23-26.2,0.7-1.2A38.2,38.2,0,0,1,289,47l-2.6,3.2A91.2,91.2,0,0,0,279.5,43.6Z"/><path class="a" d="M314.9,58.7a72.5,72.5,0,0,1-6.1,13.8l-3-2.2a109.6,109.6,0,0,0,7.9-12.2Zm-3.4-6.1a67.7,67.7,0,0,0-4.5-7l0.9-1a26.9,26.9,0,0,1,6.3,5.9Zm27.1,18.7-2.2,3.3a27.5,27.5,0,0,1-9.1-10V75.7h-3.1V65.4a27.2,27.2,0,0,1-11.7,9.2l-0.6-1.1c4.7-2.8,8.4-6.4,10.4-10.4h-5.9v-11h7.8v-3h-9.3V47.5h9.3V43.1h3.1v4.4h10v1.6h-10v3h8v11H328A27.6,27.6,0,0,0,338.6,71.3ZM319.3,56.7h4.8v-3h-4.8v3Zm0,4.8h4.8V58.3h-4.8v3.3h0Zm8-4.8h5.1v-3h-5.1v3Zm0,4.8h5.1V58.3h-5.1v3.3h0Z"/><path class="a" d="M352.6,64v8.6c0,3.1-3.5,4.3-7.9.7l0.4-1.1c3,1,4.4,1,4.4-.6V62.3h-3c-0.5,6.1-2,11.3-4,13.9l-1.1-.7c1.9-5,2.2-9.6,2.2-18.5V44.4h9V62.6a21.2,21.2,0,0,0,8-6.5h-0.5V52.4a26.5,26.5,0,0,1-5.4,4.1L353.3,54a30.6,30.6,0,0,0,6.9-3.2V46h-6.4V44.4H363V55.2l1.4,0.8-0.5.7a19.6,19.6,0,0,0,10,4.1l-1.5,3.1a18.6,18.6,0,0,1-9.4-6.4A25.3,25.3,0,0,1,352.6,64Zm-3-10h-2.9v4.2a20.9,20.9,0,0,1-.1,2.5h3V54Zm0-7.9h-2.9v6.4h2.9V46h0Zm20.2,20.4,2.6,1.9c-3.8,4.7-12.3,7-19.2,7.6l-0.3-1.2c6.8-1.1,13.6-4.2,16.9-8.4h0Zm-4.7-4.6a22.7,22.7,0,0,1-10.8,5.2l-0.5-1.2a21.1,21.1,0,0,0,8.9-5.7Zm-10.8,9.4-0.4-1.2c5.4-1.4,9.7-3.9,12.3-7l2.5,1.9c-2.8,3-9.1,5.5-14.3,6.3h-0.1ZM358.7,50l-2.1,1.5a25.5,25.5,0,0,0-2.5-4.1l0.9-.8a12.1,12.1,0,0,1,3.8,3.4h-0.1Zm5.7,5.2-1.2-2.5a27.4,27.4,0,0,0,5.9-2.1V46h-5.5V44.4h8.5V57.3h-2.9v-5a22.3,22.3,0,0,1-4.6,2.9h-0.2Zm3.7-5.8-1.9,1.8a33.4,33.4,0,0,0-2.8-3.8l0.7-.8a13.3,13.3,0,0,1,4.2,2.8h-0.2Z"/><path class="a" d="M397.6,62.8v9.4c0,3.1-2.2,5.3-8.6,1.6l0.4-1.2c4.4,1.1,5,.8,5-1.1V62.8h-7.8V51h6.5a44.2,44.2,0,0,0,1.3-4.6H383.9v8.8c0,12.7-2.4,17.3-5.8,20.8l-1-.8c2.3-3.9,3.4-7.1,3.4-20.1V44.9h27.7v1.6h-10a42.6,42.6,0,0,1-3.4,4.6H405V62.8h-7.4Zm-6,3.6a26.2,26.2,0,0,1-9.8,8.5l-0.7-1a26,26,0,0,0,7.3-9.1Zm-2-10.4h12.2V52.6H389.7V56h-0.1Zm0,5.2h12.2V57.6H389.7v3.6h-0.1Zm19.5,10.9-2.8,2.5a73.3,73.3,0,0,0-7-8.7l0.7-1.1A37.6,37.6,0,0,1,409.1,72.1Z"/><path class="a" d="M413.3,60.4l-0.7-1.1c2.9-2.1,6.1-5.3,7.3-12l3.5,0.9a24.3,24.3,0,0,1-1.1,3,7.8,7.8,0,0,0,4.3,3.6V46.1H415V44.5h24l0.7-.8,3.5,1.7a24.8,24.8,0,0,1-4.8,4.7l-1-.8a13.2,13.2,0,0,0,1.5-3.2h-9.2v4h7.7v1.6h-7.7v3.8a75.7,75.7,0,0,0,14.4-.4l-1,3.2a64.9,64.9,0,0,1-14.5-.5,9.3,9.3,0,0,1-7-5A18.1,18.1,0,0,1,413.3,60.4Zm21.7,8a39.5,39.5,0,0,1,8.1,5L440.6,76a32.8,32.8,0,0,0-3-3.4,201.6,201.6,0,0,1-22.2,2.3l-0.7-3.2h11.9V68h-9V60.8h9V58.5h3.1v2.2h9.5v7.2h-9.5v3.7l6.5-.4-1.9-1.6Zm-8.4-2v-4h-6.1v4h6.1Zm3.1-4v4h6.4v-4h-6.4Z"/><path class="a" d="M475.8,50.3V75.7h-3.3V72.4H454.9v3.4h-3.3V50.3h8.8a52.1,52.1,0,0,0,1.2-7.5l4.4,1.1a34.7,34.7,0,0,1-3.9,6.4h13.7Zm-3.3,1.6H454.9V60h17.6V51.9h0Zm0,9.7H454.9v9.2h17.6V61.6h0Z"/><path class="a" d="M1,59.2A24.9,24.9,0,0,1,7.3,42.6H9.2A28.7,28.7,0,0,0,4.5,59.2c0.1,5.9,1.1,11.3,4.8,16.8H7.4A24.4,24.4,0,0,1,1,59.2Z"/><path class="a" d="M18,51.4V75.4H15V56.8a24.1,24.1,0,0,1-4,4.8l-0.9-.9a43.5,43.5,0,0,0,7.3-18.4l3.4,0.9A43.7,43.7,0,0,1,18,51.4Zm9.2,18.3,3,1.9a32.9,32.9,0,0,1-11,4.4l-0.4-1.3a23.2,23.2,0,0,0,8.2-5h0.1ZM35,46.6v2.3h5.8v6.6H21V48.9h5.8V46.6h-6V45H41.4v1.6H35ZM22.5,69.3V57.2H39.2V69.3H22.5Zm1.5-15.4h2.8V50.4H24.1v3.5Zm1.5,6.7H36.2v-2H25.6v2Zm0,3.5H36.2V62H25.6v2.1Zm0,3.7H36.2V65.6H25.6v2.1Zm6.7-21.2H29.7v2.3h2.5V46.6ZM29.7,54h2.5V50.5H29.7V54ZM42.2,73.3l-1.8,2.9a69.9,69.9,0,0,0-8.2-4.9L32.6,70a37.8,37.8,0,0,1,9.4,3.1h0.1ZM35,50.5V54h2.9V50.5H35Z"/><path class="a" d="M52,52V75.3H49V57.4a29.2,29.2,0,0,1-3.5,4.2l-0.9-.9a42.1,42.1,0,0,0,6.7-18.3l3.5,0.8A45,45,0,0,1,52,52ZM76.1,72.7v1.6H53.4V72.7h3.1V52.5H62c0.1-1.3.4-2.5,0.5-3.9H54.7V47h8.2c0.3-1.5.4-3,.5-4.2l3.3,0.4c-0.3,1.4-.4,2.6-0.5,3.9h8.6v1.5H65.9c-0.1,1.4-.4,2.8-0.5,3.9h7.4V72.7h3.3ZM69.8,54.2H59.3v3.3H69.8V54.2Zm0,4.8H59.3v3.5H69.8V58.9Zm0,4.9H59.3v3.7H69.8V63.9Zm0,5H59.3v3.8H69.8V68.9Z"/><path class="a" d="M89.7,71.4v4.2H86.9V71.7A17.3,17.3,0,0,1,80.1,70l0.4-2.9a10.8,10.8,0,0,0,6.9,2.4c3-.1,5.2-1.8,5.2-4.4s-1.9-3.5-3.7-4.3l-3.5-1.4c-2-.8-4.5-2-4.5-5.7a6.4,6.4,0,0,1,5.8-6.4V43.6h2.6v3.7a12.1,12.1,0,0,1,4.8,1.1l-0.4,2.9a8.1,8.1,0,0,0-5.4-1.9,4.4,4.4,0,0,0-4.5,4c0,2.4,1.6,2.8,3.7,3.7l2.9,1.4c1.5,0.8,5.3,2.1,5.3,6.4S93.1,70.7,89.7,71.4Z"/><path class="a" d="M187.1,75.9c3.8-5.3,4.8-10.8,4.8-16.8a28.7,28.7,0,0,0-4.7-16.6h1.9a24.9,24.9,0,0,1,6.3,16.6A24.4,24.4,0,0,1,189,75.9h-1.9Z"/><path class="a" d="M111.5,47.2h4V63.4H119v2.4h-3.6v7h-3.4v-7H99.9V63.5Zm0.5,7.4c0-1.3,0-2.7.1-4H112a26.4,26.4,0,0,1-2.2,3.8l-6.4,8.8v0.2h8.7V54.5Z"/><path class="a" d="M122.9,68.3H127a100.6,100.6,0,0,1-3.9,9.9H121A98.8,98.8,0,0,0,122.9,68.3Z"/><path class="a" d="M144.4,60.6h-0.2a6.3,6.3,0,0,1-5.4,3.2,7.7,7.7,0,0,1-7.9-7.9,8.9,8.9,0,0,1,9-9.1c5.3,0,8.3,3.9,8.3,10.4,0,10.1-5.5,15.1-15,16l-0.3-1.7C140.6,70.1,143.7,65.9,144.4,60.6Zm-0.1-2.8a6.6,6.6,0,0,0,.3-1.8c0-3.6-1.2-7.2-4.9-7.2s-4.9,3.2-4.9,6.8,1.9,5.5,5,5.5S143.3,60,144.2,57.8Z"/><path class="a" d="M150.2,60c0-8.6,3.9-13.3,9.2-13.3s8.8,4.7,8.8,12.9-3.4,13.5-9.2,13.5S150.2,68.5,150.2,60Zm14.3-.2c0-6.3-1.6-11-5.2-11S154,53.1,154,60.1s2,11,5.2,11S164.5,66.4,164.5,59.8Z"/><path class="a" d="M169.4,60c0-8.6,3.9-13.3,9.2-13.3s8.8,4.7,8.8,12.9-3.4,13.5-9.2,13.5S169.4,68.5,169.4,60Zm14.3-.2c0-6.3-1.6-11-5.2-11s-5.2,4.2-5.2,11.2,2,11,5.2,11S183.6,66.4,183.6,59.8Z"/></svg>