<svg xmlns="http://www.w3.org/2000/svg" viewBox="0 0 295.7 42.2"><defs><style>.a{fill:#bd1f87;}</style></defs><title>brands-info-text-land</title><path class="a" d="M4.9,4.5c0.3,1.7.3,4.4-.3,5.6L3,9.5A10.1,10.1,0,0,0,4.3,4.5H4.9ZM5.7,1.3H7.3V18.9H5.7V1.3ZM20.2,16.8l-1.4,2.1c-1.7-1.1-4.1-3.3-4.9-8h0A10.2,10.2,0,0,1,8,19l-0.4-.6a9.9,9.9,0,0,0,4.5-7.5H8.4V10h3.9c0.1-.8.1-1.7,0.1-2.7V5.6H9.4V4.7h2.9V1.2h1.8V4.7h4V10h1.8v0.9H14.6A8.9,8.9,0,0,0,20.2,16.8ZM8.3,8.9a37.9,37.9,0,0,0-.7-4.2l0.6-.2a13.4,13.4,0,0,1,1.8,4ZM14,10.1h2.4V5.6H14.1V8c0,0.7,0,1.4-.1,2.1h0Z"/><path class="a" d="M28.5,7.5a25.6,25.6,0,0,1-5.2,2.6L22.4,8.4,24,8.1V2.7l1.6,0.4a10.5,10.5,0,0,0,3.3-1.9l1.4,1.4a14.6,14.6,0,0,1-4.5,1.3V7.7l2.6-.9L27.6,4.9l0.6-.4a13.6,13.6,0,0,1,2.5,3.9l-1.7.8A13.6,13.6,0,0,0,28.5,7.5Zm-4.1,2.8H36.8v8.4H35.1v-1H26.1v1H24.4V10.4h0Zm1.6,3.1h3.7V11.3H26.1v2.2h0Zm0,0.9v2.5h3.7V14.4H26.1ZM37.6,2.4a32.8,32.8,0,0,1-.4,5.9c-0.2,1.1-1.8,2-4.1-.1l0.3-.6c2,0.6,2.1.5,2.3-.4a22.5,22.5,0,0,0,.3-4H34.1c-0.3,3.5-1.7,5.8-4.7,7l-0.4-.6c2.4-1.4,3.1-3.2,3.3-6.4H30.7V2.4h7ZM31.3,13.5h3.7V11.3H31.3v2.2Zm0,3.4h3.7V14.4H31.3v2.5Z"/><path class="a" d="M49.9,3.6V7.2a29.2,29.2,0,0,1,6.4,4.1L54.8,13a41.1,41.1,0,0,0-4.9-4.9V18.9H48.1V3.6H41.6V2.6H57.9v1h-8Z"/><path class="a" d="M66.3,15.7L68,16.8a24.2,24.2,0,0,1-7.6,2.3l-0.2-.6A18.3,18.3,0,0,0,66.3,15.7ZM61.4,9.2l-1-1.4a25.8,25.8,0,0,0,4.1-3.1l0.5,0.4A21.6,21.6,0,0,1,61.4,9.2ZM64,4.4L60.9,2.2l0.2-.6a13.9,13.9,0,0,1,3.9,1.3ZM62.6,8.6H74.4v6.9H62.6V8.6Zm1.7,2h8.4V9.5H64.3v1.2Zm0,1.9h8.4V11.5H64.3v1.1Zm0,2.1h8.4V13.4H64.3v1.3ZM65.4,6L65,5.5a10.2,10.2,0,0,0,2.2-4.5l1.6,0.4L68.4,2.6h5.7l0.3-.3,1.7,0.9a9,9,0,0,1-2.7,2.6l-0.5-.4a8.6,8.6,0,0,0,1.1-2H71.5a9.4,9.4,0,0,1-.4,1.3c1.6,1.9,3.6,2.1,5.6,2.2l-1,1.8a7.1,7.1,0,0,1-5.1-3.4,7.5,7.5,0,0,1-5.9,3l-0.2-.6c2.9-.7,4.4-2.1,5-4.4H67.8A9.4,9.4,0,0,1,65.4,6Zm3.9,9.8a30.3,30.3,0,0,1,7.1,1.6L75.5,19a52.2,52.2,0,0,0-6.4-2.6Z"/><path class="a" d="M84.2,10.4v8.3H82.5v-7a15.5,15.5,0,0,1-3.2,4.5l-0.5-.5a19.1,19.1,0,0,0,3.4-7.3H79.5V7.6h3V1.3h1.7V7.6h2.7V8.4H84.2V9.3a14.2,14.2,0,0,1,2.9,2.5L85.8,13ZM80.6,7a29.3,29.3,0,0,0-1-3.9l0.5-.3a14,14,0,0,1,2,3.7Zm4.5,0-0.5-.3a18.5,18.5,0,0,0,1.1-4l1.6,0.7A16.7,16.7,0,0,1,85.1,7Zm8.7,5.7v6.1H92V13.1l-6,1.3-0.2-.8L92,12.3V1.3h1.8V11.8l1.8-.5,0.2,0.8ZM87.2,8.1l0.4-.4a13.4,13.4,0,0,1,3.3,2.9l-1.3,1.1A31.3,31.3,0,0,0,87.2,8.1Zm2.7-1a25.8,25.8,0,0,0-2.1-3.8l0.5-.4A13.9,13.9,0,0,1,91.3,6Z"/><path class="a" d="M99.2,14.9h2.1a52.3,52.3,0,0,1-2,5.1H98.3A51.4,51.4,0,0,0,99.2,14.9Z"/><path class="a" d="M108.1,12.4a13.6,13.6,0,0,1-3.3,5.1l-0.5-.4a16.8,16.8,0,0,0,2.1-5.1ZM114,5h-9.4V4.1h4.8l-2.2-2.5,0.4-.6a15.1,15.1,0,0,1,3.3,2l-0.9,1H114V5Zm-3.7,5.9v6c0,1.8-1,2.8-4.2.9l0.3-.6c2.2,0.4,2.4.2,2.4-.7V10.9H106V6.4h6.8v4.5h-2.5Zm-2.8-.9h3.6V7.3h-3.6V10Zm4.3,6.4a34.3,34.3,0,0,0-1.2-4.3l0.6-.3a19.3,19.3,0,0,1,2.2,3.9Zm4.9-8.8c-0.3,6.1-1.3,8.9-4.8,11.3l-0.4-.5c2.7-2.5,3.4-5.2,3.6-10.8h-1.9V6.8h1.9c0.1-1.6.1-3.4,0.1-5.6h1.7c0,2.1,0,4-.1,5.6h4.4V7.7h-4.4Zm2.6,10.9c-2.2,0-2.6-.4-2.6-1.8V9h1.6v6.8c0,0.9,0,1.2,1,1.2s1-.3.9-3.7h0.7C122.1,17.8,121.5,18.5,119.3,18.5ZM119.2,6.2a31.9,31.9,0,0,0-1.6-3.6l0.5-.4a12,12,0,0,1,2.5,3.2Z"/><path class="a" d="M130.6,5.1a18.8,18.8,0,0,1-1.3,2.4H138V17c0,2-2.1,2.4-5.1.6L133,17c2.8,0.6,3.2.4,3.2-.6v-2h-6.9v4.5h-1.8V9.8a15.1,15.1,0,0,1-3.9,3.3l-0.4-.6a18.3,18.3,0,0,0,5.3-7.3h-4.8V4.1H129a24.2,24.2,0,0,0,.9-3l1.9,0.4a23.4,23.4,0,0,1-.9,2.7h9v1h-9.4Zm-1.2,5.3h6.8v-2h-6.9v2.1h0.1Zm0,3h6.8V11.3h-6.9v2.1h0.1Z"/><path class="a" d="M146.2,8.6V18.8h-1.6V10.6a15.4,15.4,0,0,1-1.9,4.2l-0.5-.4a32.2,32.2,0,0,0,2.2-8.1h-1.8V5.5h2V1.4h1.6V5.4h1.3V6.3h-1.3V7.4a11.8,11.8,0,0,1,1.9,2.5l-1.2.7Zm8.3,3.3a15.5,15.5,0,0,0,.6,2.2,14.8,14.8,0,0,0,1.4-2l1.4,0.8a10.2,10.2,0,0,1-2.1,2.6,3.2,3.2,0,0,0,1.2,1.2c0.7,0.3,1,.3,1.3-2h0.6c0.6,3.2-.3,4.3-1.9,3.7a4.8,4.8,0,0,1-2.5-2.1,14.7,14.7,0,0,1-5.1,2.1l-0.3-.6a13.4,13.4,0,0,0,4.8-2.7,16.4,16.4,0,0,1-1-3.5h-2.1c-0.1.3-.1,0.5-0.1,0.7a14.1,14.1,0,0,1,2.6,1.9l-1.1,1.3-1.7-2.3a7.7,7.7,0,0,1-3.6,5.4l-0.4-.5c1.3-1.1,2.4-3,2.7-6.5h-1.9V11h2V9.5h1.6V11h1.9a66.9,66.9,0,0,1-.6-9.7h1.6a51.7,51.7,0,0,0,.6,9.7h1.9l-0.9-1.8-0.6.2L154.3,8H155a15.9,15.9,0,0,0,1.2-2.3l-1.8.6-0.4-1.4h0.7a22.1,22.1,0,0,0,.8-3.4l1.5,0.4a26.9,26.9,0,0,1-1.6,3h1.1l0.5-1.3,1.4,0.6A17.5,17.5,0,0,1,155.8,8l1.7-.3-0.3-.9,0.5-.2a8.4,8.4,0,0,1,1.4,2.5l-1.2.4a7.7,7.7,0,0,0-.3-1.3l-1.7.7a9.8,9.8,0,0,1,1.5,1.6l-0.7.5h2.4v0.9h-4.8Zm-6-3.7A18.1,18.1,0,0,0,149.6,6l-1.6.5-0.3-1.3h0.6a24.2,24.2,0,0,0,.9-3.7l1.5,0.4A25.7,25.7,0,0,1,149,5.2h1l0.5-1.4,1.3,0.6a21.6,21.6,0,0,1-2.6,3.8l1.5-.2L150.6,7l0.5-.2a8,8,0,0,1,1.3,2.5l-1.1.4L151,8.6a10.8,10.8,0,0,1-2.8,1l-0.4-1.3h0.7Z"/><path class="a" d="M177.4,7.7L176,7.2v4.2H163.4V7.2l-2,.8-0.3-.6A23.4,23.4,0,0,0,169.4,1l1.8,0.9-0.5.4a19.6,19.6,0,0,0,7.6,3.6Zm-1.8-.7a19.6,19.6,0,0,1-3-1.9V5.9h-5.7V5.3l-3,1.7h11.7Zm-11.1,5.6h10.4v6.3h-1.6V17.9h-7.2v0.9h-1.6V12.6h-0.1Zm1-4.5,0.3-.3H165v2.7h2C166.5,9.8,165.9,8.6,165.5,8.1Zm0.6,5.3v1.3h7.2V13.4h-7.2Zm7.2,3.7V15.6h-7.1v1.5h7.1Zm-4.4-9.3h-2.7a12.8,12.8,0,0,1,2.1,2l-1,.7h1.6V7.8ZM167.4,5h5.2a18.5,18.5,0,0,1-2.4-2.2A24,24,0,0,1,167.4,5Zm3.2,2.8v2.7h0.9l-0.3-.3a18,18,0,0,0,1.3-2.5h-1.9Zm3.9,0h-1.6L174,8.5a16.9,16.9,0,0,1-2.2,2h2.6V7.8Z"/><path class="a" d="M184.2,8.9v9.9h-1.7v-8l-2,1.7L180,12a20.4,20.4,0,0,0,4.4-7.1l1.7,0.8A16.9,16.9,0,0,1,184.2,8.9Zm-3.5-1.8-0.4-.5a16.6,16.6,0,0,0,3.5-5.6l1.7,0.9A16.9,16.9,0,0,1,180.6,7.2ZM197,11.9v0.9h-2.9v4.5c0,1.8-2,2.3-4.9.3l0.3-.6c2.5,0.6,2.9.4,2.9-.4V12.7h-7.5V11.9h7.5V10.2h-7.1V9.3h11.3v0.9h-2.4v1.7H197Zm-2.1-3.7h-7.9v-6h7.9v6h0Zm-4.7,7.7-1.6,1a27.3,27.3,0,0,0-1.6-3.3l0.5-.4a13.4,13.4,0,0,1,2.6,2.8h0.1ZM193.2,3h-4.7V4.7h4.6V3h0.1Zm0,2.6h-4.7V7.3h4.6V5.5h0.1Z"/><path class="a" d="M209.3,14.9l0.2,0.6a47.6,47.6,0,0,1-9.6,2.3l-0.5-1.9,4.1-.2V12.6H200V11.7h3.5V9.2h1.8v2.5h3.6v0.9h-3.6v3Zm0.4-6.1-1.6,1a12.3,12.3,0,0,0-.8-1.7,66.2,66.2,0,0,1-7.3,1.5l-0.5-1.9h2.1a25.9,25.9,0,0,0,1.4-4.2h-3.5V2.6h9.9V3.4h-4.2a30.9,30.9,0,0,1-2.7,4.1l4.4-.3-1.2-2.1,0.5-.4A15.7,15.7,0,0,1,209.7,8.8Zm5.2-7.4V16.7c0,2.4-2,3-5.1.9l0.2-.6c2.5,0.6,3.2.6,3.2-.6V1.3h1.7Zm-3.3,13.3H210V3.3h1.6V14.7Z"/><path class="a" d="M227.3,3.4V6h6.4V17c0,1.6-1.8,2.5-4.6.4l0.2-.6c2.5,0.6,2.7.4,2.7-.4V14.5l-1,.8a13.6,13.6,0,0,1-1-3.9,9.3,9.3,0,0,1-2.5,4l-0.3-.3v3.3h-1.8v-4l-0.8.7a12.7,12.7,0,0,1-1-3.9,8.8,8.8,0,0,1-2.4,4.1l-0.3-.3v3.9h-1.7V6h6.2V3.4h-7.4v-1h16.5v1h-7.4Zm-1.8,10V6.9H221v7.8a10.3,10.3,0,0,0,1.8-5.5h-1.4V8.4H224a8,8,0,0,0,1.6,5h-0.1Zm1.8-6.5v7.6a11.3,11.3,0,0,0,1.8-5.3h-1.4V8.4h2.6a8.2,8.2,0,0,0,1.7,5.1V6.9h-4.7Z"/><path class="a" d="M242,1.7a29.6,29.6,0,0,1-1.3,4.2V18.8h-1.6V9a16.8,16.8,0,0,1-2,2.5l-0.5-.4a23.4,23.4,0,0,0,3.5-9.7Zm11.2,0.9V18.8h-1.7V17.5H244v1.3h-1.7V2.6h10.9Zm-1.7.9H244V16.6h7.4V3.4h0.1Zm-4.5,4h-2.4V6.6H247V4.1h1.6V6.6H251V7.4h-2.5V9.9h2v4.9H245V10h1.9V7.4H247Zm-0.4,3.4V14h2.5V10.8h-2.5Z"/><path class="a" d="M269.8,2.3V16.4c0,2.7-2,3.2-5.2.7l0.3-.6c2.9,0.9,3.2.4,3.2-.7V11.6h-7c-0.3,3.8-1.2,5.5-3.8,7.3l-0.4-.5c2.8-2.9,2.6-6.7,2.6-10.8V2.3h10.4ZM268,10.8V7.4h-7V7.9c0,1.1,0,2-.1,2.9h7Zm-7-7.6V6.6h7V3.2h-7Z"/><path class="a" d="M278.8,6V18.8h-1.6V9a13.3,13.3,0,0,1-2.1,2.4l-0.4-.5c1.9-2.6,3-5.6,3.7-9.6l1.9,0.4A23.5,23.5,0,0,1,278.8,6Zm0.9,4.1-0.5-.5a15.3,15.3,0,0,0,2.9-6.9l1.8,0.5A13.7,13.7,0,0,1,279.8,10.1Zm1.2-1h8.5a63.8,63.8,0,0,1-.5,7.6c-0.3,1.7-2,2.8-5,.3l0.3-.6c2.6,0.9,2.9.7,3-.4a46.6,46.6,0,0,0,.3-6h-2.6c-0.4,5-2,7.1-5.2,8.9l-0.4-.5c2.5-2,3.6-4,3.9-8.3H281V9.1h0Zm10.9-1.1-1.4,1.7a10.3,10.3,0,0,1-3.8-6.8h-2.5V2.1h3.2c0.5,3.4,2.4,4.8,4.5,5.9h0Z"/><path class="a" d="M113.9,27.6h3.4V40.8h-1.7V39.1h-3.3v2.1h-1.7V27.6H113a36.9,36.9,0,0,0,.6-3.8l2,0.4A22.6,22.6,0,0,1,113.9,27.6Zm1.8,0.9h-3.3v4.2h3.3V28.4Zm0,9.8V33.5h-3.3v4.7h3.3Zm10.5-10.6a104,104,0,0,1-.4,11.6c-0.3,1.8-2.6,3.2-6.2.1l0.3-.6c3,1.2,3.9,1.3,4.1-.2a80,80,0,0,0,.4-10.1h-4a17.9,17.9,0,0,1-2.5,4.4l-0.5-.4a28.9,28.9,0,0,0,2.4-8.6l2,0.4a24.1,24.1,0,0,1-1,3.4h5.4Zm-4.6,8.6a34.2,34.2,0,0,0-2.1-4.9L120,31a16.4,16.4,0,0,1,3.3,4.3Z"/><path class="a" d="M146.1,39.5l-1,2c-1.8-.3-5.8-1.5-7.4-5.4-1.1,3-3.9,4.8-8.6,5.5L129,41c4.1-1,6-2.7,6.9-4.9h-6.3V35.3h6.5a10.3,10.3,0,0,0,.3-1.9l1.9,0.2a8.7,8.7,0,0,1-.3,1.8h7.3v0.9h-6.8C140.6,38.9,144,39.4,146.1,39.5ZM145.6,33H129.4V32.2h7.1V30.3h-5.2V29.5h5.2V27.7h-6.4V26.8h4.7a27.2,27.2,0,0,0-2.4-2.5l0.4-.6a18.6,18.6,0,0,1,3.7,2.1l-0.9,1h2.8a12.2,12.2,0,0,0,1.6-3.2l1.9,0.9a13,13,0,0,1-2.3,2.2h5.3v0.9h-6.7v1.8h5.5v0.9h-5.5v1.9h7.3v0.9h0Z"/><path class="a" d="M164.8,38.3L164,40.5a43.4,43.4,0,0,1-5.6.2c-4-.1-5.6-1.8-6.5-3.7s-0.9.9-2,4.2l-2-1c2.3-3.6,2.9-7,4.4-4.1l0.3,0.5c2.7-1.8,5.8-4.7,7.3-7.5h-11V27.9h11l0.8-.5,2.1,1.2a24.6,24.6,0,0,1-9.8,8.6c0.7,1,2,1.8,5.5,1.8A40,40,0,0,0,164.8,38.3Zm-12.3-14,0.4-.6a20.4,20.4,0,0,1,4.7,2.5l-1.4,1.7A48.8,48.8,0,0,0,152.5,24.3Z"/><path class="a" d="M171.4,32.3a38.8,38.8,0,0,1-3.3,7.4l-1.6-1.2a58.6,58.6,0,0,0,4.2-6.5Zm-1.8-3.3a36.2,36.2,0,0,0-2.4-3.7l0.5-.5A14.4,14.4,0,0,1,171,28Zm14.5,10-1.2,1.8a14.7,14.7,0,0,1-4.9-5.3v5.9h-1.7V35.9a14.5,14.5,0,0,1-6.3,4.9l-0.3-.6a14.2,14.2,0,0,0,5.6-5.6h-3.2V28.8h4.2V27.2h-5V26.4h5V24H178v2.4h5.3v0.9H178v1.6h4.3v5.9h-3.9A14.8,14.8,0,0,0,184.1,39.1Zm-10.3-7.8h2.6V29.7h-2.6v1.6Zm0,2.6h2.6V32.1h-2.6v1.8h0Zm4.3-2.6h2.7V29.7H178v1.6Zm0,2.6h2.7V32.1H178v1.8h0Z"/><path class="a" d="M191.6,35.2v4.6c0,1.7-1.9,2.3-4.2.4l0.2-.6c1.6,0.5,2.4.5,2.4-.3v-5h-1.6c-0.3,3.3-1.1,6-2.1,7.4l-0.6-.4c1-2.7,1.2-5.1,1.2-9.9V24.7h4.8v9.7a11.3,11.3,0,0,0,4.3-3.5h-0.3V29a14.2,14.2,0,0,1-2.9,2.2l-0.7-1.3a16.4,16.4,0,0,0,3.7-1.7V25.6h-3.4V24.7h4.9v5.8l0.7,0.4-0.3.4a10.5,10.5,0,0,0,5.3,2.2l-0.8,1.7a9.9,9.9,0,0,1-5-3.4A13.5,13.5,0,0,1,191.6,35.2Zm-1.6-5.3h-1.6v2.2a11.2,11.2,0,0,1-.1,1.3h1.6V29.8Zm0-4.2h-1.6V29h1.6V25.6h0Zm10.8,10.9,1.4,1c-2,2.5-6.6,3.7-10.3,4.1l-0.2-.6c3.6-.6,7.3-2.2,9-4.5h0Zm-2.5-2.5a12.1,12.1,0,0,1-5.8,2.8l-0.3-.6a11.3,11.3,0,0,0,4.8-3Zm-5.8,5-0.2-.6a12.7,12.7,0,0,0,6.6-3.7l1.3,1c-1.5,1.6-4.9,2.9-7.6,3.4h-0.1Zm2.4-11.4-1.1.8a13.6,13.6,0,0,0-1.3-2.2l0.5-.4a6.5,6.5,0,0,1,2,1.8h-0.1Zm3,2.8-0.6-1.3a14.7,14.7,0,0,0,3.2-1.1V25.6h-2.9V24.7H202v6.9h-1.6V28.9a11.9,11.9,0,0,1-2.5,1.6h-0.1Zm2-3.1-1,1a17.9,17.9,0,0,0-1.5-2l0.4-.4a7.1,7.1,0,0,1,2.2,1.5h-0.1Z"/><path class="a" d="M215.6,34.5v5c0,1.7-1.2,2.8-4.6.9l0.2-.6c2.4,0.6,2.7.4,2.7-.6V34.5h-4.2V28.2h3.5a23.6,23.6,0,0,0,.7-2.5h-5.6v4.7c0,6.8-1.3,9.3-3.1,11.1l-0.5-.4c1.2-2.1,1.8-3.8,1.8-10.8V25h14.8v0.9h-5.3a22.8,22.8,0,0,1-1.8,2.5h5.5v6.3h-4Zm-3.2,1.9a14,14,0,0,1-5.2,4.5l-0.4-.5a13.9,13.9,0,0,0,3.9-4.9Zm-1.1-5.6h6.5V29.1h-6.5v1.8h-0.1Zm0,2.8h6.5V31.8h-6.5v1.9h-0.1Zm10.4,5.8-1.5,1.3a39.2,39.2,0,0,0-3.7-4.7l0.4-.6A20.1,20.1,0,0,1,221.8,39.5Z"/><path class="a" d="M224,33.3l-0.4-.6a9.3,9.3,0,0,0,3.9-6.4l1.9,0.5a13,13,0,0,1-.6,1.6,4.2,4.2,0,0,0,2.3,1.9V25.6h-6.2V24.7h12.8l0.4-.4,1.9,0.9a13.3,13.3,0,0,1-2.6,2.5l-0.5-.4a7.1,7.1,0,0,0,.8-1.7h-4.9v2.1h4.1v0.9h-4.1v2a40.5,40.5,0,0,0,7.7-.2L240,32.1a34.7,34.7,0,0,1-7.8-.3,5,5,0,0,1-3.7-2.7A9.7,9.7,0,0,1,224,33.3Zm11.6,4.3a21.1,21.1,0,0,1,4.3,2.7l-1.3,1.4L237,39.8A107.8,107.8,0,0,1,225.1,41l-0.4-1.7h6.4v-2h-4.8V33.5h4.8V32.2h1.7v1.2h5.1v3.9h-5.1v2l3.5-.2-1-.9Zm-4.5-1.1V34.3h-3.3v2.1h3.3Zm1.7-2.1v2.1h3.4V34.3h-3.4Z"/><path class="a" d="M257.5,27.9V41.4h-1.8V39.7h-9.4v1.8h-1.8V27.9h4.7a27.9,27.9,0,0,0,.6-4l2.4,0.6a18.6,18.6,0,0,1-2.1,3.4h7.3Zm-1.8.9h-9.4V33h9.4V28.7h0Zm0,5.2h-9.4v4.9h9.4V33.9h0Z"/><path class="a" d="M3.5,32.6a13.3,13.3,0,0,1,3.4-8.9h1a15.4,15.4,0,0,0-2.5,8.9,15.7,15.7,0,0,0,2.6,9h-1A13.1,13.1,0,0,1,3.5,32.6Z"/><path class="a" d="M12.6,28.4V41.3H11v-10a12.9,12.9,0,0,1-2.2,2.6l-0.5-.5a23.2,23.2,0,0,0,3.9-9.8L14.1,24A23.4,23.4,0,0,1,12.6,28.4Zm4.9,9.8,1.6,1a17.6,17.6,0,0,1-5.9,2.4l-0.2-.7a12.4,12.4,0,0,0,4.4-2.7h0.1Zm4.2-12.3v1.2h3.1v3.5H14.2V27.1h3.1V25.9H14.1V25H25.1v0.9H21.7ZM15,38V31.5h8.9V38H15Zm0.8-8.2h1.5V27.9H15.8v1.9Zm0.8,3.6h5.7V32.3H16.6v1.1Zm0,1.9h5.7V34.1H16.6v1.1Zm0,2h5.7V36H16.6v1.1Zm3.6-11.3H18.8v1.2h1.3V25.9Zm-1.3,4h1.3V28H18.8v1.9Zm6.7,10.3-0.9,1.5a37.4,37.4,0,0,0-4.4-2.6l0.2-.7a20.2,20.2,0,0,1,5.1,1.7h0.1ZM21.7,28v1.9h1.5V28H21.7Z"/><path class="a" d="M30.8,28.8V41.2H29.2V31.7a15.6,15.6,0,0,1-1.9,2.2l-0.5-.5a22.5,22.5,0,0,0,3.6-9.8L32.3,24A24.1,24.1,0,0,1,30.8,28.8ZM43.6,39.8v0.9H31.5V39.8h1.7V29h2.9c0.1-.7.2-1.3,0.3-2.1H32.2V26.1h4.4c0.1-.8.2-1.6,0.3-2.2L38.6,24c-0.1.7-.2,1.4-0.3,2.1h4.6v0.8H38.2c-0.1.7-.2,1.5-0.3,2.1h4V39.8h1.8Zm-3.4-9.9H34.7v1.8h5.6V29.9Zm0,2.6H34.7v1.9h5.6V32.5Zm0,2.6H34.7v2h5.6v-2Zm0,2.7H34.7v2h5.6v-2Z"/><path class="a" d="M50.9,39.1v2.2H49.4V39.3a9.2,9.2,0,0,1-3.6-.9L46,36.9a5.8,5.8,0,0,0,3.7,1.3c1.6-.1,2.8-0.9,2.8-2.4s-1-1.9-2-2.3l-1.9-.7a3.1,3.1,0,0,1-2.4-3,3.4,3.4,0,0,1,3.1-3.4v-2h1.4v2a6.5,6.5,0,0,1,2.6.6l-0.2,1.5a4.3,4.3,0,0,0-2.9-1,2.4,2.4,0,0,0-2.4,2.2c0,1.3.9,1.5,2,2l1.5,0.7c0.8,0.4,2.8,1.1,2.8,3.4S52.7,38.7,50.9,39.1Z"/><path class="a" d="M103,41.6a14.6,14.6,0,0,0,2.6-9,15.4,15.4,0,0,0-2.5-8.9h1a13.3,13.3,0,0,1,3.4,8.9,13.1,13.1,0,0,1-3.4,9h-1Z"/><path class="a" d="M62.6,26.2h2.1v8.7h1.9v1.3H64.7v3.7H62.9V36.1H56.4V34.9Zm0.3,3.9c0-.7,0-1.4.1-2.1H62.8a14.1,14.1,0,0,1-1.2,2l-3.4,4.7h4.7V30.1Z"/><path class="a" d="M68.7,37.5h2.2a53.8,53.8,0,0,1-2.1,5.3H67.7A52.8,52.8,0,0,0,68.7,37.5Z"/><path class="a" d="M80.2,33.3H80.1A3.4,3.4,0,0,1,77.2,35,4.1,4.1,0,0,1,73,30.8a4.8,4.8,0,0,1,4.8-4.9c2.8,0,4.5,2.1,4.5,5.6,0,5.4-3,8.1-8,8.5L74,39.2C78.1,38.5,79.8,36.2,80.2,33.3Zm-0.1-1.5a3.5,3.5,0,0,0,.2-1c0-1.9-.7-3.8-2.6-3.8S75,28.8,75,30.7a2.7,2.7,0,0,0,2.6,2.9A2.5,2.5,0,0,0,80.1,31.9Z"/><path class="a" d="M83.3,33.1c0-4.6,2.1-7.1,4.9-7.1S93,28.5,93,32.9s-1.8,7.2-4.9,7.2S83.3,37.6,83.3,33.1Zm7.6-.1c0-3.4-.9-5.9-2.8-5.9s-2.8,2.3-2.8,6S86.4,39,88.1,39,90.9,36.5,90.9,32.9Z"/><path class="a" d="M93.5,33.1c0-4.6,2.1-7.1,4.9-7.1s4.7,2.5,4.7,6.9-1.8,7.2-4.9,7.2S93.5,37.6,93.5,33.1Zm7.6-.1c0-3.4-.9-5.9-2.8-5.9s-2.8,2.3-2.8,6S96.6,39,98.3,39,101.2,36.5,101.2,32.9Z"/></svg>