<svg id="圖層_1" data-name="圖層 1" xmlns="http://www.w3.org/2000/svg" viewBox="0 0 1320 141.97"><defs><style>.cls-1{fill:#b7b7b7;}</style></defs><title>premium-land</title><path class="cls-1" d="M132.22,75.39H105v57.29H93.22V75.39H61q-1.47,34.54-34.6,57.73l-8.73-8.92q15.48-9.75,22.65-21t8.63-27.81h-30V64H49.44q0.45-8.16.45-15.23,0-4.2-.13-8.22-16.31,4.59-23,5.86l-5.1-10.7Q54.73,29.31,74.3,18l8.48,8.6a165,165,0,0,1-21,9.94Q62,41.86,62,47.86q0,7.39-.38,16.19H93.22V18.8H105V64h27.27V75.39Z"/><path class="cls-1" d="M198.75,37.85q-17,30.21-33.52,46.33a110.18,110.18,0,0,0,18.93-4.33,33.2,33.2,0,0,0-2.36-6.76l8.6-3.57q4.33,8.54,7.58,22.75l-9.37,3.5a28,28,0,0,0-1.47-6.24q-21.54,5.74-35,7.26l-3.25-10q11.15-8.47,23.77-27.27-8.67,1.85-20.52,3.63l-1.91-9.69a133.62,133.62,0,0,0,19.82-36.13l11.22,3.38A151,151,0,0,1,164.47,50.6a148.7,148.7,0,0,0,15.49-3,154.47,154.47,0,0,0,7.71-14.34ZM165,102.28a147,147,0,0,1-5.86,30L148.92,128a127.36,127.36,0,0,0,5.74-28.74Zm14,23.64L169,127.77q0.19-2.87.19-5.86a169.58,169.58,0,0,0-1.47-20.39l9.11-1.47A161.52,161.52,0,0,1,178.93,125.92Zm14.34-10.2-8.6,2.87a133.52,133.52,0,0,0-4-18.8l8.73-1.53A119.16,119.16,0,0,1,193.27,115.72Zm70.86,7.84L256.74,133A102.35,102.35,0,0,1,237,116a117.07,117.07,0,0,1-22.69,17.14l-8.48-8.92a97.61,97.61,0,0,0,24.15-17Q220.87,92,217.3,71.63q-4.72,40.66-18.41,61.62l-9.24-7.07q18.67-30.27,17.46-93.42h-8.6v-11h57.86q-2.93,19.69-6.82,35.49h11.6q-2.81,30.78-16.57,50A78.4,78.4,0,0,0,264.14,123.56ZM243,32.75H218.89q0,11.22-.64,24.53h19.56Q240.81,45.5,243,32.75ZM248.4,68.5H228.13a83.23,83.23,0,0,0,9.43,29.63A79.73,79.73,0,0,0,248.4,68.5Z"/><path class="cls-1" d="M385,132.68H373V122.8H301.35v9.88h-12V38.23h24.79a103.07,103.07,0,0,0,10.32-20.78L337,19.95a97.7,97.7,0,0,1-9.11,18.29H385v94.44ZM373,74.24V49.32H301.35V74.24H373Zm0,37.22V85.84H301.35v25.62H373Z"/><path class="cls-1" d="M525.35,56.08l-5.67,10.2a185.3,185.3,0,0,1-19.56-9.69v7.33H473.35V76.72h44V87.94h-44v30.4H520.5v11.08H414.91V118.34h46.58V87.94h-43.2V76.72h43.2V63.91H434.35v-7A174.92,174.92,0,0,1,416.76,66l-7.33-9.94q39.83-17.53,55.44-38.24l11.79,3.38a7.94,7.94,0,0,1-1.72,2.48Q489.66,40.59,525.35,56.08Zm-73,56.27-11,3.76q-4.59-8.47-14.66-20.33l11.09-4.59A107.68,107.68,0,0,1,452.38,112.34ZM493.86,53Q477,42.63,467.23,32.75A156.52,156.52,0,0,1,441.16,53h52.7Zm14.72,42.31a105.07,105.07,0,0,1-14.09,20.58l-11.34-5a97.75,97.75,0,0,0,14.21-19.69Z"/><path class="cls-1" d="M656.62,41.48L652,51.81A229,229,0,0,1,619.66,41.1v4.84H577v-5.1a218.54,218.54,0,0,1-32,11.22l-5.74-9.43q38.55-9.94,56.91-25.42L609,20.33a17.11,17.11,0,0,1-2.36,2.49Q624.76,34.28,656.62,41.48ZM644.71,84.95H551.54V51.23h93.17V84.95Zm-5.61,47.47H627.63v-4.65H569.19v4.65H557.27V90.68H639.1v41.74ZM592.26,75.83V60.54H562.88V75.83h29.38Zm-5.74-6.44-8.22,5.23a91.06,91.06,0,0,0-10.83-7.71l8.09-5.48A80.39,80.39,0,0,1,586.52,69.39Zm41.1,35.49V99.54H569.19v5.35h58.44Zm0,13.83V113H569.19v5.73h58.44ZM610.55,36.89Q600,31,597.74,29.63a70.35,70.35,0,0,1-12.24,7.26h25Zm22.69,38.94V60.54H603.73V75.83h29.51Zm-5-9.18a84.72,84.72,0,0,1-11,7.58l-8.09-5.48q7.65-4.84,10.7-7.07Z"/><path class="cls-1" d="M773.43,111.84H712.7L717,115.6q-15,10.77-39.38,18l-6.43-9.3q19.31-5.48,31.35-12.49h-18.8v-57h89.66v57Zm-2.87-64.49H686.64V22h83.93v25.3ZM762,71.11V63.79H695.49v7.33H762Zm0,15.81V79.47H695.49v7.46H762ZM762,103V95.4H695.49V103H762ZM759,38.61V31.16H698.62v7.46H759Zm27.15,85.71L780.44,134a183.5,183.5,0,0,0-38.11-10.58l5.36-9.69Q769.67,117.32,786.17,124.33Z"/><path class="cls-1" d="M855,90.3q-5.29-2.1-5.29-8.16a7.35,7.35,0,0,1,2.71-5.86,9,9,0,0,1,6-2.29,7.69,7.69,0,0,1,6,2.68,9.66,9.66,0,0,1,2.36,6.63q0,7.33-11.21,15.87l-3.95-3.06A33.62,33.62,0,0,0,855,90.3Z"/><path class="cls-1" d="M1046.3,99.79H932.87V89.22H949.5V71.63H935.23V61H949.5V47.47q-3,2.62-8.92,7.46l-8.6-9q18.48-13.19,27.79-28.61l12.17,3.38A51.09,51.09,0,0,1,965,30.9h77.81V41.74H955.24c-1.14,1.32-2.93,3.1-5.35,5.35H961.1V61h12.11v-14H984.3V61h12.94v-14h11V61h12.93v-14h11.22V61h11.6V71.63h-11.6V89.22h14V99.79ZM958,107.89a111.84,111.84,0,0,1-14.91,26.38l-10.83-6.95q7.07-8.16,14.65-24.22Zm15.23-18.67V71.63H961.1V89.22h12.11Zm12.17,40.59-11.54,3.44a157.65,157.65,0,0,0-7.14-25l11.09-3.89A142.21,142.21,0,0,1,985.38,129.81Zm11.85-40.59V71.63H984.3V89.22h12.94Zm19.18,39.57-11.21,4.46a128.74,128.74,0,0,0-10.58-24.79l11.21-4.33A164.8,164.8,0,0,1,1016.41,128.79Zm4.72-39.57V71.63H1008.2V89.22h12.93Zm26.06,39.32-11.47,5a124.41,124.41,0,0,0-14.34-26l11.22-5.1A130.76,130.76,0,0,1,1047.19,128.53Z"/><path class="cls-1" d="M1177.07,77.74h-95.78q-0.39,38.24-9.94,54.93l-8.86-8.48a66,66,0,0,0,6.34-20.87,219.89,219.89,0,0,0,1.37-27.12V25.68h44.61a29.62,29.62,0,0,0-3.25-6.37l13.06-2.36a90.83,90.83,0,0,1,4,8.73h48.17v9.94h-95.65v32.5h95.91v9.62Zm-53.91,48.69a309.14,309.14,0,0,1-38.88,7.2l-4.72-9.94a244.73,244.73,0,0,0,38.37-6Zm50.53-75.2h-15V63.79h-56.46V51.23h-17.14V42.76h17.14V38.61H1113v4.14h34.54V38.61h11.09v4.14h15v8.48Zm-4.07,65.45h-78.13V81.95h78.13v34.73Zm-44.36-21.16V90h-22.94v5.48h22.94Zm0,12.94v-5.22h-22.94v5.22h22.94Zm22.31-52.89V51.23H1113v4.33h34.54Zm29,69.34-4.59,9.49a265.1,265.1,0,0,0-37.15-7.84l4.4-8.86A231.66,231.66,0,0,1,1176.56,124.9ZM1159,95.52V90h-23v5.48h23Zm0,12.94v-5.22h-23v5.22h23Z"/><path class="cls-1" d="M1306.56,73.86h-113.3V63.28h50.91V45.94H1216a76.74,76.74,0,0,1-14.91,14l-8.6-8.09q14.91-10.71,27.78-32.63l11.6,3.5q-3.45,6.12-7.65,12.43h19.94V18.61h11.73V35.11h43.84V45.94H1255.9V63.28h50.66V73.86ZM1293,132.68h-11.73v-5.86h-62.39v5.86h-12v-47H1293v47Zm-11.73-16.83V96.42h-62.39v19.43h62.39Z"/></svg>