<?xml version="1.0" encoding="utf-8"?>
<svg
  version="1.1"
  xmlns="http://www.w3.org/2000/svg"
  xmlns:xlink="http://www.w3.org/1999/xlink"
  x="0px"
  y="0px"
	viewBox="0 0 860 107"
  style="enable-background:new 0 0 860 107;"
  xml:space="preserve">
<style type="text/css">
	.st1 {
    fill: #ed7c92;
    stroke-width: 3;
    stroke: #ed7c92;
  }
</style>
<g>
	<path class="st1" d="M10.7,37.3V5.1h0.5v32.2H10.7z"/>
	<path class="st1" d="M35.2,15.8H26v15.5c0,2.4,0.4,4.1,1.2,4.8s2.2,1.2,4.2,1.2c1.3,0,2.4-0.2,3.4-0.7v0.5c-1,0.4-2.1,0.6-3.4,0.6
		c-2.2,0-3.8-0.5-4.6-1.4c-0.8-0.9-1.2-2.6-1.2-5.1V15.8h-5.6v-0.4h5.6V6.9H26v8.5h9.2V15.8z"/>
	<path class="st1" d="M69.3,32.1h-0.4c-0.8,1.8-2.1,3.2-3.6,4.2c-1.6,1-3.4,1.5-5.5,1.5c-2,0-3.6-0.6-4.8-1.7
		c-1.2-1.1-1.7-2.7-1.7-4.7c0-0.8,0.1-1.5,0.3-2.2c0.2-0.7,0.6-1.4,1.2-2.1c0.6-0.7,1.3-1.3,2.2-1.8c0.9-0.5,2.1-0.9,3.7-1.3
		c1.6-0.3,3.4-0.5,5.4-0.5h3.4V21c0-2.4-0.5-4-1.6-5c-1-1-2.8-1.5-5.4-1.5c-3,0-5.7,0.5-8,1.5v-0.5c2.4-1,5-1.5,8-1.5
		c2.7,0,4.6,0.5,5.7,1.6c1.1,1.1,1.7,2.8,1.7,5.3v16.3h-0.4V32.1z M69.3,23.9h-3.4c-8.2,0-12.3,2.5-12.3,7.4c0,1.9,0.5,3.3,1.6,4.4
		c1.1,1.1,2.5,1.6,4.4,1.6c2.8,0,5.1-0.9,6.9-2.6c1.8-1.7,2.7-3.9,2.7-6.6V23.9z"/>
	<path class="st1" d="M79.4,37.3V4.2h0.5v33.1H79.4z"/>
	<path class="st1" d="M92,37.3V4.2h0.5v33.1H92z"/>
	<path class="st1" d="M113.2,19.6c0-1.7,0.7-3,2-4.1c1.3-1,3.1-1.5,5.4-1.5c2.5,0,4.9,0.4,7.2,1.3v0.6c-2.3-0.9-4.7-1.4-7.2-1.4
		c-2.2,0-3.9,0.5-5.1,1.4c-1.2,0.9-1.9,2.2-1.9,3.8c0,1.4,0.5,2.5,1.5,3.5s2.8,1.6,5.5,2.1c2.7,0.6,4.7,1.3,5.9,2.4
		c1.2,1,1.9,2.4,1.9,4.1c0,1.9-0.7,3.3-2.1,4.4c-1.4,1.1-3.3,1.6-5.7,1.6c-2.6,0-5.1-0.6-7.4-1.7v-0.5c2.2,1.2,4.7,1.7,7.4,1.7
		c2.3,0,4.1-0.5,5.4-1.5c1.3-1,2-2.4,2-4.1c0-1.4-0.5-2.6-1.5-3.6c-1-1-3-1.8-5.9-2.4c-2.7-0.6-4.6-1.3-5.7-2.2
		C113.8,22.6,113.2,21.3,113.2,19.6z"/>
	<path class="st1" d="M149.6,15.8h-9.2v15.5c0,2.4,0.4,4.1,1.2,4.8s2.2,1.2,4.2,1.2c1.3,0,2.4-0.2,3.4-0.7v0.5
		c-1,0.4-2.1,0.6-3.4,0.6c-2.2,0-3.8-0.5-4.6-1.4c-0.8-0.9-1.2-2.6-1.2-5.1V15.8h-5.6v-0.4h5.6V6.9h0.5v8.5h9.2V15.8z"/>
	<path class="st1" d="M172.2,32.1h-0.4c-0.8,1.8-2.1,3.2-3.6,4.2c-1.6,1-3.4,1.5-5.5,1.5c-2,0-3.6-0.6-4.8-1.7
		c-1.2-1.1-1.7-2.7-1.7-4.7c0-0.8,0.1-1.5,0.3-2.2c0.2-0.7,0.6-1.4,1.2-2.1c0.6-0.7,1.3-1.3,2.2-1.8c0.9-0.5,2.1-0.9,3.7-1.3
		c1.6-0.3,3.4-0.5,5.4-0.5h3.4V21c0-2.4-0.5-4-1.6-5c-1-1-2.8-1.5-5.4-1.5c-3,0-5.7,0.5-8,1.5v-0.5c2.4-1,5-1.5,8-1.5
		c2.7,0,4.6,0.5,5.7,1.6c1.1,1.1,1.7,2.8,1.7,5.3v16.3h-0.4V32.1z M172.2,23.9h-3.4c-8.2,0-12.3,2.5-12.3,7.4c0,1.9,0.5,3.3,1.6,4.4
		c1.1,1.1,2.5,1.6,4.4,1.6c2.8,0,5.1-0.9,6.9-2.6c1.8-1.7,2.7-3.9,2.7-6.6V23.9z"/>
	<path class="st1" d="M180.6,21.1h0.4c0.9-2.1,2.3-3.7,4.1-4.8c1.8-1.1,4-1.7,6.4-1.7h0.7V15h-0.7c-3.2,0-5.8,1-7.9,2.9
		c-2.1,2-3.1,4.5-3.1,7.6v11.8h-0.4V14.5h0.4V21.1z"/>
	<path class="st1" d="M213.1,15.8h-9.2v15.5c0,2.4,0.4,4.1,1.2,4.8s2.2,1.2,4.2,1.2c1.3,0,2.4-0.2,3.4-0.7v0.5
		c-1,0.4-2.1,0.6-3.4,0.6c-2.2,0-3.8-0.5-4.6-1.4c-0.8-0.9-1.2-2.6-1.2-5.1V15.8h-5.6v-0.4h5.6V6.9h0.5v8.5h9.2V15.8z"/>
	<path class="st1" d="M220.1,19.6c0-1.7,0.7-3,2-4.1c1.3-1,3.1-1.5,5.4-1.5c2.5,0,4.9,0.4,7.2,1.3v0.6c-2.3-0.9-4.7-1.4-7.2-1.4
		c-2.2,0-3.9,0.5-5.1,1.4c-1.2,0.9-1.9,2.2-1.9,3.8c0,1.4,0.5,2.5,1.5,3.5s2.8,1.6,5.5,2.1c2.7,0.6,4.7,1.3,5.9,2.4
		c1.2,1,1.9,2.4,1.9,4.1c0,1.9-0.7,3.3-2.1,4.4c-1.4,1.1-3.3,1.6-5.7,1.6c-2.6,0-5.1-0.6-7.4-1.7v-0.5c2.2,1.2,4.7,1.7,7.4,1.7
		c2.3,0,4.1-0.5,5.4-1.5c1.3-1,2-2.4,2-4.1c0-1.4-0.5-2.6-1.5-3.6c-1-1-3-1.8-5.9-2.4c-2.7-0.6-4.6-1.3-5.7-2.2
		C220.7,22.6,220.1,21.3,220.1,19.6z"/>
	<path class="st1" d="M267.6,14.9h-0.4l-6.6,22.4h-1l-7-22.8h0.5l6.8,22.4h0.4l6.7-22.4h1l6.6,22.4h0.4l6.9-22.4h0.5l-7,22.8h-1
		L267.6,14.9z"/>
	<path class="st1" d="M291,8.2v-4h0.5v4H291z M291,37.3V14.5h0.5v22.8H291z"/>
	<path class="st1" d="M315.5,15.8h-9.2v15.5c0,2.4,0.4,4.1,1.2,4.8s2.2,1.2,4.2,1.2c1.3,0,2.4-0.2,3.4-0.7v0.5
		c-1,0.4-2.1,0.6-3.4,0.6c-2.2,0-3.8-0.5-4.6-1.4c-0.8-0.9-1.2-2.6-1.2-5.1V15.8h-5.6v-0.4h5.6V6.9h0.5v8.5h9.2V15.8z"/>
	<path class="st1" d="M323.9,19.3h0.4c0.9-1.5,2.1-2.7,3.6-3.7c1.5-1,3.1-1.6,4.6-1.6c2.6,0,4.5,0.7,5.7,2.2
		c1.1,1.5,1.7,3.9,1.7,7.5v13.6h-0.4V23.7c0-3.6-0.6-6-1.7-7.3c-1.1-1.3-2.9-1.9-5.3-1.9c-2,0-3.9,0.8-5.8,2.5
		c-1.9,1.7-2.9,3.3-2.9,4.9v15.4h-0.5V4.2h0.5V19.3z"/>
	<path class="st1" d="M373.9,32.1h-0.4c-0.8,1.8-2.1,3.2-3.6,4.2c-1.6,1-3.4,1.5-5.5,1.5c-2,0-3.6-0.6-4.8-1.7
		c-1.2-1.1-1.7-2.7-1.7-4.7c0-0.8,0.1-1.5,0.3-2.2c0.2-0.7,0.6-1.4,1.2-2.1c0.6-0.7,1.3-1.3,2.2-1.8c0.9-0.5,2.1-0.9,3.7-1.3
		c1.6-0.3,3.4-0.5,5.4-0.5h3.4V21c0-2.4-0.5-4-1.6-5c-1-1-2.8-1.5-5.4-1.5c-3,0-5.7,0.5-8,1.5v-0.5c2.4-1,5-1.5,8-1.5
		c2.7,0,4.6,0.5,5.7,1.6c1.1,1.1,1.7,2.8,1.7,5.3v16.3h-0.4V32.1z M373.9,23.9h-3.4c-8.2,0-12.3,2.5-12.3,7.4c0,1.9,0.5,3.3,1.6,4.4
		c1.1,1.1,2.5,1.6,4.4,1.6c2.8,0,5.1-0.9,6.9-2.6c1.8-1.7,2.7-3.9,2.7-6.6V23.9z"/>
	<path class="st1" d="M392.5,19.6c0-1.7,0.7-3,2-4.1c1.3-1,3.1-1.5,5.4-1.5c2.5,0,4.9,0.4,7.2,1.3v0.6c-2.3-0.9-4.7-1.4-7.2-1.4
		c-2.2,0-3.9,0.5-5.1,1.4c-1.2,0.9-1.9,2.2-1.9,3.8c0,1.4,0.5,2.5,1.5,3.5s2.8,1.6,5.5,2.1c2.7,0.6,4.7,1.3,5.9,2.4
		c1.2,1,1.9,2.4,1.9,4.1c0,1.9-0.7,3.3-2.1,4.4c-1.4,1.1-3.3,1.6-5.7,1.6c-2.6,0-5.1-0.6-7.4-1.7v-0.5c2.2,1.2,4.7,1.7,7.4,1.7
		c2.3,0,4.1-0.5,5.4-1.5c1.3-1,2-2.4,2-4.1c0-1.4-0.5-2.6-1.5-3.6c-1-1-3-1.8-5.9-2.4c-2.7-0.6-4.6-1.3-5.7-2.2
		C393.1,22.6,392.5,21.3,392.5,19.6z"/>
	<path class="st1" d="M428.9,15.8h-9.2v15.5c0,2.4,0.4,4.1,1.2,4.8s2.2,1.2,4.2,1.2c1.3,0,2.4-0.2,3.4-0.7v0.5
		c-1,0.4-2.1,0.6-3.4,0.6c-2.2,0-3.8-0.5-4.6-1.4c-0.8-0.9-1.2-2.6-1.2-5.1V15.8h-5.6v-0.4h5.6V6.9h0.5v8.5h9.2V15.8z"/>
	<path class="st1" d="M436.8,29c0,3.2,0.6,5.4,1.7,6.5c1.1,1.2,2.8,1.8,5,1.8c2,0,4-0.8,5.9-2.4c1.9-1.6,2.8-3.3,2.8-4.9V14.5h0.5
		v22.8h-0.5v-4.7h-0.4c-0.8,1.5-2,2.7-3.6,3.7c-1.6,1-3.1,1.5-4.7,1.5c-2.5,0-4.3-0.7-5.4-2c-1.2-1.3-1.7-3.6-1.7-6.7V14.5h0.4V29z"
		/>
	<path class="st1" d="M460.8,19.2h0.4c0.9-1.5,2.1-2.7,3.6-3.7c1.6-1,3.1-1.5,4.7-1.5c2.6,0,4.5,0.7,5.7,2.2
		c1.1,1.5,1.7,3.9,1.7,7.5v13.6h-0.4V23.7c0-3.6-0.6-6-1.7-7.3c-1.1-1.3-2.9-1.9-5.3-1.9c-2,0-4,0.8-5.9,2.4c-1.9,1.6-2.8,3.3-2.8,5
		v15.4h-0.4V14.5h0.4V19.2z"/>
	<path class="st1" d="M484.8,19.2h0.4c0.9-1.5,2.1-2.7,3.6-3.7c1.6-1,3.1-1.5,4.7-1.5c2.6,0,4.5,0.7,5.7,2.2
		c1.1,1.5,1.7,3.9,1.7,7.5v13.6h-0.4V23.7c0-3.6-0.6-6-1.7-7.3s-2.9-1.9-5.3-1.9c-2,0-4,0.8-5.9,2.4c-1.9,1.6-2.8,3.3-2.8,5v15.4
		h-0.4V14.5h0.4V19.2z"/>
	<path class="st1" d="M510.6,8.2v-4h0.5v4H510.6z M510.6,37.3V14.5h0.5v22.8H510.6z"/>
	<path class="st1" d="M521.5,19.2h0.4c0.9-1.5,2.1-2.7,3.6-3.7c1.6-1,3.1-1.5,4.7-1.5c2.6,0,4.5,0.7,5.7,2.2
		c1.1,1.5,1.7,3.9,1.7,7.5v13.6h-0.4V23.7c0-3.6-0.6-6-1.7-7.3s-2.9-1.9-5.3-1.9c-2,0-4,0.8-5.9,2.4c-1.9,1.6-2.8,3.3-2.8,5v15.4
		H521V14.5h0.4V19.2z"/>
	<path class="st1" d="M552.6,34.7c-3.2,0-5.5-0.3-6.9-1c-1.4-0.7-2.1-1.7-2.1-3.1c0-1.1,0.6-2.2,1.8-3.2c-1.6-1.5-2.4-3.3-2.4-5.5
		c0-2.3,0.8-4.2,2.3-5.7c1.5-1.5,3.5-2.2,6-2.2c4,0,6.8,1.4,8.3,4.3h0.4v-3.8h0.4v7.4c0,2.3-0.8,4.1-2.3,5.4c-1.6,1.3-3.7,2-6.4,2
		c-2.3,0-4.3-0.5-5.9-1.6c-1.1,0.9-1.7,1.8-1.7,2.9c0,0.5,0.1,1,0.3,1.3c0.2,0.4,0.6,0.7,1.2,1.1c0.6,0.4,1.4,0.7,2.6,0.9
		c1.2,0.2,2.6,0.3,4.4,0.3c5.8,0,8.7,2.1,8.7,6.3c0,2.1-0.9,3.8-2.7,5.2c-1.8,1.3-4.3,2-7.4,2c-3,0-5.8-0.6-8.3-1.9v-0.5
		c2.3,1.3,5,1.9,8.3,1.9c2.9,0,5.3-0.6,7-1.8c1.7-1.2,2.6-2.8,2.6-4.9c0-0.8-0.1-1.4-0.3-2c-0.2-0.6-0.5-1.2-1.1-1.8
		c-0.5-0.6-1.4-1.1-2.5-1.5C555.8,34.8,554.4,34.7,552.6,34.7z M551.8,28.8c2.5,0,4.5-0.6,6-1.9c1.5-1.2,2.2-2.9,2.2-5
		c0-2.2-0.8-4-2.4-5.4c-1.6-1.3-3.7-2-6.3-2c-2.3,0-4.1,0.7-5.6,2.1c-1.5,1.4-2.2,3.1-2.2,5.3c0,2.2,0.7,3.9,2.2,5.1
		C547.1,28.2,549.2,28.8,551.8,28.8z"/>
	<path class="st1" d="M592.6,14.9h-0.4l-6.6,22.4h-1l-7-22.8h0.5l6.8,22.4h0.4l6.7-22.4h1l6.6,22.4h0.4l6.9-22.4h0.5l-7,22.8h-1
		L592.6,14.9z"/>
	<path class="st1" d="M622.4,37.3c2.5,0,4.7-0.4,6.7-1.3v0.5c-2.1,0.8-4.3,1.2-6.7,1.2c-6.9,0-10.3-3.9-10.3-11.8
		c0-1.9,0.2-3.6,0.6-5c0.4-1.5,0.9-2.6,1.5-3.5c0.6-0.8,1.4-1.5,2.2-2c0.9-0.5,1.7-0.9,2.6-1.1c0.8-0.2,1.7-0.3,2.7-0.3
		c5.8,0,8.7,3.8,8.7,11.4v0.2h-17.9C612.6,33.5,615.9,37.3,622.4,37.3z M612.6,25.2H630c-0.1-7.1-2.9-10.7-8.3-10.7
		C615.9,14.5,612.8,18.1,612.6,25.2z"/>
	<path class="st1" d="M639,37.3V4.2h0.5v33.1H639z"/>
	<path class="st1" d="M657.7,14.5c-1.8,0-3.4,0.3-4.7,1c-1.3,0.7-2.3,1.6-2.9,2.8s-1.1,2.4-1.4,3.6c-0.3,1.2-0.4,2.5-0.4,4
		c0,7.6,3.3,11.4,9.8,11.4c2.1,0,4.1-0.4,5.8-1.1v0.5c-1.9,0.7-3.8,1-5.8,1c-3.3,0-5.9-1-7.7-3c-1.8-2-2.6-4.9-2.6-8.9
		c0-3.9,0.9-6.9,2.6-8.9c1.7-2,4.1-3,7.3-3c2.1,0,4.1,0.3,6,1v0.5C661.9,14.9,659.9,14.5,657.7,14.5z"/>
	<path class="st1" d="M686.9,34.7c-1.7,2-4.1,3.1-7.2,3.1c-3.1,0-5.6-1-7.3-3.1c-1.7-2.1-2.6-5-2.6-8.8c0-3.8,0.9-6.7,2.6-8.8
		c1.7-2.1,4.1-3.1,7.3-3.1c3.1,0,5.6,1,7.3,3.1c1.7,2.1,2.6,5,2.6,8.8C689.6,29.7,688.7,32.6,686.9,34.7z M672.7,34.3c1.6,2,4,3,7,3
		c3,0,5.3-1,6.9-2.9c1.6-2,2.4-4.8,2.4-8.5s-0.8-6.5-2.4-8.5c-1.6-2-3.9-2.9-6.9-2.9c-3,0-5.3,1-6.9,2.9c-1.6,2-2.4,4.8-2.4,8.5
		S671.1,32.4,672.7,34.3z"/>
	<path class="st1" d="M696.1,18.6h0.4c0.7-1.4,1.7-2.5,2.9-3.3c1.2-0.8,2.4-1.2,3.6-1.2c3.4,0,5.5,1.8,6.2,5.3h0.4
		c0.7-1.5,1.6-2.8,2.9-3.8s2.6-1.5,4-1.5c2.2,0,3.8,0.7,4.9,2.1c1.1,1.4,1.6,3.6,1.6,6.6v14.5h-0.5V22.8c0-2.9-0.5-4.9-1.4-6.3
		c-0.9-1.3-2.5-2-4.6-2c-1.7,0-3.3,0.8-4.7,2.3s-2.2,3.2-2.2,5.1v15.4h-0.5V22.8c0-2.9-0.5-5-1.4-6.3c-1-1.3-2.5-1.9-4.6-1.9
		c-1.7,0-3.3,0.8-4.8,2.3c-1.5,1.5-2.2,3.2-2.2,5.1v15.4h-0.4V14.5h0.4V18.6z"/>
	<path class="st1" d="M739.2,37.3c2.5,0,4.7-0.4,6.7-1.3v0.5c-2.1,0.8-4.3,1.2-6.7,1.2c-6.9,0-10.3-3.9-10.3-11.8
		c0-1.9,0.2-3.6,0.6-5c0.4-1.5,0.9-2.6,1.5-3.5c0.6-0.8,1.4-1.5,2.2-2c0.9-0.5,1.7-0.9,2.6-1.1c0.8-0.2,1.7-0.3,2.7-0.3
		c5.8,0,8.7,3.8,8.7,11.4v0.2h-17.9C729.3,33.5,732.6,37.3,739.2,37.3z M729.3,25.2h17.4c-0.1-7.1-2.9-10.7-8.3-10.7
		C732.6,14.5,729.6,18.1,729.3,25.2z"/>
	<path class="st1" d="M783.3,25.9c0,3.8-0.8,6.7-2.4,8.8c-1.6,2.1-3.9,3.1-6.8,3.1c-1.9,0-3.5-0.4-5-1.2c-1.4-0.8-2.6-2-3.3-3.4
		h-0.4v14H765V14.5h0.4v4.2h0.4c0.8-1.5,1.9-2.6,3.3-3.4c1.4-0.8,3.1-1.2,5-1.2c2.9,0,5.2,1,6.8,3.1S783.3,22.1,783.3,25.9z
		 M782.9,25.9c0-3.7-0.8-6.6-2.2-8.5c-1.5-1.9-3.7-2.9-6.5-2.9c-2.5,0-4.6,0.7-6.2,2.2c-1.7,1.5-2.5,3.3-2.5,5.4v7.6
		c0,2.1,0.8,3.9,2.5,5.4c1.7,1.5,3.7,2.2,6.2,2.2c2.8,0,4.9-1,6.5-2.9C782.1,32.4,782.9,29.6,782.9,25.9z"/>
	<path class="st1" d="M804.6,32.1h-0.4c-0.8,1.8-2.1,3.2-3.6,4.2c-1.6,1-3.4,1.5-5.5,1.5c-2,0-3.6-0.6-4.8-1.7
		c-1.2-1.1-1.7-2.7-1.7-4.7c0-0.8,0.1-1.5,0.3-2.2c0.2-0.7,0.6-1.4,1.2-2.1c0.6-0.7,1.3-1.3,2.2-1.8c0.9-0.5,2.1-0.9,3.7-1.3
		c1.6-0.3,3.4-0.5,5.4-0.5h3.4V21c0-2.4-0.5-4-1.6-5c-1-1-2.8-1.5-5.4-1.5c-3,0-5.7,0.5-8,1.5v-0.5c2.4-1,5-1.5,8-1.5
		c2.7,0,4.6,0.5,5.7,1.6c1.1,1.1,1.7,2.8,1.7,5.3v16.3h-0.4V32.1z M804.6,23.9h-3.4c-8.2,0-12.3,2.5-12.3,7.4c0,1.9,0.5,3.3,1.6,4.4
		c1.1,1.1,2.5,1.6,4.4,1.6c2.8,0,5.1-0.9,6.9-2.6c1.8-1.7,2.7-3.9,2.7-6.6V23.9z"/>
	<path class="st1" d="M820.1,34.7c-3.2,0-5.5-0.3-6.9-1c-1.4-0.7-2.1-1.7-2.1-3.1c0-1.1,0.6-2.2,1.8-3.2c-1.6-1.5-2.4-3.3-2.4-5.5
		c0-2.3,0.8-4.2,2.3-5.7c1.5-1.5,3.5-2.2,6-2.2c4,0,6.8,1.4,8.3,4.3h0.4v-3.8h0.4v7.4c0,2.3-0.8,4.1-2.3,5.4c-1.6,1.3-3.7,2-6.4,2
		c-2.3,0-4.3-0.5-5.9-1.6c-1.1,0.9-1.7,1.8-1.7,2.9c0,0.5,0.1,1,0.3,1.3c0.2,0.4,0.6,0.7,1.2,1.1c0.6,0.4,1.4,0.7,2.6,0.9
		c1.2,0.2,2.6,0.3,4.4,0.3c5.8,0,8.7,2.1,8.7,6.3c0,2.1-0.9,3.8-2.7,5.2c-1.8,1.3-4.3,2-7.4,2c-3,0-5.8-0.6-8.3-1.9v-0.5
		c2.3,1.3,5,1.9,8.3,1.9c2.9,0,5.3-0.6,7-1.8c1.7-1.2,2.6-2.8,2.6-4.9c0-0.8-0.1-1.4-0.3-2c-0.2-0.6-0.5-1.2-1.1-1.8
		c-0.5-0.6-1.4-1.1-2.5-1.5C823.3,34.8,821.9,34.7,820.1,34.7z M819.3,28.8c2.5,0,4.5-0.6,6-1.9c1.5-1.2,2.2-2.9,2.2-5
		c0-2.2-0.8-4-2.4-5.4c-1.6-1.3-3.7-2-6.3-2c-2.3,0-4.1,0.7-5.6,2.1c-1.5,1.4-2.2,3.1-2.2,5.3c0,2.2,0.7,3.9,2.2,5.1
		C814.6,28.2,816.7,28.8,819.3,28.8z"/>
	<path class="st1" d="M843.5,37.3c2.5,0,4.7-0.4,6.7-1.3v0.5c-2.1,0.8-4.3,1.2-6.7,1.2c-6.9,0-10.3-3.9-10.3-11.8
		c0-1.9,0.2-3.6,0.6-5c0.4-1.5,0.9-2.6,1.5-3.5c0.6-0.8,1.4-1.5,2.2-2c0.9-0.5,1.7-0.9,2.6-1.1c0.8-0.2,1.7-0.3,2.7-0.3
		c5.8,0,8.7,3.8,8.7,11.4v0.2h-17.9C833.7,33.5,836.9,37.3,843.5,37.3z M833.7,25.2h17.4c-0.1-7.1-2.9-10.7-8.3-10.7
		C836.9,14.5,833.9,18.1,833.7,25.2z"/>
	<path class="st1" d="M858.7,37.3v-4.5h0.5v4.5H858.7z"/>
	<path class="st1" d="M19.4,92.6c2.7,0,5.2-0.5,7.6-1.5v0.5c-2.4,1-4.9,1.5-7.6,1.5c-3.8,0-6.8-1.5-9.1-4.4c-2.3-2.9-3.5-7-3.5-12.2
		c0-5.2,1.1-9.3,3.3-12.2c2.2-2.9,5.1-4.4,8.8-4.4c2.8,0,5.4,0.5,7.8,1.5V62c-2.4-1-4.9-1.5-7.8-1.5c-3.7,0-6.5,1.4-8.6,4.3
		c-2.1,2.9-3.1,6.8-3.1,11.8c0,5,1.1,8.9,3.2,11.8C12.7,91.2,15.7,92.6,19.4,92.6z"/>
	<path class="st1" d="M35.4,76.4h0.4c0.9-2.1,2.3-3.7,4.1-4.8c1.8-1.1,4-1.7,6.4-1.7H47v0.4h-0.7c-3.2,0-5.8,1-7.9,2.9
		c-2.1,2-3.1,4.5-3.1,7.6v11.8h-0.4V69.8h0.4V76.4z"/>
	<path class="st1" d="M62.5,92.6c2.5,0,4.7-0.4,6.7-1.3v0.5c-2.1,0.8-4.3,1.2-6.7,1.2c-6.9,0-10.3-3.9-10.3-11.8
		c0-1.9,0.2-3.6,0.6-5c0.4-1.5,0.9-2.6,1.5-3.5c0.6-0.8,1.4-1.5,2.2-2c0.9-0.5,1.7-0.9,2.6-1.1c0.8-0.2,1.7-0.3,2.7-0.3
		c5.8,0,8.7,3.8,8.7,11.4V81H52.7C52.7,88.8,56,92.6,62.5,92.6z M52.7,80.5h17.4c-0.1-7.1-2.9-10.7-8.3-10.7
		C56,69.8,52.9,73.4,52.7,80.5z"/>
	<path class="st1" d="M91.9,87.4h-0.4c-0.8,1.8-2.1,3.2-3.6,4.2c-1.6,1-3.4,1.5-5.5,1.5c-2,0-3.6-0.6-4.8-1.7
		c-1.2-1.1-1.7-2.7-1.7-4.7c0-0.8,0.1-1.5,0.3-2.2c0.2-0.7,0.6-1.4,1.2-2.1c0.6-0.7,1.3-1.3,2.2-1.8c0.9-0.5,2.1-0.9,3.7-1.3
		c1.6-0.3,3.4-0.5,5.4-0.5h3.4v-2.4c0-2.4-0.5-4-1.6-5c-1-1-2.8-1.5-5.4-1.5c-3,0-5.7,0.5-8,1.5v-0.5c2.4-1,5-1.5,8-1.5
		c2.7,0,4.6,0.5,5.7,1.6c1.1,1.1,1.7,2.8,1.7,5.3v16.3h-0.4V87.4z M91.9,79.2h-3.4c-8.2,0-12.3,2.5-12.3,7.4c0,1.9,0.5,3.3,1.6,4.4
		c1.1,1.1,2.5,1.6,4.4,1.6c2.8,0,5.1-0.9,6.9-2.6c1.8-1.7,2.7-3.9,2.7-6.6V79.2z"/>
	<path class="st1" d="M113.9,71.1h-9.2v15.5c0,2.4,0.4,4.1,1.2,4.8s2.2,1.2,4.2,1.2c1.3,0,2.4-0.2,3.4-0.7v0.5
		c-1,0.4-2.1,0.6-3.4,0.6c-2.2,0-3.8-0.5-4.6-1.4c-0.8-0.9-1.2-2.6-1.2-5.1V71.1h-5.6v-0.4h5.6v-8.5h0.5v8.5h9.2V71.1z"/>
	<path class="st1" d="M130.3,92.6c2.5,0,4.7-0.4,6.7-1.3v0.5c-2.1,0.8-4.3,1.2-6.7,1.2c-6.9,0-10.3-3.9-10.3-11.8
		c0-1.9,0.2-3.6,0.6-5c0.4-1.5,0.9-2.6,1.5-3.5c0.6-0.8,1.4-1.5,2.2-2c0.9-0.5,1.7-0.9,2.6-1.1c0.8-0.2,1.7-0.3,2.7-0.3
		c5.8,0,8.7,3.8,8.7,11.4V81h-17.9C120.5,88.8,123.7,92.6,130.3,92.6z M120.5,80.5h17.4c-0.1-7.1-2.9-10.7-8.3-10.7
		C123.7,69.8,120.7,73.4,120.5,80.5z"/>
	<path class="st1" d="M165.1,91.9h0.3l9-22.1h0.5l-9.5,22.9c-1.5,3.8-3.1,6.5-4.9,8c-1.7,1.5-3.8,2.2-6.1,2.2v-0.5
		c2.3,0,4.2-0.7,5.8-2.1s3.2-3.9,4.7-7.5l-9.9-23h0.5L165.1,91.9z"/>
	<path class="st1" d="M196.5,90c-1.7,2-4.1,3.1-7.2,3.1c-3.1,0-5.6-1-7.3-3.1c-1.7-2.1-2.6-5-2.6-8.8c0-3.8,0.9-6.7,2.6-8.8
		c1.7-2.1,4.1-3.1,7.3-3.1c3.1,0,5.6,1,7.3,3.1c1.7,2.1,2.6,5,2.6,8.8C199.1,85,198.3,87.9,196.5,90z M182.3,89.6c1.6,2,4,3,7,3
		c3,0,5.3-1,6.9-2.9c1.6-2,2.4-4.8,2.4-8.5c0-3.7-0.8-6.5-2.4-8.5c-1.6-2-3.9-2.9-6.9-2.9c-3,0-5.3,1-6.9,2.9
		c-1.6,2-2.4,4.8-2.4,8.5C179.9,84.9,180.7,87.7,182.3,89.6z"/>
	<path class="st1" d="M205.5,84.3c0,3.2,0.6,5.3,1.7,6.5c1.1,1.2,2.8,1.8,5,1.8c2,0,4-0.8,5.9-2.4c1.9-1.6,2.8-3.3,2.8-4.9V69.8h0.5
		v22.8h-0.5v-4.7h-0.4c-0.8,1.5-2,2.7-3.6,3.7c-1.6,1-3.1,1.5-4.7,1.5c-2.5,0-4.3-0.7-5.4-2c-1.2-1.3-1.7-3.6-1.7-6.7V69.8h0.4V84.3
		z"/>
	<path class="st1" d="M229.5,76.4h0.4c0.9-2.1,2.3-3.7,4.1-4.8c1.8-1.1,4-1.7,6.4-1.7h0.7v0.4h-0.7c-3.2,0-5.8,1-7.9,2.9
		c-2.1,2-3.1,4.5-3.1,7.6v11.8H229V69.8h0.4V76.4z"/>
	<path class="st1" d="M247.2,74.9c0-1.7,0.7-3,2-4.1c1.3-1,3.1-1.5,5.4-1.5c2.5,0,4.9,0.4,7.2,1.3v0.6c-2.3-0.9-4.7-1.4-7.2-1.4
		c-2.2,0-3.9,0.5-5.1,1.4c-1.2,0.9-1.9,2.2-1.9,3.8c0,1.4,0.5,2.5,1.5,3.5s2.8,1.6,5.5,2.1c2.7,0.6,4.7,1.3,5.9,2.4
		c1.2,1,1.9,2.4,1.9,4.1c0,1.9-0.7,3.3-2.1,4.4s-3.3,1.6-5.7,1.6c-2.6,0-5.1-0.6-7.4-1.7v-0.5c2.2,1.2,4.7,1.7,7.4,1.7
		c2.3,0,4.1-0.5,5.4-1.5c1.3-1,2-2.4,2-4.1c0-1.4-0.5-2.6-1.5-3.6c-1-1-3-1.8-5.9-2.4c-2.7-0.6-4.6-1.3-5.7-2.2
		C247.8,77.9,247.2,76.6,247.2,74.9z"/>
	<path class="st1" d="M270.4,92.6v-4.5h0.5v4.5H270.4z"/>
	<path class="st1" d="M293.1,92.6V60.4h0.5v32.2H293.1z"/>
	<path class="st1" d="M317.6,71.1h-9.2v15.5c0,2.4,0.4,4.1,1.2,4.8s2.2,1.2,4.2,1.2c1.3,0,2.4-0.2,3.4-0.7v0.5
		c-1,0.4-2.1,0.6-3.4,0.6c-2.2,0-3.8-0.5-4.6-1.4c-0.8-0.9-1.2-2.6-1.2-5.1V71.1h-5.6v-0.4h5.6v-8.5h0.5v8.5h9.2V71.1z"/>
	<path class="st1" d="M325.6,68h-0.5l3.4-9.4h0.5L325.6,68z"/>
	<path class="st1" d="M334.8,74.9c0-1.7,0.7-3,2-4.1c1.3-1,3.1-1.5,5.4-1.5c2.5,0,4.9,0.4,7.2,1.3v0.6c-2.3-0.9-4.7-1.4-7.2-1.4
		c-2.2,0-3.9,0.5-5.1,1.4c-1.2,0.9-1.9,2.2-1.9,3.8c0,1.4,0.5,2.5,1.5,3.5s2.8,1.6,5.5,2.1c2.7,0.6,4.7,1.3,5.9,2.4
		c1.2,1,1.9,2.4,1.9,4.1c0,1.9-0.7,3.3-2.1,4.4s-3.3,1.6-5.7,1.6c-2.6,0-5.1-0.6-7.4-1.7v-0.5c2.2,1.2,4.7,1.7,7.4,1.7
		c2.3,0,4.1-0.5,5.4-1.5c1.3-1,2-2.4,2-4.1c0-1.4-0.5-2.6-1.5-3.6c-1-1-3-1.8-5.9-2.4c-2.7-0.6-4.6-1.3-5.7-2.2
		C335.3,77.9,334.8,76.6,334.8,74.9z"/>
	<path class="st1" d="M377.2,92.6c2.5,0,4.7-0.4,6.7-1.3v0.5c-2.1,0.8-4.3,1.2-6.7,1.2c-6.9,0-10.3-3.9-10.3-11.8
		c0-1.9,0.2-3.6,0.6-5c0.4-1.5,0.9-2.6,1.5-3.5c0.6-0.8,1.4-1.5,2.2-2c0.9-0.5,1.7-0.9,2.6-1.1c0.8-0.2,1.7-0.3,2.7-0.3
		c5.8,0,8.7,3.8,8.7,11.4V81h-17.9C367.3,88.8,370.6,92.6,377.2,92.6z M367.3,80.5h17.4c-0.1-7.1-2.9-10.7-8.3-10.7
		C370.6,69.8,367.6,73.4,367.3,80.5z"/>
	<path class="st1" d="M406.5,87.4h-0.4c-0.8,1.8-2.1,3.2-3.6,4.2c-1.6,1-3.4,1.5-5.5,1.5c-2,0-3.6-0.6-4.8-1.7
		c-1.2-1.1-1.7-2.7-1.7-4.7c0-0.8,0.1-1.5,0.3-2.2c0.2-0.7,0.6-1.4,1.2-2.1c0.6-0.7,1.3-1.3,2.2-1.8c0.9-0.5,2.1-0.9,3.7-1.3
		c1.6-0.3,3.4-0.5,5.4-0.5h3.4v-2.4c0-2.4-0.5-4-1.6-5c-1-1-2.8-1.5-5.4-1.5c-3,0-5.7,0.5-8,1.5v-0.5c2.4-1,5-1.5,8-1.5
		c2.7,0,4.6,0.5,5.7,1.6c1.1,1.1,1.7,2.8,1.7,5.3v16.3h-0.4V87.4z M406.5,79.2h-3.4c-8.2,0-12.3,2.5-12.3,7.4c0,1.9,0.5,3.3,1.6,4.4
		c1.1,1.1,2.5,1.6,4.4,1.6c2.8,0,5.1-0.9,6.9-2.6c1.8-1.7,2.7-3.9,2.7-6.6V79.2z"/>
	<path class="st1" d="M413.8,74.9c0-1.7,0.7-3,2-4.1c1.3-1,3.1-1.5,5.4-1.5c2.5,0,4.9,0.4,7.2,1.3v0.6c-2.3-0.9-4.7-1.4-7.2-1.4
		c-2.2,0-3.9,0.5-5.1,1.4c-1.2,0.9-1.9,2.2-1.9,3.8c0,1.4,0.5,2.5,1.5,3.5s2.8,1.6,5.5,2.1c2.7,0.6,4.7,1.3,5.9,2.4
		c1.2,1,1.9,2.4,1.9,4.1c0,1.9-0.7,3.3-2.1,4.4s-3.3,1.6-5.7,1.6c-2.6,0-5.1-0.6-7.4-1.7v-0.5c2.2,1.2,4.7,1.7,7.4,1.7
		c2.3,0,4.1-0.5,5.4-1.5c1.3-1,2-2.4,2-4.1c0-1.4-0.5-2.6-1.5-3.6c-1-1-3-1.8-5.9-2.4c-2.7-0.6-4.6-1.3-5.7-2.2
		C414.3,77.9,413.8,76.6,413.8,74.9z"/>
	<path class="st1" d="M445,91.9h0.3l9-22.1h0.5l-9.5,22.9c-1.5,3.8-3.1,6.5-4.9,8c-1.7,1.5-3.8,2.2-6.1,2.2v-0.5
		c2.3,0,4.2-0.7,5.8-2.1s3.2-3.9,4.7-7.5l-9.9-23h0.5L445,91.9z"/>
	<path class="st1" d="M487.3,87.4h-0.4c-0.8,1.8-2.1,3.2-3.6,4.2c-1.6,1-3.4,1.5-5.5,1.5c-2,0-3.6-0.6-4.8-1.7
		c-1.2-1.1-1.7-2.7-1.7-4.7c0-0.8,0.1-1.5,0.3-2.2c0.2-0.7,0.6-1.4,1.2-2.1c0.6-0.7,1.3-1.3,2.2-1.8c0.9-0.5,2.1-0.9,3.7-1.3
		c1.6-0.3,3.4-0.5,5.4-0.5h3.4v-2.4c0-2.4-0.5-4-1.6-5c-1-1-2.8-1.5-5.4-1.5c-3,0-5.7,0.5-8,1.5v-0.5c2.4-1,5-1.5,8-1.5
		c2.7,0,4.6,0.5,5.7,1.6c1.1,1.1,1.7,2.8,1.7,5.3v16.3h-0.4V87.4z M487.3,79.2h-3.4c-8.2,0-12.3,2.5-12.3,7.4c0,1.9,0.5,3.3,1.6,4.4
		c1.1,1.1,2.5,1.6,4.4,1.6c2.8,0,5.1-0.9,6.9-2.6c1.8-1.7,2.7-3.9,2.7-6.6V79.2z"/>
	<path class="st1" d="M495.7,74.5h0.4c0.9-1.5,2.1-2.7,3.6-3.7c1.6-1,3.1-1.5,4.7-1.5c2.6,0,4.5,0.7,5.7,2.2
		c1.1,1.5,1.7,3.9,1.7,7.5v13.6h-0.4V79c0-3.6-0.6-6-1.7-7.3s-2.9-1.9-5.3-1.9c-2,0-4,0.8-5.9,2.4c-1.9,1.6-2.8,3.3-2.8,5v15.4h-0.4
		V69.8h0.4V74.5z"/>
	<path class="st1" d="M535.4,88.5c-0.8,1.4-2,2.5-3.4,3.3c-1.5,0.8-3.1,1.2-4.9,1.2c-2.9,0-5.2-1-6.8-3.1c-1.6-2.1-2.4-5-2.4-8.8
		c0-3.8,0.8-6.7,2.4-8.8c1.6-2.1,3.9-3.1,6.8-3.1c1.8,0,3.4,0.4,4.9,1.3c1.5,0.8,2.6,2,3.4,3.4h0.4V59.5h0.4v33.1h-0.4v-4.1H535.4z
		 M518.4,81.2c0,3.7,0.7,6.5,2.2,8.5c1.5,2,3.6,2.9,6.4,2.9c2.3,0,4.4-0.7,6.1-2.1c1.7-1.4,2.6-3.1,2.6-5v-8.5c0-1.9-0.9-3.6-2.6-5
		c-1.7-1.4-3.8-2.1-6.1-2.1c-2.8,0-5,1-6.5,2.9C519.1,74.7,518.4,77.5,518.4,81.2z"/>
	<path class="st1" d="M567.4,60c1.3,0,2.4,0.2,3.4,0.6V61c-0.9-0.4-2.1-0.6-3.4-0.6c-2,0-3.5,0.4-4.3,1.3c-0.8,0.9-1.2,2.5-1.2,4.7
		v4.2h8.5v0.4h-8.5v21.5h-0.5V71.1h-6.7v-0.4h6.7v-4.2c0-2.4,0.5-4,1.4-5C563.7,60.5,565.2,60,567.4,60z"/>
	<path class="st1" d="M578.7,76.4h0.4c0.9-2.1,2.3-3.7,4.1-4.8c1.8-1.1,4-1.7,6.4-1.7h0.7v0.4h-0.7c-3.2,0-5.8,1-7.9,2.9
		c-2.1,2-3.1,4.5-3.1,7.6v11.8h-0.4V69.8h0.4V76.4z"/>
	<path class="st1" d="M605.8,92.6c2.5,0,4.7-0.4,6.7-1.3v0.5c-2.1,0.8-4.3,1.2-6.7,1.2c-6.9,0-10.3-3.9-10.3-11.8
		c0-1.9,0.2-3.6,0.6-5c0.4-1.5,0.9-2.6,1.5-3.5c0.6-0.8,1.4-1.5,2.2-2c0.9-0.5,1.7-0.9,2.6-1.1c0.8-0.2,1.7-0.3,2.7-0.3
		c5.8,0,8.7,3.8,8.7,11.4V81H596C596,88.8,599.3,92.6,605.8,92.6z M596,80.5h17.4c-0.1-7.1-2.9-10.7-8.3-10.7
		C599.3,69.8,596.2,73.4,596,80.5z"/>
	<path class="st1" d="M628.9,92.6c2.5,0,4.7-0.4,6.7-1.3v0.5c-2.1,0.8-4.3,1.2-6.7,1.2c-6.9,0-10.3-3.9-10.3-11.8
		c0-1.9,0.2-3.6,0.6-5c0.4-1.5,0.9-2.6,1.5-3.5c0.6-0.8,1.4-1.5,2.2-2c0.9-0.5,1.7-0.9,2.6-1.1c0.8-0.2,1.7-0.3,2.7-0.3
		c5.8,0,8.7,3.8,8.7,11.4V81h-17.9C619.1,88.8,622.4,92.6,628.9,92.6z M619.1,80.5h17.4c-0.1-7.1-2.9-10.7-8.3-10.7
		C622.4,69.8,619.3,73.4,619.1,80.5z"/>
	<path class="st1" d="M644.2,92.6v-4.5h0.5v4.5H644.2z"/>
</g>
</svg>
