<svg id="圖層_1" data-name="圖層 1" xmlns="http://www.w3.org/2000/svg" viewBox="0 0 6218.51 244.47"><defs><style>.cls-1{fill:#fcee21;}</style></defs><title>text-land</title><path class="cls-1" d="M194.36,200.35c3,0,3.61-2.34,4-26.79,3.83,3.4,12.33,6.59,17.65,8.29-1.91,30.83-6.8,38.49-19.35,38.49H186.5c-15.31,0-18.5-6.38-18.5-25.3V153.36h-8.72c-2.55,30.2-10,54.44-36.79,69.75a74.45,74.45,0,0,0-6.8-11.06v1.7H51.9v9.14H33.82V157.19a94.17,94.17,0,0,1-7.65,9.57,166.3,166.3,0,0,0-9.78-17.44C26,138.69,35.52,123.16,41.9,107.64H24.68V67.24H65.93v40.4H48.71l9.78,3.61c-1.49,3.4-3,7-4.68,10.63H72.1a63.22,63.22,0,0,0-4.47-9.36l13-5.1H74.43V67h41v40.4H83.79c2.76,4.47,5.53,9.78,6.8,14.46H117v16.8H90.38v8.08h22.33V162.5H90.38v8.93H114.2v15.74H90.38v9.57h25.3v3.62c15.95-11.48,20.63-27.64,22.54-47H124V31.09h81.23V153.36H187.13v41.25c0,5.1.21,5.74,2.55,5.74h4.68ZM44.24,52.78H17.45V34.92H44.24V24.28H63.59V63.62H44.24V52.78Zm-6,42.1H51.47V79.78H38.29v15.1ZM71,138.69H51.9v8.08H71v-8.08Zm0,23.82H51.9v8.93H71V162.5ZM51.9,196.74H71v-9.57H51.9v9.57ZM96.55,63.62H76.77V24.28H96.55V34.7h23.82V52.57H96.55V63.62ZM87.83,94.46h13.4V80H87.83V94.46ZM145,66h38.06V53.42H145V66Zm0,32.53h38.06V86H145V98.5ZM145,131h38.06V118.27H145V131Z"/><path class="cls-1" d="M309.19,108.92c-1.49,3-3.19,5.74-4.89,8.72h99.52V223.32H378.3v-7.65h-77v7.65H277.08v-70a162.75,162.75,0,0,1-32.75,25.52,146.56,146.56,0,0,0-15.95-20.41c22.11-11.91,39.13-29.56,51.88-49.55H235v-20H290.9c1.49-3,2.76-6.17,4-9.14H249.86V60.65h51.88c0.85-3,1.7-6,2.34-9.14-17.65.64-35.3,0.85-51.88,0.64-0.21-5.53-2.55-13.82-4.68-18.92,51.88,0,113.34-2.55,149.06-8.51l14.88,18.07c-22.54,3.83-50.4,6.17-79.53,7.65-0.85,3.4-1.91,6.8-3,10.21h83.36V79.78H322.16c-1.06,3-2.34,6.17-3.61,9.14H423.8v20H309.19Zm69.11,27.86h-77v9.14h77v-9.14Zm0,24.88h-77V171h77v-9.36Zm0,34.87v-9.78h-77v9.78h77Z"/><path class="cls-1" d="M485.89,179.73c-5.74,12.76-15.1,27.43-23,36.57a138.64,138.64,0,0,0-17.44-13.18c7.65-7.87,14.88-19.35,19.35-29.77Zm78.89-58.26H445.7V102.32h47.84c-1.06-2.34-1.91-4.47-3-6.38l16.59-3.4H455.27v-61H557.34v61H515.66a69.91,69.91,0,0,1,4.89,9.78h44.23v19.14Zm-47.21,51v27.86c0,10.42-1.49,15.52-8.72,18.71-6.59,3-15.52,3.19-26.79,3.19a76,76,0,0,0-7-20.2c6.38,0.21,13,.21,15.1.21s2.76-.64,2.76-2.55V172.5H458.68v-43.8h95.69v43.8H517.58ZM479.3,54.69h52.95V46.82H479.3v7.87Zm0,22.54h52.95V69.15H479.3v8.08Zm2.76,78.89H529.7V145.06H482.07v11.06Zm159.05-2.76c-15.95,28.49-41,52.1-68.9,67.62a94.56,94.56,0,0,0-16.8-19.35c0.64,1.7,1.28,3.19,1.91,4.68l-18.71,8.93c-3.19-8.93-10.63-23.6-17.44-34.66l17.86-7.44A310.38,310.38,0,0,1,555,201c25.09-11.91,49.76-32.32,62.73-56.35ZM632.4,37.47c-14.46,20.41-35.72,38.91-55.92,51.46a100.45,100.45,0,0,0-17.86-17.65c17.86-9.57,38.91-26.79,50-43.59Zm4.68,57.41c-15.74,21.48-38.7,41.25-60.39,54.44a85.5,85.5,0,0,0-17.44-17.65C578.61,121,602,103.17,613.9,85.1Z"/><path class="cls-1" d="M816.34,125.5v97.18H789.54V150.81H710.87c-4,26.37-13,51.88-32.53,72.72-4-6.17-13.18-15.74-19.14-20,26.37-28.92,29.34-68.26,29.34-104.19V27.26h25.52V72.13h69.11V24.07h26.15V97.65H714.06v1.7c0,8.72-.21,17.22-0.64,26.15H816.34Z"/><path class="cls-1" d="M946.9,145.06c10.63,17.44,23.6,40.61,29.34,55.5l-23.6,12.55a144,144,0,0,0-7.44-18.29c-50,15.73-58.48,19.14-64.43,23.18-1.49-7.23-5.74-19.56-9.78-25.73,4.68-2.34,9.78-6.59,9.78-14.88V34.7h89.52v105H906.71v41.89L935,173.56c-3.4-6.17-6.8-12.33-10-17.86ZM906.71,57.24V75.32H945V57.24H906.71Zm38.28,60V97.86H906.71v19.35H945Zm113.34,41.25c0,11.48-1.91,18.07-9.14,22.33-6.8,4-16.59,4.25-30.2,4.25a89.62,89.62,0,0,0-7-23.82,175.73,175.73,0,0,0,17.86.21c2.55,0,3.62-.85,3.62-3.62V59.37h-25.73V222.68H982.2V36.19h76.13V158.46Z"/><path class="cls-1" d="M1275.64,184.19h-82.5v15.1c0,12.55-3.83,17.65-13.82,20.84-10,2.76-24,2.55-42.53,2.55a92.52,92.52,0,0,0-8.72-20.63c12.33,0.43,28.92.43,32.53,0.43,4.25-.21,5.53-1.06,5.53-4.25v-14h-81.87V162.71h81.87v-8.93h0.21l-0.21-.21a202.62,202.62,0,0,0,26.79-7.87H1105.1V125.93h128.44l5.32-1.06,16.16,14a328.64,328.64,0,0,1-59.33,23.82h80v21.48Zm-3.4-123.12H1087.45V39.81h78.25A89.36,89.36,0,0,0,1161.24,27l26.15-4.46a103.64,103.64,0,0,1,6.8,17.22h78V61.07Zm-160.33,56.35V70.85h137.58v46.57H1111.91Zm25.3-17.44h85.48V88.08h-85.48V100Z"/><path class="cls-1" d="M1488.92,191v23H1296.48V191h60V161h-45.72V84.25h45.72V58.31h-56.35v-23h185.42v23H1427V84h47.42v77H1427v30h61.88Zm-108.23-51.46V191h22.11V139.54h46.14v-34H1402.8V58.31h-21.9v47.21h-45.5v34h45.29Z"/><path class="cls-1" d="M1540.38,122.52c-7.65-6.17-23.39-15.74-34.87-21.69l14-18.5c11.27,5.32,27.64,13.82,35.94,19.78ZM1557,152.29c-7,22.75-16.37,47.21-25.09,68l-23-13a616.56,616.56,0,0,0,27.64-68.26ZM1548.46,67c-7.44-6.59-23.39-16.37-34.87-22.75l14.89-18.5c11.06,5.53,27.22,14.46,35.3,20.84Zm148.42-37.85V222.47h-24.24v-84l-10.21,4.89c-1.91-8.08-6.17-18.92-10.84-29.34V216.3H1628V137.83l-12.76,5.32c-1.7-9.14-5.32-21.48-9.36-33.39-0.64,39.13-4.68,80.17-27.22,112.91-5.1-4.89-14.88-11.69-21.69-14.67,14.67-20.2,20.84-43.59,23.39-67.83l-13.82,5.1c-1.27-13.82-7-34.66-13-50.4l17.86-6.38a213.55,213.55,0,0,1,10.42,29.77c0.21-6.17.21-12.12,0.21-18.07V29.39h23.82V93.61l11.06-4.25c4,9.36,7.87,20,11.06,30V33.43h23.6V89.35l7.23-3.19c4.68,8.72,9.57,18.92,13.82,28.49V29.18h24.24Z"/><path class="cls-1" d="M1767.26,55.54H1723V34.92h44.23V24.07h24.88V34.92h22.33V55.54h-22.33v9.14h-24.88V55.54Zm137.58,144.6c0,10.21-1.7,15.52-8.29,18.92-6.17,3.4-15.1,3.61-26.37,3.61a72.41,72.41,0,0,0-5.1-16.37l-10.42,2.76a58.6,58.6,0,0,0-2.55-10.63c-30.2,2.13-61.24,3.83-83.78,5.32l-1.91-21.26c10.63-.42,24.24-1.06,38.91-1.7V164.63h-47.84v57.63h-24.24V164.63h-8.08v-20.2h8.08v-6h24.24v6h47.84V135.5h-58.69V67.88H1890V135.5h-60.39v8.93h75.28v55.71ZM1770.88,94h34.45V84.25h-34.45V94Zm34.45,25.09v-9.57h-34.45v9.57h34.45ZM1912.5,34.92V55.54H1867.2v9.14h-24.88V55.54h-21.05V34.92h21.05V24.07h24.88V34.92h45.29Zm-48.06,49.33h-34.87V94h34.87V84.25Zm0,25.3h-34.87v9.57h34.87v-9.57Zm-19.56,69.32a104.86,104.86,0,0,0-4.89-9.78l17.86-4.47h-28.28v15.1Zm32.53,23.6c2.13,0,2.76-.64,2.76-2.76V164.63h-21.26c6.8,11.7,13,27.22,15.1,37.85h3.4Z"/><path class="cls-1" d="M2126.41,193.12v23.6H1935.25v-23.6H2018V173.35H1949.5v-23.6H2018V131.88h-62.09V31.51H2109V131.88h-63.15v17.86h70v23.6h-70v19.78h80.59ZM1981.18,71.07h38.91v-17h-38.91v17Zm0,38.28h38.91V91.69h-38.91v17.65ZM2082.4,54.05h-38.49v17h38.49v-17Zm0,37.64h-38.49v17.65h38.49V91.69Z"/><path class="cls-1" d="M2203.6,123.38c-3.61,19.35-9.36,39.34-16.59,55.29,3.4,2.13,7.44,5.1,13.18,8.51,14.46,8.72,34.45,10,59.33,10,24.45,0,62.52-2.13,85.91-5.53-2.76,6.8-7,19.14-7.23,25.94-17.65,1.06-55.07,2.55-80,2.55-28.28,0-46.14-2.34-61.45-11.27-8.93-4.89-16.37-11.91-20.84-11.91-4.89,0-12.55,14.46-17.65,26.58l-17-24c7.44-8.93,15.31-15.95,22.33-20.2,4.89-10.63,9.14-24,12.33-37h-26.79c4.89-12.55,10.63-29.56,15.31-46.14h-19.14V73.62h49.76c-4.47,14.88-9.57,31.9-14.46,46.78h8.51l3.83-.85Zm-35.72-55.92c-2.34-9.57-7.87-25.09-11.48-36.57l22.33-6.8c3.83,11.48,9.36,25.73,12.33,35.3Zm69.53,119.29H2213.6V77.23h47.63c-9.78-4.47-19.78-8.72-28.49-12.33l16.37-13.4c7.44,2.76,16.37,6.17,24.88,10a157.21,157.21,0,0,0,17-11.27h-75.49V31.09h97.6l5.1-1.28,14.89,11.91a219.33,219.33,0,0,1-37.85,28.92c4.68,2.34,9.14,4.47,12.76,6.59h25.73v87.61c0,10.42-1.91,15.52-8.72,18.92-6.59,3.62-15.95,3.62-28.49,3.62a79.65,79.65,0,0,0-6.38-19.78c6.8,0.21,14,.21,16.16.21,2.55-.21,3.19-1.06,3.19-3.19v-9.78H2284.4v31h-22.54v-31h-24.45v31.9Zm0-91.22V107h24.45V95.52h-24.45Zm24.45,41V124.65h-24.45v11.91h24.45Zm47.63-41H2284.4V107h25.09V95.52Zm0,41V124.65H2284.4v11.91h25.09Z"/><path class="cls-1" d="M2412.41,67c-2.76,15.1-11.91,30-34.87,40.19-3-5.1-9.78-12.55-14.67-16.37C2379.67,85.1,2386.26,76,2389,67h-27.64V47.46h29.13V26.62h23V47.46h11.91V26.2h21.9V47.46h17.44V26.2h23V47.46h12.12V26h22.54V47.46h28.49V67h-28.49v7.65c0,6,.42,8.29,4,8.29h12.55a57.27,57.27,0,0,0,12.12-1.49,182.84,182.84,0,0,0,1.7,19.14c-3.19,1.06-8.51,1.28-13.4,1.28H2524c-20,0-24.24-8.08-24.24-27.86V67h-12.12V99.77h-62.3V67h-13Zm-48.27,41h185v46.14h-20.2v33.17c0,11.06-2.34,17-10.42,20.41-8.08,3.62-19.35,3.62-34.24,3.62-1.06-6.59-4.68-15.74-7.65-21.69,9.36,0.42,20.41.42,23.39,0.21,3,0,4-.64,4-3V164.42h-36.57v57.84H2442.4V164.42h-33v45.72h-24.67V154.21h-20.63V108.07Zm23.39,20.41v15.95h54.86V132.09h25.09v12.33h57V128.48H2387.53ZM2447.29,67v14h17.44V67h-17.44Z"/><path class="cls-1" d="M2745.62,149.32c-6-6.59-16.8-15.95-27.43-24.67a89.2,89.2,0,0,1-14.25,18.29,118.29,118.29,0,0,0-16.59-10.84c18.92,25.09,49.33,47.63,81.23,59.33-6.17,5.32-14.46,16.16-18.71,23.18-25.73-11.91-49.76-31-68.9-53.8v61.88H2654.4v-60.6c-19.14,22.33-43,40.83-68.26,52.52a156.16,156.16,0,0,0-17.86-21.69c34.45-13.4,67.62-39.76,86.12-68.47V75.32H2577V50.44h77.4V24.28H2681V50.44h80.17V75.32H2681v47.63c1.06,1.7,2.13,3.19,3.19,4.89,13.61-12.12,22.54-31,26.79-51.25l24.67,4.47a188.76,188.76,0,0,1-7,22.75c12.12,9.36,26.79,20.63,34.66,27.86Zm-109.51-68a207.71,207.71,0,0,1-7.65,23c7.65,6.59,15.74,13.61,20.63,18.71l-17,17.65c-3.19-4-8.51-9.36-14.25-14.89-7,11.48-15.1,21.48-24.45,29.13-4-4.47-14-12.76-19.56-16.59,18.71-13.4,31.68-35.72,37.64-61.67Z"/><path class="cls-1" d="M2975.06,56.82s0,8.51-.21,11.48c-2.76,95.05-5.1,128.86-13.82,140.13-6,7.87-11.91,10.21-20.41,11.69-8.08,1.06-20.84.85-33.38,0.43-0.42-7-3.83-17.65-8.29-24.67,13.61,1.28,26.16,1.28,31.68,1.28,4.25,0,6.59-.85,9.36-3.62,6.17-6.8,8.93-38.7,11.27-113.76h-45.5a183.38,183.38,0,0,1-18.71,33.6c-3.4-3.19-10.63-8.08-16.37-11.91v99.3h-56.77V216.3h-23v-158h24a228,228,0,0,0,6.17-34.23l27.64,3.83c-3.62,10.63-7.44,21.26-11.06,30.41h33V92.75c12.33-17.86,22.54-43.59,28.71-68.47l24,5.53a246.89,246.89,0,0,1-8.29,27h60Zm-127.37,23.6h-33.81v34.45h33.81V80.42Zm0,98V136.77h-33.81v41.68h33.81Zm70.6-11.48c-6-12.76-19.14-33.6-29.56-49.12l19.78-11.27c10.63,14.67,24.67,34.87,31.26,47.21Z"/><path class="cls-1" d="M3085,80.42c-5.53-6.38-15.1-11.48-24.24-11.48-18.07,0-33,13.61-34.23,52.95,8.51-10.42,22.11-16.8,32.32-16.8,26.37,0,45.08,15.74,45.08,49.55,0,32.32-22.54,52.52-49.33,52.52-30,0-56.56-24-56.56-79.53,0-58.69,29.13-83.78,60.81-83.78a58.29,58.29,0,0,1,42.74,17.86Zm-9.78,74.21c0-18.71-8.72-27.43-22.33-27.43-8.51,0-17.86,4.47-25.73,16.59,3,28.71,13.61,39.76,26.79,39.76C3065.64,183.55,3075.21,173.77,3075.21,154.63Z"/><path class="cls-1" d="M3122,124.86c0-54.44,21.26-81,53.37-81,31.9,0,53.16,26.79,53.16,81s-21.26,82.29-53.16,82.29C3143.25,207.16,3122,179.09,3122,124.86Zm77,0c0-44-10.21-56.77-23.6-56.77-13.61,0-23.82,12.76-23.82,56.77,0,44.23,10.21,57.84,23.82,57.84C3188.76,182.7,3199,169.09,3199,124.86Z"/><path class="cls-1" d="M3385,27.26c9.78,31,31.47,61.24,61,76.55-5.1,5.32-13.82,16.16-17.86,23.39A147.52,147.52,0,0,1,3412,114.87c-2.34,62.73-4.89,87.18-12.33,95.9-5.32,7-11.06,9.14-19.35,10.21-7.23,1.06-19.56,1.06-32.11.64-0.43-7.65-3.83-18.29-8.29-25.52,11.69,0.85,22.75,1.06,28.07,1.06,3.83,0,6.17-.43,8.51-3,4.25-4.68,6.59-23.6,8.51-67.83h-41.89c-5.32,40.83-19.14,77.19-74.21,97.81-3.19-7.23-10.63-17.65-16.8-23.39,48.06-15.52,59.11-43.59,63.37-74.43h-35.94v-14a179.68,179.68,0,0,1-15.95,15.31c-4.47-5.1-15.31-14.46-21.26-18.71,24-17.22,43-45.72,52.74-77.61l26.58,6.38a220.32,220.32,0,0,1-33.38,64h110.15a176.62,176.62,0,0,1-32.11-50.82H3332.5V27.26H3385Z"/><path class="cls-1" d="M3531.53,180.36l1.28,20c-24.24,6-49.76,11.48-68.9,16.16l-4.47-22.75c8.08-1.27,18.07-3.19,28.92-5.32V135.5h-26.16V114h26.16V98.5h-14.89V89.14c-3.19,3.19-6.17,6.17-9.36,8.93a242.39,242.39,0,0,0-8.29-25.94c14.46-11.48,30.2-30,39.13-49.33l17,8.51c-1.06,2.55-2.34,5.1-3.61,7.65,11.91,7.65,23.82,16.59,30.83,23.82l-9.57,20.84c-1.49-1.49-3-3.19-4.68-4.89V98.5h-17.44V114h23.82V135.5h-23.82V185Zm-53.59-37.21a273.79,273.79,0,0,1,7.23,36.36l-14.89,4.89c-0.85-10-3.83-25.3-6.59-36.79Zm45.5-65.71a209.32,209.32,0,0,0-25.52-20.2,203.3,203.3,0,0,1-14.46,20.2h40ZM3509.21,177a295.81,295.81,0,0,0,6.8-35.72l16.59,4.89c-3.83,12.55-7.44,26.58-10.21,35.51Zm98.66,22.75h48.91v17.86H3535.36V199.71h48.7v-9.36h-40.83V172.92h40.83v-8.08H3546V102.75h101.43v62.09h-39.55v8.08h41.89v17.44h-41.89v9.36ZM3657.63,77V96.16H3536V77h25.94a96.49,96.49,0,0,0-4.89-13.82l13.4-2.55h-29.56V41.72h43.59a60.4,60.4,0,0,0-6-13l23.39-5.53a59.22,59.22,0,0,1,8.93,18.5h41V60.65h-30.2l15.74,2.76c-2.34,4.89-4.68,9.36-6.8,13.61h27Zm-90.37,49.76h18.07v-9.14h-18.07v9.14Zm0,23.18h18.07V140.6h-18.07V150Zm11.48-89.31A75.8,75.8,0,0,1,3584.48,77h23.18A112.38,112.38,0,0,0,3613,60.65h-34.23Zm46.36,57h-18.71v9.14h18.71v-9.14Zm0,23h-18.71V150h18.71V140.6Z"/><path class="cls-1" d="M3865,89.78v22.54H3674.22V89.78h46.57a115.93,115.93,0,0,0-8.51-22.11l20.63-4h-46.78V41.3h71.66A100.36,100.36,0,0,0,3751.19,26l26.37-4.25a101,101,0,0,1,8.93,19.56H3855V63.62h-44l19.56,4.25c-3.61,7.87-7.23,15.31-10.63,21.9H3865Zm-164.37,35.51h140.13v97.6h-26.58v-7.23h-88.25v7.44h-25.3V125.29Zm25.3,21.05v14h88.25v-14h-88.25Zm88.25,48.48V179.51h-88.25v15.31h88.25Zm-76.55-131.2c5.1,8.08,9.36,18.5,10.85,26.15h43.8a226.15,226.15,0,0,0,9.57-26.15h-64.22Z"/><path class="cls-1" d="M3962.13,175.68c-14.89,18.29-39.76,33.81-65.07,40.83-3.83-6.17-11.27-15.95-16.59-20.84,23.6-4.68,48.27-15.31,61.24-27.64Zm-27.64-42.74c-0.21-2.55-.64-5.53-1.06-8.72-31.47,4.25-37.42,5.74-41,7.44-1.06-3.61-4.25-13.4-6.59-18.29,4.47-1.06,8.51-5.1,13.82-11.27,2.13-2.55,6.8-8.29,12.12-15.74-12.55,1.7-16.37,2.76-18.71,4a149.83,149.83,0,0,0-6.59-18.29c3.19-.64,6-3.83,8.93-8.29s12.33-21.05,17-37.21l19.56,6.8a222.83,222.83,0,0,1-20,36.36l11.06-.85c3.4-6,7-12.12,9.78-18.29l17.86,9.78c-10,17.44-23.39,35.09-36.79,50l16.8-1.7c-0.85-4.89-1.91-9.57-3-13.82l15.95-3.62a284.57,284.57,0,0,1,7.65,37.85Zm61,28.71V222h-25.3V161.65H3886V140.81h84.21V130.6h25.3v10.21h82.29v20.84h-82.29Zm16.8-119.08v83.36h-59.75V42.57h17a129,129,0,0,0,3.62-20l23,3.83-6.8,16.16h23ZM3990,61.07H3974V75.32H3990V61.07Zm0,31.47H3974v14.88H3990V92.54Zm31.26,72.94c18.5,9.36,44.23,24.24,57,34.45L4062.07,218c-11.69-10.42-36.79-26.37-55.71-36.79ZM4071,93.61a330,330,0,0,1,8.93,37l-17,4.47c-0.21-2.55-.64-5.32-1.06-8.29-31.68,3.4-37.85,4.68-41.47,6.59a158.44,158.44,0,0,0-6.59-19.14c4.46-1.06,8.51-5.1,13.82-11.06a182.1,182.1,0,0,0,12.76-16.37c-14.67,2.13-18.92,3.19-21.48,4.68a142.32,142.32,0,0,0-6.59-18.71c3-.85,6-4,8.72-8.51,3-4.47,12.55-21.48,17.22-37.85l20.41,5.74c-5.1,13.18-12.76,26.58-20.2,37.64l14.25-1.28c3-5.32,6.17-11.06,8.93-16.8l18.29,10.42a314.78,314.78,0,0,1-38.06,50.18l16.59-1.49c-1.06-4.68-2.13-9.14-3.19-13.18Z"/><path class="cls-1" d="M4168.82,181.64h-43.17v18.71h-23.39V37h66.56v144.6ZM4125.65,59.58V97h19.56V59.58h-19.56Zm19.56,99.52v-40h-19.56v40h19.56Zm100.15-90.16v20.2h42.1V111h-15.52v16.59h20.41v21.9h-20.41v46.36c0,12.12-2.34,18.5-10.85,22.33-8.08,3.61-19.78,4.25-35.51,4.25-0.85-7-4.68-17-7.87-23.82,10.21,0.42,21.9.42,25.09,0.42,3.4,0,4.47-.85,4.47-3.83V149.53h-74.42v-21.9h74.42V111h-67.83V89.14h41V68.94h-47.85V46.82h47.85V24.07h24.88V46.82h47.84V68.94h-47.84Zm-43.17,83.57c8.72,10.21,20.2,24.67,25.52,34l-22.11,13c-4.89-9.14-15.74-24.67-24.45-35.72Z"/><path class="cls-1" d="M4474.81,194.4c5.74,0,7-3,7.87-20,5.32,4,16.16,8.29,23.39,9.78-3.19,26.79-9.78,34.45-28.92,34.45h-26.58c-24.45,0-30.41-7.87-30.41-32.53V124.86H4392.3c-4.25,44-14.67,78.89-68.26,98.67-3-6.8-9.78-16.8-15.73-21.9,47-15.31,54.22-42.1,57.2-76.76h-52.1V100.2h80.38V23.43h26.79V100.2h80.59v24.67H4446.1v61c0,7.65,1.06,8.51,8.29,8.51h20.41ZM4357.22,92.33c-5.53-11.91-18.92-30.83-30.41-44.87l20.2-11.7c11.69,13,25.73,31.26,32.11,43.17Zm136.09-45.5c-11.06,16.59-24.24,34-34.87,45.29L4436.32,83c10.42-12.12,23.18-31.26,30.2-45.93Z"/><path class="cls-1" d="M4542.21,152.93c16.59-5.32,26.16-14.46,27.43-25.73a8,8,0,0,1-2.34.21c-10.63,0-20.2-6.8-20.2-18.92,0-11.91,9.57-19.14,20.84-19.14,15.1,0,23,11.27,23,29.13,0,24-15.52,43.8-41.89,51.46Z"/><path class="cls-1" d="M4816.73,75.11a176.24,176.24,0,0,1-32.11,53.58c5.1,40,12.76,68.47,19.35,68.47,3,0,4.89-10.85,5.53-34A52.9,52.9,0,0,0,4828.21,177c-3.61,35.09-10.42,44.23-27.43,44.23-18.5,0-30.41-30.62-37.42-72.72-4,3.19-8.29,6-12.55,8.72-1.91-2.55-5.32-6-8.72-9.57H4717c6,9.57,13.18,22.11,16.37,29.34l-16.59,8.93c-2.34-6.38-7.23-15.74-11.91-24.45v35.72c0,5.53.85,6.17,6.17,6.17h15.31c4.89,0,6-3.19,6.38-22.54,3.19,2.34,8.72,4.68,13.61,6.17-3-7.23-6-14.46-8.72-20.84l16.58-6.38c6.8,14.46,15.1,33.81,19.14,45.29l-17.86,7.65c-1.28-4.68-3.4-10.84-6-17.44-2.34,19.56-7.87,25.09-21.05,25.09h-20.63c-18.71,0-23-5.53-23-23V161.23h19.78l-4-7.23,13.18-6.38H4673V98.5h69.32v36.36a115.58,115.58,0,0,0,17.22-13.18c-2.13-18.5-3.4-38.28-4.47-57.84h-87.4V73h81.44v16.8h-81.44c-0.43,37.85-4.25,95.26-22.54,133.33-4.25-4-14.67-11.27-20.2-13.18,17.86-36.79,19.56-90.16,19.56-125.25V43.85h109.94c-0.21-6.59-.43-13.18-0.43-19.78h24.45v6.8l13.4-9.36c6.8,4.89,16.37,11.91,21.26,16.37l-7.87,6h17v20h-43.17c0.43,10.84,1.06,21.69,1.91,32.11a128.3,128.3,0,0,0,13-26.58ZM4657.68,208.43a411.81,411.81,0,0,0,9.57-47.21l16.16,6.17c-2.13,13.4-5.53,34.45-8.29,47.63Zm64.86-92.92h-28.92v15.31h28.92V115.51Zm69.11-71.66c-4-3.62-8.93-7.44-13.18-10.84V43.85h13.18Z"/><path class="cls-1" d="M5006.2,132.52a124.94,124.94,0,0,1-40.83,49.55c20.41,7.23,44.23,12.12,70.38,14.46-5.32,5.74-12.12,16.8-15.52,23.6C4989.4,216.3,4962,209.07,4939,197.8c-24.45,11.69-52.74,18.71-82.72,22.75-2.55-6-9.57-17.22-14.88-22.33,26.58-2.76,51.25-7.65,72.3-15.52a143.06,143.06,0,0,1-33.6-33.39l7-3h-10V123.16h107.38l4.68-1.06ZM4870.11,131h-23.6V84.89h30.41a132.48,132.48,0,0,0-10-21.9l18.92-5.32c-10.63.64-21.48,1.06-31.68,1.28-0.42-6.38-3.4-15.95-5.74-21.48,55.92-1.91,119.93-7,158.63-14.46l17,20.41c-23,4.25-50.4,7.65-78.68,10.21,4.25,8.51,8.29,19.78,9.57,27.43l-15.74,3.83h37A241.09,241.09,0,0,0,4990,53l27,6.38c-4.89,8.93-10.42,17.65-15.31,25.52h30.2V131h-24.67V106.79H4870.11V131Zm73.79-77.4c-17.86,1.7-36.36,3-54.44,3.83,4.89,7.87,9.78,17.44,11.91,24.24l-11.06,3.19h40.61a127.75,127.75,0,0,0-8.08-26.37Zm-37,92.71c8.72,9.57,19.56,17.65,32.32,24.67,11.27-6.8,21.26-14.88,28.92-24.67h-61.24Z"/><path class="cls-1" d="M5119.32,136.13c-6.8,2.13-13.4,4.25-20.2,6.17v53.59c0,11.69-2.13,18.07-8.51,22.11-6.17,4-15.31,4.89-28.49,4.68a86.53,86.53,0,0,0-6.59-23.39,159.86,159.86,0,0,0,17,.21c2.34,0,3.4-.85,3.4-3.4v-47l-19.56,5.74-5.53-24.45c7.23-1.7,15.74-3.62,25.09-6V87.65h-21.69V64.26h21.69v-40h23.18v40h18.5V87.65h-18.5v30.62c5.74-1.7,11.27-3.19,17-4.89Zm78.46,14.67h51.46v20h-51.46v27h21.05V176.11h23.6v46.78h-23.6v-5.53H5127V176.53h22.54V197.8h24.24v-27H5115.7v-20h18.07c-4.47-3.62-10.63-8.08-14.46-10.63a73.73,73.73,0,0,0,18.5-22.33c-3,.64-6.17,1.28-9.14,1.91A76.3,76.3,0,0,0,5118,101.9c20.41-3.19,40.61-8.29,58.05-16.37a291,291,0,0,0-20.84-23.6A203,203,0,0,1,5131.65,74a67.34,67.34,0,0,0-13.82-17c23.82-8.51,40.4-20.63,49.33-32.32l23.18,4.47c-2.34,3.19-4.47,6.17-7,9.14h47.42l4-1.06,15.31,8.29c-16.59,33.39-47.84,53.16-84.84,64.86l0.42,0.21c-0.85,2.34-1.7,4.47-2.55,6.8h74v20h-39.34v13.4Zm-34.87-63.15-38.06,5.1-1.06-15.1,38.06-3.83Zm10.84,63.15v-13.4h-21.48a100.18,100.18,0,0,1-11.06,13.4h32.53ZM5173.54,56a272.08,272.08,0,0,1,19.14,20.63,98.53,98.53,0,0,0,24-20.63h-43.17Z"/><path class="cls-1" d="M5298.36,125.5c-7.44-6.38-23.39-16.16-34.45-22.11l11.48-19.14c10.63,5.1,26.58,14,34.87,20ZM5462.31,161a266.23,266.23,0,0,1-29.56,23.18,102,102,0,0,0,33.6,18.07,86.11,86.11,0,0,0-15.95,18.07c-32.75-13-53.8-37-67.19-68.68a135.19,135.19,0,0,1-21.9,18.71v24.45l39.34-6.8a146.05,146.05,0,0,0,0,19.35c-45.5,9.14-52.95,12.12-58.05,15.1-1.06-4.68-5.1-14-8.29-18.07,3.19-2.13,5.74-5.53,5.74-13.82v-8.51a197.62,197.62,0,0,1-19.56,7.87c-3-4.68-9.14-11.69-13.4-16.16-6,15.31-12.76,30.62-19.35,44.44l-19.14-15.95c8.72-15.73,20.63-41.68,30.2-65.49l16.59,15.74c-2.34,6.17-4.89,12.76-7.65,19.35,19.35-6,37.21-14.67,50.4-25.3h-24.67V98.07c-3.83.64-8.08,1.28-12.33,1.91-1.49-5.32-6.8-13.18-10.63-17.44,32.54-1.91,39.55-6,41.89-17h21.69c-2.13,14.67-8.51,24-27.86,29.56h92.07v51.46H5404a114,114,0,0,0,15.31,24.24,204.14,204.14,0,0,0,24-21.69ZM5308.57,69.15c-7.23-6.17-23-16.59-33.38-23.18l11.91-18.5c9.57,5.32,23.39,13.61,31.9,19.56V41.51h51.25a125.29,125.29,0,0,0-5.1-11.91l23-6c2.76,5.53,6.38,12.33,8.72,17.86h63.37v20h-42.32v7.44c0,4,.43,5.74,4.68,5.74h17.65c4.25,0,11.7-.43,15.1-1.49,0.64,5.74.85,11.69,1.7,17-3.4,1.06-10.21,1.49-15.95,1.49h-23c-18.29,0-22.11-7.23-22.11-23V61.5h-77V52.35Zm44.23,58.9h65.28V113.81H5352.8v14.25Z"/><path class="cls-1" d="M5672.4,187.59v25.09H5482.72V187.59h49.12c3.62-17.22,7.44-37.21,11.06-58.05h-36.15V104.66h40c1.91-12.12,3.61-24.45,5.1-36.15h-57V43.42h163.73V68.51H5579.9c-1.7,11.7-3.62,24-5.53,36.15h39.34l4.47-.85,20.2,1.49c-1.28,24.88-4,54.86-7,82.29h41Zm-101.86-58.05c-3.62,21.05-7.23,41-10.63,58.05h44.44c2.13-19.35,4-40.61,5.32-58.05h-39.13Z"/><path class="cls-1" d="M5861.65,190.36c0,15.31-3.62,22.54-13.4,26.79-10.21,4.47-25.09,4.89-47,4.89-1.49-7.44-6.59-19.56-10.63-26.58,14.89,0.85,32.75.64,37.43,0.64,5.1,0,6.8-1.7,6.8-6.17V159.1h-91c-5.53,23.82-16.16,47-35.94,63.58-3.83-5.32-14-14.67-19.56-18.29,32.11-27.43,35.09-68,35.09-100.37v-70h138.22V190.36Zm-26.79-55.71V108.7h-85.27c-0.21,8.08-.64,17-1.49,25.94h86.76Zm-85.27-75.91V84.67h85.27V58.73h-85.27Z"/><path class="cls-1" d="M6020.28,128.05c14.88,33.81,42.1,58.69,83.57,69.53-6.17,5.32-13.82,16.37-17.44,23.6-40-12.76-65.71-37.42-83.57-72.3-11.69,28.28-35.72,55.07-83.57,72.94-3.4-6.38-11.06-17-16.59-21.9,49.12-17.44,70-44.87,78.68-71.87h-71.23V102.11h76.55c0.43-5.74.64-11.06,0.64-16.37V64.26h-69.53V38.32h168.41V64.26h-72.3v21.9c0,5.1-.21,10.42-0.42,15.95h81v25.94h-74.21Z"/><path class="cls-1" d="M6139.57,185.25c0-12.12,9.57-21.05,22.12-21.05s22.11,8.93,22.11,21.05c0,12.33-9.57,20.84-22.11,20.84S6139.57,197.59,6139.57,185.25Zm3.62-108.45-0.85-31.68h38.91l-1.06,31.68-7.44,72.72h-21.9Z"/></svg>