<svg xmlns="http://www.w3.org/2000/svg" viewBox="0 0 640 74"><defs><style>.a,.d{fill:#fff;}.a{opacity:0.33;}.a,.b,.c{isolation:isolate;}.b{fill:#070000;opacity:0.6;}</style></defs><title>ui-ipad</title><path class="a" d="M105,48.5H21.3a4,4,0,0,1-4-4V11.1a4.1,4.1,0,0,1,4-4H105a4.1,4.1,0,0,1,4,4V44.5A4,4,0,0,1,105,48.5Z"/><path class="b" d="M105.4,46.1H20.8a1.2,1.2,0,0,1-1.2-1.2V10.7a1.2,1.2,0,0,1,1.2-1.2h84.5a1.2,1.2,0,0,1,1.2,1.2V44.9A1.2,1.2,0,0,1,105.4,46.1Z"/><g class="c"><path class="d" d="M42.5,23.8v2.5l0.2-.2a34,34,0,0,1,4.9,2.9l-0.7.9a31.5,31.5,0,0,0-4.4-2.7v7.2H41.4V23.8H36.1v-1H48.3v1H42.5Z"/><path class="d" d="M54.1,30.6H49.8v-1h4.3v1Zm-0.4-5.7H50.1v-1h3.6v1Zm4.1,1.9c0,0.2,0,.4,0,0.6,0.6,2.9,2,5.1,4.5,6l-0.7.9a7.3,7.3,0,0,1-4.1-4.7,7.8,7.8,0,0,1-4.2,4.8l-0.8-.8c4-2,4.3-4.9,4.3-6.8v-1h1.1v1.1Zm-2.2-1.7A13.5,13.5,0,0,1,54.1,28l-1-.6a13.9,13.9,0,0,0,2.2-5.7L56.5,22a21,21,0,0,1-.5,2.1h5.2l0.8,0.4a20.9,20.9,0,0,1-1.4,3.7l-0.9-.4a16.4,16.4,0,0,0,1-2.6h-5Z"/><path class="d" d="M76.1,31H74.4v2.1a1,1,0,0,1-.6,1.1,8.4,8.4,0,0,1-2.4.2,3.9,3.9,0,0,0-.4-1h2c0.2,0,.3-0.1.3-0.3V31H66.1v3.3h-1V31H63.4v-1h1.6V24.9h4.1V23.5H63.9v-1H75.5v1H70.2v1.3h4.2v5.2h1.7v1Zm-10-5.2v1.7h3.1V25.8H66.1Zm0,4.3h3.1V28.4H66.1v1.7Zm4.1-4.3v1.7h3.2V25.8H70.2Zm3.2,4.3V28.4H70.2v1.7h3.2Z"/><path class="d" d="M82,24.9H77.2V24.1H82v0.8Zm-0.4,8.6h-3v0.6H77.7V29.5h3.9v4Zm-0.1-6.8H77.8V25.9h3.7v0.8Zm-3.7,1h3.7v0.8H77.8V27.7Zm0.9,2.7v2.3h2.1V30.4H78.6ZM79.5,24a10.3,10.3,0,0,0-.8-1.9l0.9-.3a9.2,9.2,0,0,1,.9,1.8Zm9,9.2c0.3,0,.3-0.2.4-1.6L89.8,32c-0.1,1.7-.4,2.2-1.2,2.2H87.6c-0.9,0-1.2-.3-1.2-1.3V29.5H85.3c-0.2,2.2-.8,3.9-2.8,4.9l-0.6-.8c1.8-.8,2.3-2.3,2.5-4.1H83.1V25.5l-0.7.7-0.8-.7a9.7,9.7,0,0,0,2.5-3.5l1,0.3a13,13,0,0,1-2,3.2h5.3v4.1H87.4v3.3c0,0.3,0,.4.3,0.4h0.8Zm-4.5-4.6h3.3V26.4H84.1v2.2ZM89,26.1a21.9,21.9,0,0,0-2.9-3.8l0.7-.5a22.2,22.2,0,0,1,2.9,3.7Z"/></g></svg>