<svg xmlns="http://www.w3.org/2000/svg" viewBox="0 0 640 117.5"><defs><style>.a,.d{fill:#fff;}.a{opacity:0.33;}.a,.b,.c{isolation:isolate;}.b{fill:#070000;opacity:0.6;}</style></defs><title>ui-iphone5</title><path class="a" d="M200.3,108.3H36.5a7.9,7.9,0,0,1-7.9-7.9V35.1a8,8,0,0,1,7.9-7.9H200.1a8,8,0,0,1,7.9,7.9v65.3A7.8,7.8,0,0,1,200.3,108.3Z"/><path class="b" d="M200.9,103.5H35.5a2.4,2.4,0,0,1-2.4-2.4V34.3A2.4,2.4,0,0,1,35.5,32H200.8a2.4,2.4,0,0,1,2.4,2.4v66.8A2.3,2.3,0,0,1,200.9,103.5Z"/><g class="c"><path class="d" d="M77.9,59.9v4.8l0.4-.4a66.5,66.5,0,0,1,9.6,5.6l-1.4,1.8a61.5,61.5,0,0,0-8.5-5.4V80.5H75.7V59.9H65.4v-2H89.2v2H77.9Z"/><path class="d" d="M100.7,73.2H92.2v-2h8.5v2ZM99.9,62.1H92.8V60.2h7.1v1.9Zm8,3.6c0,0.4,0,.8,0,1.2,1.2,5.7,3.9,10,8.8,11.7a8.8,8.8,0,0,0-1.3,1.8c-4-1.6-6.5-4.8-8.1-9.2-0.9,3.3-3.2,6.7-8.3,9.4A9.2,9.2,0,0,0,97.4,79c7.7-3.9,8.3-9.5,8.3-13.4v-2h2.1v2.1Zm-4.3-3.2a26.4,26.4,0,0,1-2.8,5.7,11.7,11.7,0,0,0-2-1.1c2-2.6,3.5-6.8,4.3-11.1l2.2,0.4a41.2,41.2,0,0,1-1.1,4.2h10.1l1.5,0.8a40.9,40.9,0,0,1-2.8,7.3l-1.7-.9a32.2,32.2,0,0,0,2-5.1h-9.7Z"/><path class="d" d="M143.6,74.1h-3.3v4c0,1.2-.3,1.8-1.2,2.1a16.4,16.4,0,0,1-4.7.3,7.6,7.6,0,0,0-.7-1.9h4c0.5,0,.6-0.1.6-0.6v-4H124v6.5h-2V74.1h-3.2V72.2h3.2V62h8V59.5H119.9V57.6h22.7v1.9H132.1V62h8.2V72.2h3.3v1.9ZM124,63.9v3.3h6.1V63.9H124Zm0,8.3h6.1V68.9H124v3.3Zm8.1-8.3v3.3h6.2V63.9h-6.2Zm6.2,8.3V68.9h-6.2v3.3h6.2Z"/><path class="d" d="M155.2,62.1h-9.4V60.5h9.4v1.6Zm-0.7,16.8h-5.9v1.3h-1.8v-9h7.6v7.8Zm-0.2-13.3h-7.3V64h7.3v1.6Zm-7.3,1.9h7.3v1.6h-7.3V67.5Zm1.7,5.3v4.4h4.1V72.8h-4.1Zm1.7-12.5a20.1,20.1,0,0,0-1.6-3.6l1.7-.6a18,18,0,0,1,1.8,3.6Zm17.7,18c0.6,0,.7-0.4.8-3.2a5.7,5.7,0,0,0,1.8.8c-0.2,3.4-.7,4.3-2.3,4.3H166c-1.8,0-2.3-.6-2.3-2.6V71.1h-2.1c-0.4,4.2-1.5,7.6-5.5,9.5a5.6,5.6,0,0,0-1.2-1.5c3.5-1.6,4.4-4.4,4.8-8h-2.3V63.2l-1.3,1.4-1.5-1.4a19,19,0,0,0,5-6.9l1.9,0.6a25.5,25.5,0,0,1-4,6.3h10.4v7.9h-2.1v6.4c0,0.6.1,0.8,0.6,0.8H168Zm-8.7-8.9h6.5V65h-6.5v4.4Zm9.6-4.9a42.8,42.8,0,0,0-5.6-7.5l1.4-.9a43.4,43.4,0,0,1,5.7,7.3Z"/></g></svg>